if (_typeface_js && _typeface_js.loadFace) _typeface_js.loadFace({"glyphs":{"ⴟ":{"x_min":33.234375,"x_max":1101.34375,"ha":1064,"o":"m 815 449 l 807 447 q 823 481 815 465 q 838 514 831 498 q 853 546 845 529 q 869 580 860 562 q 802 567 834 574 q 737 555 770 561 q 672 542 705 548 q 604 529 640 536 q 619 476 612 500 q 633 427 626 451 q 648 379 640 403 q 663 325 655 354 l 815 449 m 771 -64 l 761 -61 q 789 -68 774 -64 q 819 -77 804 -73 q 850 -85 835 -81 q 877 -93 865 -89 l 850 -228 l 643 -176 l 568 94 q 381 -46 473 22 q 193 -188 289 -116 l 204 -182 l 189 -302 l 33 -302 l 51 -151 l 536 220 q 495 364 514 294 q 454 508 475 434 q 424 503 438 505 q 396 498 410 500 q 367 492 382 495 q 335 487 352 489 q 327 459 332 474 q 319 433 322 443 l 151 433 l 199 589 l 129 589 l 137 652 l 219 652 q 225 671 221 660 q 231 691 229 682 l 407 691 l 364 564 q 635 612 500 588 q 906 660 769 636 q 918 689 912 673 q 929 719 925 705 l 1101 719 l 963 409 l 696 196 l 771 -64 "},"ᴴ":{"x_min":-18.3125,"x_max":765.65625,"ha":744,"o":"m -18 464 l -8 509 l 64 509 l 157 976 l 84 976 l 93 1021 l 388 1021 l 379 976 l 305 976 l 267 788 l 497 788 l 534 976 l 461 976 l 469 1021 l 765 1021 l 756 976 l 682 976 l 589 509 l 662 509 l 653 464 l 358 464 l 367 509 l 440 509 l 486 737 l 258 737 l 212 509 l 286 509 l 277 464 l -18 464 "},"":{"x_min":34.90625,"x_max":993.4375,"ha":949,"o":"m 186 978 q 226 1069 196 1025 q 296 1145 255 1112 q 387 1197 337 1178 q 489 1217 437 1217 q 539 1208 515 1217 q 581 1187 562 1200 q 614 1154 600 1173 q 638 1116 629 1136 q 681 1154 657 1136 q 731 1186 705 1172 q 786 1208 758 1200 q 842 1217 814 1217 q 910 1198 878 1217 q 963 1144 942 1179 q 991 1058 984 1109 q 983 942 998 1007 l 792 942 q 819 999 808 974 q 834 1044 830 1024 q 833 1092 841 1075 q 798 1109 825 1109 q 759 1105 778 1109 q 723 1087 740 1101 q 691 1047 705 1074 q 667 974 678 1020 l 654 918 l 536 918 l 549 974 q 559 1047 559 1020 q 551 1088 559 1074 q 529 1105 543 1101 q 499 1110 515 1110 q 467 1104 483 1110 q 436 1089 450 1099 q 410 1061 421 1078 q 393 1022 399 1045 l 328 733 q 380 766 352 750 q 435 794 407 782 q 489 813 462 806 q 538 820 515 820 q 669 792 609 820 q 769 713 730 765 q 823 586 809 661 q 816 416 838 511 q 747 230 793 311 q 639 93 701 149 q 502 8 577 37 q 344 -20 426 -20 q 199 5 264 -20 q 95 80 135 31 q 40 198 54 128 q 46 357 26 268 l 186 978 m 264 413 q 244 294 248 345 q 243 208 239 244 q 259 149 247 172 q 288 112 270 126 q 327 93 305 98 q 374 88 349 88 q 448 105 415 88 q 507 163 480 123 q 557 265 535 202 q 600 417 580 328 q 619 556 619 499 q 606 647 619 612 q 566 697 593 682 q 500 713 540 713 q 432 690 467 713 q 364 628 396 668 q 304 533 331 588 q 264 413 278 478 "},"⟆":{"x_min":-45.4375,"x_max":596.109375,"ha":571,"o":"m -45 -227 l -33 -161 q 16 -156 -8 -161 q 84 -148 40 -152 q 282 111 253 -133 q 236 536 295 225 q 205 929 177 855 q 413 1067 259 1067 q 596 942 548 1067 l 488 888 q 429 973 463 973 q 352 864 369 973 q 407 512 348 835 q 445 66 467 190 q 120 -219 404 -163 q 22 -227 84 -227 q -45 -227 -39 -227 "},"ₑ":{"x_min":46,"x_max":487,"ha":555,"o":"m 340 224 q 351 305 351 274 q 347 333 351 322 q 302 365 338 365 q 246 334 267 365 q 208 224 222 297 l 340 224 m 200 180 q 192 113 192 143 q 200 65 192 83 q 270 31 217 31 q 347 54 315 31 q 395 120 379 76 l 459 120 q 373 20 429 52 q 229 -11 318 -11 q 77 43 123 -11 q 46 141 46 81 q 52 198 46 167 q 141 352 71 297 q 313 408 209 408 q 457 349 415 408 q 487 243 487 309 q 480 180 487 213 l 200 180 "},"ȋ":{"x_min":42.046875,"x_max":491.265625,"ha":475,"o":"m 272 82 l 364 82 l 350 0 l 42 0 l 153 639 l 61 639 l 75 721 l 383 721 l 272 82 m 486 854 l 410 854 q 385 929 415 903 q 295 956 356 956 q 196 929 235 956 q 145 854 157 903 l 69 854 q 151 1009 86 952 q 314 1065 216 1065 q 458 1010 413 1065 q 486 854 503 955 "},"‥":{"x_min":98.90625,"x_max":743.375,"ha":842,"o":"m 509 109 q 559 200 518 162 q 647 238 600 238 q 722 200 695 238 q 741 109 750 162 q 690 17 731 55 q 602 -20 649 -20 q 527 17 554 -20 q 509 109 499 55 m 101 109 q 151 200 110 162 q 240 238 192 238 q 315 200 288 238 q 333 109 343 162 q 283 17 324 55 q 194 -20 242 -20 q 119 17 147 -20 q 101 109 92 55 "},"𝒙":{"x_min":-22.375,"x_max":756.84375,"ha":745,"o":"m 457 459 l 670 720 l 756 720 l 479 381 l 619 82 l 705 82 l 691 0 l 415 0 l 288 271 l 64 0 l -22 0 l 263 351 l 128 639 l 55 639 l 69 721 l 334 721 l 457 459 "},"⇜":{"x_min":46,"x_max":976,"ha":1047,"o":"m 472 666 l 625 464 l 778 666 l 886 523 l 976 523 l 976 374 l 823 374 l 777 434 l 625 231 l 472 434 l 426 374 l 253 374 l 332 165 l 301 165 l 46 445 l 46 451 l 301 731 l 332 731 l 253 523 l 364 523 l 472 666 "},"⣌":{"x_min":183,"x_max":793,"ha":976,"o":"m 218 129 q 183 225 183 169 q 219 321 183 281 q 305 361 255 361 q 390 321 354 361 q 427 225 427 281 q 391 129 427 169 q 304 90 355 90 q 218 129 254 90 m 584 853 q 549 949 549 893 q 585 1045 549 1005 q 671 1085 621 1085 q 756 1045 720 1085 q 793 949 793 1005 q 757 853 793 893 q 671 814 721 814 q 584 853 620 814 m 218 -231 q 183 -135 183 -191 q 219 -39 183 -79 q 305 0 255 0 q 390 -39 354 0 q 427 -135 427 -79 q 391 -231 427 -191 q 304 -271 355 -271 q 218 -231 254 -271 m 584 -231 q 549 -135 549 -191 q 585 -39 549 -79 q 671 0 621 0 q 756 -39 720 0 q 793 -135 793 -79 q 757 -231 793 -191 q 671 -271 721 -271 q 584 -231 620 -271 "},"⡡":{"x_min":183,"x_max":793,"ha":976,"o":"m 218 853 q 183 949 183 893 q 219 1045 183 1005 q 305 1085 255 1085 q 390 1045 354 1085 q 427 949 427 1005 q 391 853 427 893 q 304 814 355 814 q 218 853 254 814 m 584 129 q 549 225 549 169 q 585 321 549 281 q 671 361 621 361 q 756 321 720 361 q 793 225 793 281 q 757 129 793 169 q 671 90 721 90 q 584 129 620 90 m 218 -231 q 183 -135 183 -191 q 219 -39 183 -79 q 305 0 255 0 q 390 -39 354 0 q 427 -135 427 -79 q 391 -231 427 -191 q 304 -271 355 -271 q 218 -231 254 -271 "},"Ⅲ":{"x_min":-29.15625,"x_max":1287.84375,"ha":1256,"o":"m -29 0 l -14 82 l 101 82 l 250 931 l 133 931 l 147 1013 l 1287 1013 l 1273 931 l 1156 931 l 1007 82 l 1125 82 l 1110 0 l -29 0 m 773 82 l 921 931 l 820 931 l 672 82 l 773 82 m 437 82 l 585 931 l 484 931 l 336 82 l 437 82 "},"⤒":{"x_min":268.15625,"x_max":777.84375,"ha":1046,"o":"m 456 0 l 456 695 l 268 607 l 268 643 l 456 853 l 456 856 l 283 856 l 283 1005 l 763 1005 l 763 856 l 590 856 l 590 853 l 777 643 l 777 607 l 590 695 l 590 0 l 456 0 "},"Ƹ":{"x_min":-0.5625,"x_max":809.734375,"ha":821,"o":"m 356 568 l 195 919 l 212 1012 l 809 1012 l 767 767 l 683 767 l 710 919 l 447 919 l 564 659 l 537 507 l 497 507 q 337 448 400 507 q 254 278 273 388 q 276 116 236 173 q 410 59 317 59 q 550 109 494 59 q 630 257 606 160 l 704 257 l 665 34 q 498 -6 577 7 q 347 -20 419 -20 q 68 55 155 -20 q 4 272 -19 131 q 141 497 29 415 q 356 568 219 554 "},"ˌ":{"x_min":88.84375,"x_max":263.8125,"ha":353,"o":"m 88 -125 l 149 217 l 263 217 l 204 -125 l 88 -125 "},"დ":{"x_min":34.328125,"x_max":1060,"ha":1110,"o":"m 841 453 q 857 523 851 491 q 863 580 863 555 q 849 633 863 614 q 801 653 835 653 q 743 641 768 653 q 699 601 719 629 q 662 524 680 572 q 626 402 645 476 q 609 322 615 357 q 603 263 603 288 q 622 202 603 220 q 682 184 641 184 q 731 193 711 184 q 767 226 752 203 q 796 290 783 250 q 825 391 810 330 l 841 453 m 502 -306 q 510 -280 508 -293 q 513 -257 513 -268 q 490 -192 513 -222 q 435 -142 468 -163 q 362 -109 401 -121 q 289 -98 323 -98 q 257 -102 272 -98 q 221 -121 241 -107 q 176 -158 202 -134 q 113 -220 150 -182 l 34 -87 q 74 -54 54 -68 q 115 -29 94 -40 q 158 -9 135 -17 q 208 3 181 -1 q 151 54 179 27 q 102 115 123 81 q 67 192 80 149 q 54 292 54 235 q 66 406 54 349 q 103 517 79 464 q 163 617 127 571 q 245 698 199 664 q 349 752 292 732 q 472 772 405 772 q 529 766 505 772 q 571 750 554 760 q 602 727 589 740 q 624 699 614 714 q 724 752 672 732 q 831 772 776 772 q 927 756 885 772 q 999 711 970 741 q 1044 639 1028 682 q 1060 540 1060 596 q 1041 408 1060 480 q 984 265 1021 328 q 896 157 946 201 q 785 90 846 113 q 658 67 724 67 q 555 85 600 67 q 478 137 510 104 q 429 215 446 170 q 413 311 413 260 q 424 396 413 352 q 443 462 433 432 q 467 520 453 492 q 497 573 480 547 q 540 625 515 599 l 540 625 q 521 639 531 633 q 500 647 511 644 q 473 651 488 651 q 438 651 459 651 q 382 635 407 651 q 339 587 358 619 q 303 510 320 556 q 271 404 287 464 q 257 294 257 345 q 297 145 257 207 q 409 41 338 83 q 467 8 437 24 q 526 -23 498 -6 q 580 -59 555 -40 q 625 -102 605 -78 q 655 -157 644 -127 q 667 -226 667 -188 q 664 -264 667 -244 q 656 -306 662 -284 l 502 -306 "},"Ԓ":{"x_min":-29.15625,"x_max":1163.734375,"ha":1105,"o":"m 308 -242 l 336 -83 l 415 -83 q 426 -177 408 -147 q 491 -207 444 -207 q 582 -156 550 -207 q 639 33 615 -105 l 794 920 l 516 920 l 483 732 q 325 114 410 315 q 143 -20 268 -20 q -29 32 18 -20 l -2 185 l 76 185 q 87 91 69 121 q 153 62 105 62 q 235 116 200 62 q 315 344 270 171 q 398 732 360 516 l 432 931 l 316 931 l 330 1013 l 1163 1013 l 1149 931 l 1032 931 l 874 27 q 757 -212 845 -136 q 506 -289 669 -289 q 406 -277 455 -289 q 308 -242 357 -265 "},"ϼ":{"x_min":-24.421875,"x_max":849.75,"ha":865,"o":"m -24 -213 l -10 -131 l 50 -131 l 124 284 q 446 730 193 680 q 592 740 501 740 q 809 640 750 740 q 839 361 870 536 q 711 81 809 183 q 475 -20 613 -20 q 365 7 406 -20 q 305 91 323 35 l 267 -131 l 512 -131 l 498 -213 l 252 -213 l 239 -288 l 23 -288 l 36 -213 l -24 -213 m 359 395 l 347 324 q 344 142 324 198 q 427 86 363 86 q 532 145 494 86 q 596 360 569 205 q 610 591 626 532 q 526 651 593 651 q 423 594 461 651 q 359 395 384 538 "},"ȡ":{"x_min":17.71875,"x_max":906.75,"ha":988,"o":"m 409 28 q 377 7 404 22 q 257 -20 325 -20 q 58 81 119 -20 q 27 360 -2 183 q 155 639 59 538 q 390 741 252 741 q 500 713 458 741 q 560 629 542 685 l 620 974 l 527 974 l 541 1055 l 850 1055 l 712 267 l 767 267 q 832 259 795 267 q 903 130 922 241 q 664 -20 876 -20 q 526 34 578 -20 q 516 50 514 47 q 484 15 498 34 q 444 -67 461 -13 l 377 -67 q 409 28 387 -14 m 702 204 l 702 202 q 698 87 687 118 q 730 64 706 66 q 820 122 810 64 q 723 207 835 207 q 702 204 713 207 m 506 324 l 519 396 q 521 578 541 522 q 438 635 502 635 q 333 575 370 635 q 269 360 296 516 q 259 145 242 205 q 342 86 276 86 q 445 142 406 86 q 506 324 484 198 "},"◦":{"x_min":187,"x_max":550,"ha":737,"o":"m 224 516 q 265 401 224 448 q 368 355 307 355 q 471 401 429 355 q 513 516 513 448 q 471 630 513 583 q 369 677 429 677 q 265 630 307 677 q 224 516 224 583 m 187 516 q 239 658 187 600 q 369 717 292 717 q 497 658 445 717 q 550 516 550 600 q 497 373 550 431 q 368 315 444 315 q 239 373 292 315 q 187 516 187 431 "},"ņ":{"x_min":69.734375,"x_max":829.640625,"ha":909,"o":"m 336 -264 q 417 -201 389 -236 q 454 -119 446 -165 l 459 -90 l 590 -90 l 589 -92 q 524 -221 577 -168 q 378 -313 473 -275 l 336 -264 m 69 0 l 181 639 l 89 639 l 103 721 l 412 721 l 394 619 q 499 712 444 683 q 631 741 554 741 q 784 668 740 741 q 812 550 812 623 q 803 458 812 508 l 737 82 l 829 82 l 815 0 l 506 0 l 587 465 q 596 545 596 512 q 589 592 596 575 q 522 628 574 628 q 417 574 456 628 q 357 405 377 521 l 286 0 l 69 0 "},"Ⅽ":{"x_min":40.25,"x_max":982.390625,"ha":995,"o":"m 893 289 q 722 56 829 132 q 458 -20 616 -20 q 119 121 228 -20 q 51 505 9 262 q 253 889 94 748 q 642 1031 412 1031 q 808 1009 724 1031 q 982 943 892 987 l 938 694 l 861 694 q 808 885 861 821 q 653 949 756 949 q 436 840 520 949 q 313 505 353 731 q 319 170 273 279 q 499 62 365 62 q 657 118 590 62 q 771 289 725 174 l 893 289 "},"ỳ":{"x_min":-22.90625,"x_max":797.6875,"ha":726,"o":"m 438 1078 l 550 823 l 450 823 l 268 1078 l 438 1078 m 303 -185 l 130 639 l 59 639 l 74 721 l 339 721 l 485 23 q 602 263 554 136 q 695 637 649 390 l 608 637 l 622 720 l 797 720 q 760 521 782 633 q 638 118 706 246 q 316 -274 459 -213 q 118 -309 234 -309 q -22 -279 60 -309 l 3 -129 l 72 -129 q 70 -159 70 -145 q 98 -221 70 -206 q 137 -231 111 -227 q 166 -234 152 -234 q 303 -185 234 -234 "},"қ":{"x_min":70.71875,"x_max":851.765625,"ha":879,"o":"m 89 639 l 103 721 l 412 721 l 358 415 l 436 487 q 588 647 438 491 q 739 740 678 740 q 851 721 781 740 l 827 581 l 748 581 q 688 641 748 641 q 629 597 665 641 q 497 452 593 554 l 428 379 q 646 272 610 348 q 667 125 656 251 q 717 56 673 56 q 782 161 748 56 l 841 144 q 821 58 834 89 q 809 -12 809 27 q 817 -68 809 -36 q 826 -140 826 -100 q 748 -257 826 -220 q 600 -301 670 -295 l 600 -246 q 672 -212 635 -246 q 709 -113 709 -179 q 731 -55 709 -81 q 754 -19 754 -30 q 745 -6 754 -8 l 745 -6 q 655 -20 717 -20 q 491 24 567 -20 q 441 220 441 53 q 410 283 441 270 l 356 304 l 335 281 l 286 0 l 70 0 l 181 639 l 89 639 "},"":{"x_min":26,"x_max":920.34375,"ha":942,"o":"m 564 362 q 591 527 591 460 q 579 636 591 594 q 543 695 568 677 q 483 713 518 713 q 420 701 451 713 q 358 655 388 689 q 301 561 328 622 q 252 404 275 501 q 236 271 236 330 q 247 172 236 212 q 284 109 258 131 q 351 88 310 88 q 421 107 388 88 q 481 161 454 126 q 529 248 508 197 q 564 362 551 299 m 778 339 q 716 197 760 262 q 611 83 673 131 q 476 7 550 34 q 325 -20 401 -20 q 219 -2 266 -20 q 136 45 172 15 q 75 117 100 75 q 38 205 51 158 q 26 303 26 252 q 36 404 26 354 q 80 531 51 474 q 145 635 108 589 q 226 716 182 681 q 317 773 270 750 q 412 808 364 796 q 505 820 460 820 q 601 799 559 820 q 670 743 643 778 l 722 976 q 726 1042 731 1016 q 704 1083 722 1068 q 654 1104 685 1098 q 577 1110 622 1110 l 601 1217 q 749 1199 684 1217 q 855 1146 814 1181 q 912 1060 896 1111 q 913 943 928 1008 l 778 339 "},"⥍":{"x_min":268.15625,"x_max":777.84375,"ha":1046,"o":"m 456 735 l 268 646 l 268 682 l 583 1037 l 590 1037 l 590 269 l 777 358 l 777 322 l 462 -32 l 456 -32 l 456 735 "},"ѕ":{"x_min":0.046875,"x_max":679.109375,"ha":704,"o":"m 34 222 l 103 222 q 103 202 103 211 q 139 96 103 135 q 247 56 175 56 q 407 154 390 56 q 410 186 410 167 q 394 225 410 205 q 317 263 378 245 l 232 288 q 106 360 136 316 q 76 458 76 404 q 80 508 76 481 q 184 683 101 625 q 400 740 267 740 q 679 697 533 740 l 646 515 l 576 515 q 579 539 579 527 q 441 664 579 664 q 287 572 303 664 q 285 545 285 561 q 360 479 285 501 l 444 453 q 599 372 565 418 q 633 269 633 327 q 628 218 633 245 q 518 37 607 95 q 264 -20 430 -20 q 0 20 144 -20 l 34 222 "},"Ḏ":{"x_min":-29.15625,"x_max":1044.34375,"ha":1084,"o":"m 336 82 l 421 82 q 648 183 564 82 q 771 507 732 285 q 761 828 809 727 q 569 930 713 930 l 484 930 l 336 82 m -29 0 l -14 82 l 101 82 l 250 930 l 133 930 l 147 1012 l 615 1012 q 967 881 860 1012 q 1032 507 1074 751 q 836 130 989 260 q 438 0 682 0 l -29 0 m 229 -96 l 613 -96 l 592 -224 l 207 -224 l 229 -96 "},"ŭ":{"x_min":79.359375,"x_max":838.890625,"ha":909,"o":"m 331 1077 l 408 1077 q 432 1001 402 1028 q 522 975 462 975 q 621 1001 583 975 q 672 1077 660 1028 l 749 1077 q 666 921 732 978 q 503 866 602 866 q 359 921 404 866 q 331 1077 315 976 m 838 721 l 727 82 l 819 82 l 804 0 l 495 0 l 513 101 q 408 8 463 37 q 277 -20 354 -20 q 124 51 168 -20 q 97 170 97 97 q 105 262 97 212 l 171 639 l 79 639 l 93 721 l 402 721 l 328 299 q 314 169 314 215 q 318 128 314 142 q 386 93 332 93 q 491 146 451 93 q 551 316 531 200 l 621 721 l 838 721 "},"◴":{"x_min":68,"x_max":1022,"ha":1090,"o":"m 131 94 q 68 359 68 217 q 131 623 68 500 q 306 818 195 747 q 545 889 417 889 q 783 818 672 889 q 957 623 893 747 q 1022 359 1022 500 q 957 94 1022 217 q 783 -99 893 -28 q 545 -171 672 -171 q 306 -99 417 -171 q 131 94 195 -28 m 509 813 q 338 750 423 803 q 147 399 147 629 l 509 399 l 509 813 m 147 322 q 335 -29 147 91 q 540 -94 438 -94 q 745 -29 642 -94 q 950 360 950 101 q 747 750 950 619 q 579 813 663 803 l 579 322 l 147 322 "},"ɭ":{"x_min":50.796875,"x_max":490.3125,"ha":475,"o":"m 69 0 l 69 0 l 240 974 l 147 974 l 162 1055 l 469 1055 l 320 192 l 271 -85 q 268 -200 257 -168 q 325 -232 280 -232 q 388 -208 366 -232 q 421 -130 410 -184 l 490 -130 l 463 -282 q 373 -301 416 -295 q 294 -308 330 -308 q 96 -252 157 -308 q 55 -85 35 -195 l 69 0 "},"⁍":{"x_min":94,"x_max":531,"ha":625,"o":"m 226 263 l 94 263 l 94 751 l 226 751 l 226 263 m 311 752 q 395 734 355 752 q 467 681 435 716 q 514 603 498 647 q 531 509 531 559 q 514 414 531 458 q 467 335 497 369 q 396 282 436 300 q 312 264 356 264 l 311 264 l 311 752 "},"ἣ":{"x_min":95.625,"x_max":836.828125,"ha":909,"o":"m 95 0 l 206 639 l 115 639 l 129 721 l 437 721 l 419 619 q 524 712 469 683 q 656 741 579 741 q 809 668 765 741 q 828 458 852 598 l 697 -289 l 481 -289 l 613 465 q 614 592 629 556 q 547 628 599 628 q 442 574 482 628 q 382 405 402 521 l 311 0 l 95 0 m 676 1111 l 788 856 l 688 856 l 505 1111 l 676 1111 m 354 973 q 398 860 364 892 l 332 828 q 267 954 286 909 q 267 1041 257 981 q 309 1124 274 1079 q 387 1162 345 1162 q 446 1133 427 1162 q 460 1063 466 1100 q 421 993 453 1021 q 354 973 391 967 "},"⊓":{"x_min":132,"x_max":914,"ha":1046,"o":"m 132 0 l 132 871 l 914 871 l 914 0 l 774 0 l 774 715 l 272 715 l 272 0 l 132 0 "},"𝝋":{"x_min":76.78125,"x_max":1103.890625,"ha":1131,"o":"m 646 72 q 678 82 666 76 q 786 161 743 112 q 864 391 834 216 q 873 588 888 525 q 815 664 855 664 q 720 498 750 664 l 646 72 m 633 2 l 583 -288 l 366 -288 l 416 3 q 256 22 288 3 q 151 91 186 55 q 87 215 117 128 q 85 380 67 274 q 185 588 106 499 q 379 721 264 676 l 457 721 l 452 691 q 383 588 430 674 q 323 391 345 519 q 321 161 297 237 q 397 82 344 91 q 431 76 423 77 l 504 498 q 701 721 535 672 q 924 721 834 759 q 1071 588 1037 668 q 1098 380 1116 482 q 1039 215 1080 274 q 931 90 978 127 q 802 19 890 57 q 633 2 762 2 "},"Ɲ":{"x_min":-216.34375,"x_max":1207.140625,"ha":1142,"o":"m -216 -242 l -188 -83 l -109 -83 q -68 -200 -126 -180 q -33 -207 -53 -207 q 57 -156 25 -207 q 114 33 90 -105 l 271 931 l 155 931 l 169 1013 l 454 1013 l 878 296 l 990 931 l 874 931 l 888 1013 l 1207 1013 l 1192 931 l 1076 931 l 913 0 l 753 0 l 322 732 l 200 28 q 86 -236 166 -165 q -58 -289 27 -289 q -117 -277 -68 -289 q -216 -242 -166 -265 "},"⇱":{"x_min":96,"x_max":958.390625,"ha":1047,"o":"m 96 0 l 96 963 l 958 963 l 958 882 l 169 882 l 169 0 l 96 0 m 926 146 l 831 40 l 320 607 l 244 398 l 221 423 l 221 820 l 224 825 l 582 825 l 604 799 l 416 713 l 926 146 "},"⁸":{"x_min":11.34375,"x_max":520.328125,"ha":547,"o":"m 370 760 q 465 711 437 749 q 480 611 493 673 q 397 494 465 535 q 215 453 328 453 q 51 494 103 453 q 14 611 0 534 q 70 711 27 673 q 184 760 113 749 q 103 805 126 773 q 88 885 79 837 q 165 993 103 956 q 332 1031 227 1031 q 484 993 436 1031 q 516 886 531 956 q 470 805 507 837 q 370 760 434 773 m 367 883 q 369 965 379 943 q 323 988 358 988 q 268 965 287 988 q 238 883 249 943 q 236 803 226 825 q 282 782 246 782 q 337 803 318 782 q 367 883 356 825 m 328 618 q 330 712 343 686 q 273 738 317 738 q 206 712 229 738 q 169 618 183 686 q 168 522 155 549 q 225 496 180 496 q 291 522 268 496 q 328 618 315 549 "},"k":{"x_min":42.71875,"x_max":809.734375,"ha":866,"o":"m 258 0 l 42 0 l 212 974 l 120 974 l 134 1055 l 443 1055 l 324 377 l 632 639 l 554 639 l 568 721 l 744 721 l 730 639 l 534 472 l 739 82 l 809 82 l 794 0 l 556 0 l 378 339 l 307 279 l 258 0 "},"ȇ":{"x_min":41,"x_max":742,"ha":795,"o":"m 700 867 l 624 867 q 599 942 628 916 q 509 969 569 969 q 410 942 448 969 q 358 867 370 916 l 282 867 q 364 1022 299 965 q 528 1078 429 1078 q 672 1023 627 1078 q 700 867 716 968 m 525 564 q 448 664 525 664 q 356 603 391 664 q 291 352 322 542 q 304 352 291 352 q 520 516 491 352 q 525 564 525 542 m 277 281 q 273 206 273 256 q 398 56 273 56 q 520 98 469 56 q 596 218 571 139 l 697 218 q 561 37 649 95 q 332 -20 473 -20 q 91 78 164 -20 q 41 256 41 147 q 51 358 41 303 q 192 640 82 539 q 463 740 302 740 q 660 690 579 740 q 742 548 742 639 q 737 510 742 529 q 277 281 699 281 "},"⠽":{"x_min":183,"x_max":793,"ha":976,"o":"m 218 853 q 183 949 183 893 q 219 1045 183 1005 q 305 1085 255 1085 q 390 1045 354 1085 q 427 949 427 1005 q 391 853 427 893 q 304 814 355 814 q 218 853 254 814 m 218 129 q 183 225 183 169 q 219 321 183 281 q 305 361 255 361 q 390 321 354 361 q 427 225 427 281 q 391 129 427 169 q 304 90 355 90 q 218 129 254 90 m 584 853 q 549 949 549 893 q 585 1045 549 1005 q 671 1085 621 1085 q 756 1045 720 1085 q 793 949 793 1005 q 757 853 793 893 q 671 814 721 814 q 584 853 620 814 m 584 491 q 549 587 549 531 q 585 683 549 643 q 671 723 621 723 q 756 683 720 723 q 793 587 793 643 q 757 491 793 531 q 671 452 721 452 q 584 491 620 452 m 584 129 q 549 225 549 169 q 585 321 549 281 q 671 361 621 361 q 756 321 720 361 q 793 225 793 281 q 757 129 793 169 q 671 90 721 90 q 584 129 620 90 "},"ί":{"x_min":92.90625,"x_max":596.109375,"ha":604,"o":"m 497 22 q 187 30 292 -53 q 114 236 91 107 l 184 639 l 92 639 l 107 721 l 415 721 l 330 234 q 378 82 303 82 q 515 127 452 82 l 497 22 m 425 1111 l 596 1111 l 323 856 l 223 856 l 425 1111 "},"Ù":{"x_min":118.671875,"x_max":1152.890625,"ha":1090,"o":"m 234 930 l 118 930 l 132 1012 l 601 1012 l 587 930 l 470 930 l 382 423 q 388 158 349 234 q 557 83 428 83 q 749 159 683 83 q 848 423 815 235 l 937 930 l 821 930 l 835 1012 l 1152 1012 l 1138 930 l 1022 930 l 931 409 q 782 78 890 177 q 461 -20 674 -20 q 176 79 250 -20 q 143 410 103 179 l 234 930 m 684 1288 l 764 1109 l 663 1109 l 514 1288 l 684 1288 "},"ᵗ":{"x_min":71.578125,"x_max":389.359375,"ha":463,"o":"m 131 815 l 71 815 l 81 860 l 139 860 l 164 982 l 300 982 l 276 860 l 389 860 l 380 815 l 266 815 l 217 572 q 211 522 211 539 q 213 507 211 512 q 241 495 219 495 q 281 511 265 495 q 303 561 296 527 l 361 561 q 311 477 345 501 q 202 453 276 453 q 93 478 118 453 q 77 529 77 495 q 82 572 77 548 l 131 815 "},"ὓ":{"x_min":91.546875,"x_max":827.65625,"ha":867,"o":"m 380 -1 q 113 236 71 -1 l 183 639 l 91 639 l 105 721 l 414 721 l 328 235 q 395 82 302 82 q 509 161 455 82 q 587 391 560 237 q 596 588 610 521 q 563 691 579 674 l 568 721 l 647 721 q 794 588 746 676 q 821 380 842 500 q 762 215 802 275 q 654 92 701 128 q 525 23 596 47 q 380 -1 455 -1 m 659 1111 l 771 856 l 671 856 l 488 1111 l 659 1111 m 337 973 q 381 860 347 891 l 316 828 q 250 954 269 909 q 250 1041 240 981 q 292 1124 257 1079 q 370 1163 328 1163 q 429 1133 410 1163 q 443 1063 449 1100 q 404 993 436 1021 q 337 973 374 967 "},"Ҷ":{"x_min":112.21875,"x_max":1165.0625,"ha":1141,"o":"m 112 931 l 126 1013 l 581 1013 l 567 931 l 464 931 l 417 662 q 413 602 413 636 q 438 531 413 568 q 525 494 464 494 l 722 494 l 799 931 l 682 931 l 697 1013 l 1165 1013 l 1150 931 l 1034 931 l 886 82 l 1028 82 l 975 -218 l 906 -218 l 906 -77 q 856 0 906 0 l 520 0 l 534 82 l 651 82 l 708 412 l 445 412 q 241 474 305 412 q 178 617 178 536 q 182 662 178 638 l 228 931 l 112 931 "},"Ⴣ":{"x_min":124.125,"x_max":1040.53125,"ha":1015,"o":"m 460 82 l 534 82 l 611 481 l 420 481 q 301 486 351 481 q 219 508 252 492 q 171 551 187 523 q 156 623 156 579 q 158 652 156 637 q 163 686 160 668 l 199 883 l 124 883 l 140 970 l 510 970 l 493 883 l 420 883 l 386 708 q 381 674 382 690 q 380 645 380 659 q 393 584 380 606 q 436 562 406 562 l 627 562 l 729 1094 l 653 1094 l 668 1176 l 1040 1176 l 1024 1094 l 947 1094 l 754 82 l 830 82 l 815 -1 l 443 -1 l 460 82 "},"⤤":{"x_min":235,"x_max":863,"ha":1047,"o":"m 461 103 l 556 -2 q 423 -63 501 -63 q 289 -1 344 -63 q 235 146 235 59 q 290 294 235 233 l 667 714 l 478 800 l 501 826 l 858 826 l 863 821 l 863 424 l 839 398 l 762 608 l 384 189 q 369 146 369 171 q 384 103 369 121 q 422 86 400 86 q 461 103 445 86 "},"ჳ":{"x_min":-47,"x_max":807.890625,"ha":782,"o":"m 382 377 q 446 396 412 377 q 512 446 480 415 q 573 515 545 476 q 620 592 602 553 q 557 560 591 575 q 488 535 523 546 q 422 519 453 525 q 370 513 391 513 q 279 518 322 513 q 204 539 236 524 q 153 580 172 554 q 134 646 134 606 q 142 708 134 679 q 166 763 150 737 q 201 810 181 788 q 243 853 220 833 l 409 792 q 350 726 370 758 q 330 662 330 694 q 332 643 330 652 q 342 627 335 634 q 361 615 349 619 q 393 611 374 611 q 468 621 433 611 q 538 651 504 631 q 605 701 572 671 q 670 771 638 731 l 807 771 q 744 587 780 661 q 670 464 709 513 q 588 386 630 416 q 505 336 546 356 l 504 336 q 604 250 571 301 q 637 134 637 200 q 626 61 637 98 l 609 -5 q 553 -132 592 -76 q 460 -229 514 -189 q 343 -291 407 -269 q 210 -313 279 -313 q 103 -293 151 -313 q 23 -241 56 -274 q -28 -164 -10 -208 q -47 -72 -47 -121 q -23 41 -47 -9 q 42 132 0 93 q 141 197 84 171 q 266 237 199 224 l 272 167 q 242 139 258 159 q 212 93 226 119 q 185 40 197 68 q 167 -10 173 13 q 153 -104 153 -64 q 171 -170 153 -146 q 234 -195 189 -195 q 281 -188 257 -195 q 325 -164 304 -181 q 363 -120 346 -148 q 391 -49 380 -91 l 428 92 q 438 140 435 118 q 441 182 441 163 q 423 248 441 224 q 364 273 405 273 l 315 273 l 340 377 l 382 377 "},"∝":{"x_min":125,"x_max":715,"ha":840,"o":"m 467 447 q 402 523 439 498 q 317 549 365 549 q 224 510 260 549 q 189 412 189 472 q 221 316 189 354 q 304 278 254 278 q 388 317 350 278 q 467 447 426 356 m 715 136 q 626 174 672 136 q 523 309 580 212 q 434 177 481 219 q 327 135 386 135 q 184 214 243 135 q 125 413 125 294 q 177 615 125 538 q 314 692 229 692 q 417 652 370 692 q 517 517 464 612 q 607 649 559 606 q 715 693 656 693 l 715 549 q 655 510 693 549 q 575 380 618 471 q 640 303 602 329 q 715 278 677 278 l 715 136 "},"Ẹ":{"x_min":-29.15625,"x_max":967.0625,"ha":952,"o":"m -29 0 l -14 82 l 101 82 l 250 931 l 133 931 l 147 1013 l 967 1013 l 925 774 l 840 774 l 866 920 l 482 920 l 426 595 l 665 595 l 687 723 l 771 723 l 710 374 l 625 374 l 649 503 l 410 503 l 338 92 l 733 92 l 758 238 l 842 238 l 800 0 l -29 0 m 280 -196 q 318 -126 287 -155 q 386 -97 349 -97 q 445 -126 423 -97 q 459 -196 466 -155 q 421 -266 453 -236 q 352 -296 389 -296 q 294 -266 316 -296 q 280 -196 273 -236 "},"⬇":{"x_min":269,"x_max":779,"ha":1048,"o":"m 363 1005 l 686 1005 l 686 296 l 779 296 l 779 254 l 527 -28 l 521 -28 l 269 254 l 269 296 l 363 296 l 363 1005 "},"▎":{"x_min":-12,"x_max":234,"ha":961,"o":"m -12 -347 l -12 1069 l 234 1069 l 234 -347 l -12 -347 "},"≠":{"x_min":132,"x_max":915,"ha":1047,"o":"m 132 667 l 617 667 l 770 876 l 858 791 l 767 667 l 915 667 l 915 513 l 655 513 l 542 358 l 915 358 l 915 204 l 429 204 l 277 -6 l 188 79 l 279 204 l 132 204 l 132 358 l 392 358 l 504 513 l 132 513 l 132 667 "},"ƀ":{"x_min":30.90625,"x_max":807,"ha":873,"o":"m 201 974 l 108 974 l 122 1055 l 431 1055 l 404 904 l 623 904 l 607 811 l 388 811 l 356 629 q 444 713 393 685 q 564 741 496 741 q 765 639 703 741 q 807 470 807 571 q 796 360 807 419 q 667 81 765 183 q 431 -20 570 -20 q 321 7 363 -20 q 262 91 280 35 l 246 0 l 30 0 l 172 811 l 76 811 l 92 904 l 188 904 l 201 974 m 303 324 q 292 209 292 257 q 300 142 292 168 q 384 86 319 86 q 488 145 450 86 q 553 360 525 205 q 570 516 570 457 q 563 575 570 552 q 480 635 546 635 q 376 578 415 635 q 315 396 338 522 l 303 324 "},"ɼ":{"x_min":45.4375,"x_max":759.546875,"ha":659,"o":"m 759 729 l 721 514 l 652 514 q 639 599 659 571 q 573 628 619 628 q 449 558 503 628 q 375 366 396 488 l 261 -287 l 45 -287 l 206 639 l 107 639 l 122 721 l 437 721 l 415 592 q 518 704 460 668 q 652 741 576 741 q 698 737 671 741 q 759 729 724 734 "},"ᵸ":{"x_min":-18.3125,"x_max":765.65625,"ha":744,"o":"m -18 464 l -8 509 l 64 509 l 157 976 l 84 976 l 93 1021 l 388 1021 l 379 976 l 305 976 l 267 788 l 497 788 l 534 976 l 461 976 l 469 1021 l 765 1021 l 756 976 l 682 976 l 589 509 l 662 509 l 653 464 l 358 464 l 367 509 l 440 509 l 486 737 l 258 737 l 212 509 l 286 509 l 277 464 l -18 464 "},"ϴ":{"x_min":40.125,"x_max":1047.484375,"ha":1088,"o":"m 773 502 l 314 502 q 313 171 275 280 q 466 62 350 62 q 658 171 582 62 q 773 502 734 280 m 787 594 q 775 839 804 752 q 621 949 739 949 q 429 839 505 949 q 332 594 370 752 l 787 594 m 451 -20 q 115 119 221 -20 q 52 505 9 259 q 250 890 95 750 q 635 1031 406 1031 q 972 891 866 1031 q 1034 505 1078 751 q 836 119 992 259 q 451 -20 681 -20 "},"ʔ":{"x_min":65.78125,"x_max":650.15625,"ha":670,"o":"m 172 82 l 256 564 l 327 564 q 394 584 371 564 q 450 756 427 612 q 465 948 475 915 q 394 980 455 980 q 317 956 339 980 q 284 878 296 933 l 215 878 l 240 1011 q 324 1045 282 1034 q 410 1056 366 1056 q 618 993 569 1056 q 640 778 667 930 q 542 560 612 617 q 461 502 479 507 l 387 82 l 480 82 l 466 0 l 65 0 l 80 82 l 172 82 "},"ᾞ":{"x_min":132.921875,"x_max":1527.921875,"ha":1495,"o":"m 284 0 l 299 82 l 415 82 l 564 931 l 447 931 l 461 1013 l 930 1013 l 916 931 l 798 931 l 739 590 l 1102 590 l 1161 931 l 1045 931 l 1059 1013 l 1527 1013 l 1513 931 l 1396 931 l 1247 82 l 1365 82 l 1350 0 l 882 0 l 896 82 l 1013 82 l 1085 497 l 722 497 l 650 82 l 767 82 l 753 0 l 284 0 m 132 1190 l 134 1200 q 193 1350 151 1299 q 297 1402 234 1402 q 339 1394 319 1402 q 383 1364 359 1385 l 421 1333 l 423 1331 q 468 1312 446 1312 q 512 1335 493 1312 q 539 1401 531 1359 l 606 1401 l 604 1390 q 545 1239 587 1291 q 442 1189 504 1189 q 399 1197 419 1189 q 354 1226 379 1205 l 316 1257 l 316 1258 q 269 1279 292 1279 q 225 1255 244 1279 q 200 1190 206 1231 l 132 1190 m 284 973 q 225 993 246 967 q 210 1063 203 1021 q 249 1133 217 1100 q 318 1162 278 1162 q 382 1124 360 1162 q 396 1041 402 1079 q 364 954 385 981 q 256 829 331 909 l 201 861 q 284 973 246 892 m 895 -277 l 849 -288 q 731 -171 705 -322 l 747 -83 l 867 -83 l 850 -180 q 872 -234 839 -243 l 904 -225 l 895 -277 "},"∸":{"x_min":132,"x_max":915,"ha":1047,"o":"m 433 685 q 459 757 433 727 q 523 787 486 787 q 588 757 561 787 q 615 685 615 727 q 588 613 615 643 q 523 584 561 584 q 459 613 486 584 q 433 685 433 643 m 132 513 l 915 513 l 915 358 l 132 358 l 132 513 "},"⇶":{"x_min":71,"x_max":1001,"ha":1047,"o":"m 71 816 l 71 965 l 794 965 l 757 1092 l 789 1092 l 1001 893 l 1001 887 l 789 688 l 757 688 l 794 816 l 71 816 m 71 -66 l 71 83 l 794 83 l 757 210 l 789 210 l 1001 11 l 1001 5 l 789 -193 l 757 -193 l 794 -66 l 71 -66 m 71 375 l 71 524 l 794 524 l 757 651 l 789 651 l 1001 452 l 1001 446 l 789 247 l 757 247 l 794 375 l 71 375 "},"∕":{"x_min":-99.015625,"x_max":556.78125,"ha":456,"o":"m 421 1013 l 556 1013 l 35 -129 l -99 -129 l 421 1013 "},"Ᾰ":{"x_min":-97.65625,"x_max":910.109375,"ha":970,"o":"m -97 0 l -83 82 l -8 82 l 497 1012 l 642 1012 l 823 82 l 910 82 l 895 0 l 469 0 l 483 82 l 573 82 l 533 289 l 191 289 l 79 82 l 187 82 l 173 0 l -97 0 m 236 371 l 518 371 l 445 758 l 236 371 m 379 1300 l 455 1300 q 480 1224 450 1250 q 570 1198 509 1198 q 669 1224 630 1198 q 720 1300 708 1250 l 796 1300 q 714 1144 779 1201 q 551 1089 649 1089 q 407 1144 451 1089 q 379 1300 362 1199 "},"∺":{"x_min":132,"x_max":915,"ha":1047,"o":"m 132 685 q 158 757 132 727 q 222 787 185 787 q 287 757 260 787 q 314 685 314 727 q 287 613 314 643 q 222 584 260 584 q 158 613 185 584 q 132 685 132 643 m 132 184 q 158 256 132 226 q 222 286 185 286 q 287 256 260 286 q 314 184 314 226 q 287 112 314 142 q 222 83 260 83 q 158 112 185 83 q 132 184 132 142 m 732 685 q 758 757 732 727 q 822 787 785 787 q 887 757 860 787 q 914 685 914 727 q 887 613 914 643 q 822 584 860 584 q 758 613 785 584 q 732 685 732 643 m 732 184 q 758 256 732 226 q 822 286 785 286 q 887 256 860 286 q 914 184 914 226 q 887 112 914 142 q 822 83 860 83 q 758 112 785 83 q 732 184 732 142 m 132 513 l 915 513 l 915 358 l 132 358 l 132 513 "},"⇿":{"x_min":45.75,"x_max":1000.578125,"ha":1047,"o":"m 785 563 l 785 335 l 888 449 l 785 563 m 261 335 l 261 563 l 157 449 l 261 335 m 338 524 l 709 524 l 709 733 l 746 733 l 1000 452 l 1000 446 l 746 166 l 709 166 l 709 375 l 338 375 l 338 166 l 300 166 l 45 446 l 45 452 l 300 733 l 338 733 l 338 524 "},"Ϋ":{"x_min":63.0625,"x_max":992.15625,"ha":892,"o":"m 372 1134 q 358 1204 350 1163 q 397 1274 365 1244 q 465 1304 428 1304 q 522 1274 501 1304 q 536 1204 543 1244 q 498 1134 529 1163 q 431 1105 467 1105 q 372 1134 394 1105 m 644 1134 q 631 1204 623 1163 q 670 1274 638 1244 q 737 1304 701 1304 q 796 1274 774 1304 q 811 1204 818 1244 q 771 1134 803 1163 q 703 1105 739 1105 q 644 1134 666 1105 m 126 0 l 140 82 l 263 82 l 322 419 l 141 931 l 63 931 l 77 1013 l 514 1013 l 500 931 l 398 931 l 536 544 l 807 931 l 716 931 l 731 1013 l 992 1013 l 977 931 l 900 931 l 564 454 l 499 82 l 621 82 l 607 0 l 126 0 "},"ː":{"x_min":83.421875,"x_max":377.734375,"ha":461,"o":"m 272 0 l 83 0 l 187 182 l 232 182 l 272 0 m 189 602 l 377 602 l 273 420 l 229 420 l 189 602 "},"ö":{"x_min":43,"x_max":793,"ha":834,"o":"m 364 56 q 472 121 433 56 q 541 360 511 186 q 562 541 562 474 q 555 599 562 576 q 471 664 540 664 q 362 598 401 664 q 292 360 323 533 q 273 182 273 249 q 279 122 273 145 q 364 56 295 56 m 637 81 q 351 -20 522 -20 q 99 81 179 -20 q 43 267 43 154 q 51 360 43 310 q 197 639 83 539 q 484 740 312 740 q 736 640 656 740 q 793 454 793 567 q 784 360 793 410 q 637 81 752 182 m 310 995 q 348 1065 317 1036 q 417 1095 380 1095 q 475 1065 453 1095 q 488 995 496 1036 q 449 925 481 955 q 383 896 419 896 q 324 925 346 896 q 310 995 303 955 m 582 995 q 621 1065 590 1036 q 689 1095 652 1095 q 747 1065 725 1095 q 762 995 769 1036 q 723 925 755 955 q 655 896 691 896 q 597 925 618 896 q 582 995 575 955 "},"↲":{"x_min":259.75,"x_max":762,"ha":1047,"o":"m 466 181 l 546 -27 l 514 -27 l 259 252 l 259 258 l 514 538 l 546 538 l 466 330 l 628 330 l 628 1004 l 762 1004 l 762 181 l 466 181 "},"▥":{"x_min":113,"x_max":1067,"ha":1180,"o":"m 113 -171 l 113 893 l 1067 893 l 1067 -171 l 113 -171 m 892 -92 l 999 -92 l 999 814 l 892 814 l 892 -92 m 714 -92 l 822 -92 l 822 814 l 714 814 l 714 -92 m 537 -92 l 644 -92 l 644 814 l 537 814 l 537 -92 m 358 -92 l 467 -92 l 467 814 l 358 814 l 358 -92 m 182 -92 l 289 -92 l 289 814 l 182 814 l 182 -92 "},"ẉ":{"x_min":37.984375,"x_max":1112.203125,"ha":1076,"o":"m 356 -196 q 395 -126 364 -155 q 463 -97 426 -97 q 522 -126 499 -97 q 536 -196 543 -155 q 497 -266 529 -236 q 429 -296 465 -296 q 371 -266 392 -296 q 356 -196 349 -236 m 803 203 q 895 327 809 209 q 1016 639 981 451 l 931 639 l 946 722 l 1112 722 q 1000 329 1077 462 q 765 0 882 122 l 617 0 l 558 452 l 341 0 l 193 0 l 108 639 l 37 639 l 52 721 l 318 721 l 380 249 l 608 721 l 737 721 l 803 203 "},"Ȧ":{"x_min":-97.65625,"x_max":910.109375,"ha":970,"o":"m 520 1134 q 506 1204 499 1163 q 545 1274 514 1244 q 613 1304 577 1304 q 672 1274 650 1304 q 685 1204 693 1244 q 646 1134 678 1163 q 579 1105 615 1105 q 520 1134 542 1105 m -97 0 l -83 82 l -8 82 l 497 1012 l 642 1012 l 823 82 l 910 82 l 895 0 l 469 0 l 483 82 l 573 82 l 533 289 l 191 289 l 79 82 l 187 82 l 173 0 l -97 0 m 236 371 l 518 371 l 445 758 l 236 371 "},"Ḽ":{"x_min":-29.15625,"x_max":807.703125,"ha":879,"o":"m -29 0 l -14 82 l 101 82 l 250 931 l 133 931 l 147 1013 l 616 1013 l 602 931 l 484 931 l 338 92 l 697 92 l 725 252 l 807 252 l 763 0 l -29 0 m 264 -79 l 412 -79 l 523 -334 l 423 -334 l 320 -181 l 163 -333 l 63 -333 l 264 -79 "},"8":{"x_min":17.484375,"x_max":823.6875,"ha":869,"o":"m 586 538 q 736 449 692 518 q 761 268 780 380 q 628 54 736 129 q 342 -20 520 -20 q 81 54 163 -20 q 23 268 -1 129 q 111 449 42 380 q 292 538 180 518 q 163 620 200 562 q 141 765 125 677 q 261 962 163 894 q 525 1030 360 1030 q 765 962 690 1030 q 818 765 840 894 q 744 620 802 677 q 586 538 686 562 m 581 762 q 584 910 600 870 q 512 951 568 951 q 425 910 455 951 q 376 762 395 870 q 374 616 358 656 q 446 577 389 577 q 533 616 503 577 q 581 762 562 656 m 520 280 q 522 451 542 404 q 432 498 502 498 q 326 451 362 498 q 268 280 290 404 q 266 106 246 154 q 356 59 286 59 q 462 106 425 59 q 520 280 499 154 "},"⁆":{"x_min":-18.984375,"x_max":543.890625,"ha":591,"o":"m 197 1055 l 543 1055 l 327 -183 l -18 -183 l -4 -102 l 125 -102 l 213 404 l 83 404 l 94 468 l 224 468 l 313 974 l 183 974 l 197 1055 "},"ↂ":{"x_min":46,"x_max":1548,"ha":1585,"o":"m 863 211 q 918 263 895 228 q 998 498 968 333 q 1013 642 1013 585 q 962 780 1013 747 l 863 211 m 848 125 l 840 82 l 925 82 q 1152 183 1068 82 q 1275 506 1236 285 q 1292 689 1292 605 q 1074 931 1292 931 l 989 931 l 978 868 q 1132 776 1077 847 q 1187 593 1187 705 q 1177 495 1187 548 q 1033 215 1145 315 q 848 125 954 146 m 628 211 l 727 780 q 673 732 696 763 q 595 498 623 664 q 579 352 579 409 q 628 211 579 244 m 743 868 l 754 931 l 669 931 q 441 829 526 931 q 319 506 357 728 q 302 324 302 408 q 521 82 302 82 l 606 82 l 613 125 q 459 216 514 146 q 405 398 405 286 q 413 495 405 443 q 556 776 445 675 q 743 868 636 847 m 474 0 q 123 130 230 0 q 46 375 46 223 q 58 506 46 436 q 253 882 100 752 q 651 1013 406 1013 l 1120 1013 q 1472 882 1364 1013 q 1548 637 1548 789 q 1535 506 1548 577 q 1339 130 1493 261 q 942 0 1186 0 l 474 0 "},"𝒗":{"x_min":25.96875,"x_max":736,"ha":726,"o":"m 388 0 l 215 0 l 97 639 l 25 639 l 40 721 l 304 721 l 403 183 q 517 328 419 183 q 647 639 607 466 l 575 639 l 590 722 l 736 722 q 613 326 736 552 q 388 0 497 111 "},"ħ":{"x_min":42.734375,"x_max":802.3125,"ha":909,"o":"m 42 0 l 184 811 l 88 811 l 104 904 l 200 904 l 212 974 l 116 974 l 130 1055 l 443 1055 l 417 904 l 636 904 l 619 811 l 400 811 l 366 619 q 472 712 417 683 q 603 741 527 741 q 756 668 712 741 q 784 550 784 623 q 775 458 784 508 l 709 82 l 802 82 l 788 0 l 478 0 l 560 465 q 569 545 569 512 q 561 592 569 575 q 495 628 546 628 q 389 574 429 628 q 329 405 349 521 l 258 0 l 42 0 "},"◉":{"x_min":68,"x_max":1022,"ha":1090,"o":"m 390 63 q 235 361 235 162 q 390 658 235 559 q 545 709 467 709 q 700 658 623 709 q 855 361 855 559 q 700 63 855 162 q 545 13 623 13 q 390 63 467 13 m 341 750 q 139 361 139 620 q 341 -28 139 101 q 544 -94 443 -94 q 747 -28 646 -94 q 950 361 950 101 q 747 750 950 620 q 544 816 646 816 q 341 750 443 816 m 306 -97 q 68 361 68 55 q 306 819 68 666 q 544 896 425 896 q 783 819 664 896 q 1022 361 1022 666 q 783 -97 1022 55 q 544 -174 664 -174 q 306 -97 425 -174 "},"ᶜ":{"x_min":47,"x_max":486.109375,"ha":534,"o":"m 448 588 q 369 486 421 519 q 240 453 317 453 q 82 507 131 453 q 47 608 47 546 q 52 662 47 633 q 143 816 72 761 q 318 872 213 872 q 402 863 360 872 q 486 839 444 856 l 464 730 l 421 730 q 421 746 421 738 q 404 804 421 784 q 342 829 385 829 q 254 791 285 829 q 205 662 222 754 q 195 581 195 614 q 202 533 195 552 q 271 495 218 495 q 341 519 312 495 q 385 588 370 543 l 448 588 "},"ἵ":{"x_min":68.484375,"x_max":622.5625,"ha":604,"o":"m 497 22 q 187 30 292 -53 q 114 236 91 107 l 184 639 l 92 639 l 107 721 l 415 721 l 330 234 q 378 82 303 82 q 515 127 452 82 l 497 22 m 452 1111 l 622 1111 l 349 856 l 249 856 l 452 1111 m 160 973 q 204 860 170 891 l 139 828 q 73 954 92 909 q 73 1041 63 981 q 115 1124 80 1079 q 193 1162 151 1162 q 252 1133 233 1162 q 266 1063 272 1100 q 227 993 259 1021 q 160 973 197 967 "},"⥖":{"x_min":71,"x_max":975.40625,"ha":1047,"o":"m 205 523 l 975 523 l 975 374 l 349 374 l 428 165 l 396 165 l 207 374 l 205 374 l 205 182 l 71 182 l 71 715 l 205 715 l 205 523 "},"𝝒":{"x_min":1.21875,"x_max":819.359375,"ha":818,"o":"m 410 270 l 332 238 q 264 133 306 196 q 11 20 116 -84 q 24 139 -14 47 q 151 293 60 225 l 216 350 q 305 563 296 492 q 295 628 312 617 q 224 619 258 651 q 152 483 178 574 l 83 483 l 119 683 q 266 722 200 714 q 339 708 291 725 q 438 594 438 677 q 426 444 438 514 l 493 477 l 561 582 q 808 695 702 799 q 796 576 835 668 q 668 422 760 490 l 603 365 q 518 152 528 225 q 534 87 511 104 q 596 97 564 65 q 667 233 642 142 l 736 233 l 701 32 q 553 -7 617 0 q 480 7 525 -10 q 387 121 387 44 q 410 270 387 199 "},"˙":{"x_min":316.421875,"x_max":499.4375,"ha":625,"o":"m 318 995 q 356 1065 325 1036 q 424 1095 387 1095 q 483 1065 461 1095 q 497 995 504 1036 q 459 925 491 955 q 390 896 427 896 q 332 925 354 896 q 318 995 311 955 "},"„":{"x_min":18.3125,"x_max":632.046875,"ha":719,"o":"m 301 -89 q 405 20 367 -43 q 461 178 444 84 l 467 216 l 632 216 q 534 -20 602 75 q 350 -180 466 -115 l 301 -89 m 18 -89 q 122 19 84 -43 q 177 178 160 83 l 183 216 l 348 216 q 250 -20 318 75 q 66 -180 183 -115 l 18 -89 "},"ӷ":{"x_min":70,"x_max":691,"ha":703,"o":"m 70 146 q 155 332 70 262 q 403 486 222 387 q 490 597 490 533 q 420 664 490 664 q 137 503 284 664 l 90 562 q 255 704 177 667 q 452 741 334 741 q 630 692 570 741 q 691 575 691 644 q 599 367 691 444 q 326 198 508 289 q 271 125 271 170 q 342 56 271 56 q 599 177 491 56 l 630 218 l 677 159 q 657 129 668 146 q 645 48 645 94 q 653 -38 645 24 q 661 -140 661 -100 q 583 -257 661 -220 q 435 -301 505 -295 l 435 -246 q 507 -212 470 -246 q 544 -113 544 -179 q 566 -44 544 -75 q 589 18 589 -12 q 580 53 589 52 q 317 -20 470 -20 q 139 32 208 -20 q 70 146 70 85 "},"δ":{"x_min":14.1875,"x_max":786.578125,"ha":833,"o":"m 247 693 q 176 854 158 756 q 285 1015 195 969 q 293 1019 289 1017 q 511 1062 379 1062 q 646 1053 572 1062 q 786 1028 718 1045 l 760 884 l 693 884 q 686 922 693 908 q 658 954 682 932 q 558 986 623 986 q 440 953 485 986 l 416 935 q 383 851 389 911 q 455 740 372 740 q 707 640 627 740 q 755 360 786 538 q 609 81 724 182 q 322 -20 494 -20 q 71 81 151 -20 q 22 360 -8 182 q 169 640 54 539 q 247 693 237 699 m 336 56 q 443 121 404 56 q 513 360 482 186 q 527 599 543 534 q 442 664 511 664 q 334 598 373 664 q 264 360 294 533 q 250 122 233 188 q 336 56 267 56 "},"ᶪ":{"x_min":21.703125,"x_max":389.265625,"ha":401,"o":"m 282 509 l 340 509 l 321 416 q 258 325 309 356 q 122 294 208 294 q 73 297 99 294 q 21 308 48 301 l 38 392 l 82 392 q 85 349 75 362 q 119 336 94 336 q 161 353 147 336 q 185 416 175 370 l 195 464 l 136 464 l 244 999 l 185 999 l 194 1044 l 389 1044 l 282 509 "},"˞":{"x_min":-22.375,"x_max":506.59375,"ha":522,"o":"m -6 516 l 208 693 l 315 693 l 309 664 q 322 571 299 600 q 383 542 347 542 q 452 563 443 542 l 506 460 q 451 427 453 428 q 363 416 421 416 q 246 479 292 416 q 214 615 206 533 l -22 423 l -6 516 "},"ǥ":{"x_min":28,"x_max":877.6875,"ha":874,"o":"m 601 593 q 560 634 601 634 q 379 525 449 634 q 310 308 336 457 q 307 134 288 182 q 392 86 325 86 q 494 142 455 86 q 554 322 533 197 l 428 322 l 443 404 l 569 404 l 601 593 m 771 322 l 716 9 q 577 -225 687 -157 q 289 -309 444 -309 q 159 -297 223 -309 q 28 -264 95 -286 l 58 -92 l 127 -92 q 127 -103 127 -98 q 160 -197 127 -165 q 276 -232 197 -232 q 426 -179 375 -232 q 500 9 476 -125 l 514 91 q 302 -20 440 -20 q 103 66 167 -20 q 67 303 40 152 q 253 620 99 487 q 595 740 392 740 q 832 674 759 740 l 785 404 l 877 404 l 863 322 l 771 322 "},"‷":{"x_min":201.421875,"x_max":890.4375,"ha":787,"o":"m 432 760 l 333 760 l 201 1013 l 370 1013 l 432 760 m 664 760 l 565 760 l 433 1013 l 602 1013 l 664 760 m 890 760 l 791 760 l 659 1013 l 828 1013 l 890 760 "},"შ":{"x_min":58,"x_max":870,"ha":809,"o":"m 524 393 q 536 455 533 426 q 540 507 540 483 q 516 601 540 569 q 451 633 492 633 q 391 616 417 633 q 346 568 366 599 q 310 493 326 537 q 282 398 295 450 q 262 304 269 347 q 255 226 255 261 q 272 149 255 177 q 332 121 290 121 q 371 124 353 121 q 405 137 389 127 q 436 166 421 147 q 465 215 451 184 q 494 289 479 245 q 524 393 509 332 m 703 331 q 648 204 686 265 q 556 99 610 144 q 434 26 502 53 q 292 0 367 0 q 187 22 231 0 q 114 81 143 44 q 71 168 85 118 q 58 273 58 217 q 74 397 58 337 q 119 511 90 457 q 188 608 148 564 q 276 685 228 653 q 376 735 323 717 q 483 753 429 753 q 551 735 519 753 q 604 691 582 717 l 686 1012 q 690 1037 690 1026 q 677 1062 690 1058 q 642 1067 664 1067 q 613 1064 625 1067 q 592 1051 602 1061 q 576 1023 583 1041 q 561 972 569 1004 l 527 840 l 404 840 l 438 972 q 447 1026 447 1007 q 443 1048 447 1039 q 432 1060 439 1056 q 416 1065 426 1064 q 393 1067 406 1067 q 349 1053 366 1067 q 325 1010 333 1040 q 316 969 318 986 q 314 940 314 952 q 319 914 314 923 q 335 901 325 906 l 283 814 q 225 848 249 829 q 185 888 200 868 q 164 931 170 909 q 158 972 158 952 q 159 988 158 980 q 162 1003 160 996 q 200 1090 174 1055 q 257 1146 225 1125 q 324 1176 289 1167 q 393 1186 359 1186 q 442 1177 420 1186 q 480 1153 463 1168 q 507 1119 496 1138 q 526 1079 519 1100 q 566 1118 544 1099 q 612 1152 588 1137 q 659 1176 636 1167 q 704 1186 683 1186 q 772 1179 741 1186 q 824 1156 802 1173 q 858 1111 846 1139 q 870 1040 870 1083 q 865 982 870 1014 q 851 910 861 950 l 703 331 "},"⇓":{"x_min":268.625,"x_max":778.6875,"ha":1047,"o":"m 698 252 l 778 290 l 778 254 l 527 -28 l 521 -28 l 268 254 l 268 290 l 350 252 l 350 1005 l 469 1005 l 469 196 l 524 170 l 579 196 l 579 1005 l 698 1005 l 698 252 "},"⤞":{"x_min":71,"x_max":1001,"ha":1047,"o":"m 71 374 l 71 523 l 488 523 l 409 731 l 441 731 l 688 459 l 840 627 l 1001 451 l 1001 445 l 840 269 l 688 437 l 441 165 l 409 165 l 488 374 l 71 374 "},"р":{"x_min":31.046875,"x_max":858,"ha":874,"o":"m 367 395 l 354 324 q 343 209 343 256 q 351 142 343 168 q 435 86 370 86 q 539 145 502 86 q 604 360 577 205 q 621 515 621 456 q 614 574 621 552 q 531 634 597 634 q 428 577 467 634 q 367 395 389 521 m 193 639 l 100 639 l 115 721 l 423 721 l 408 628 q 496 712 445 685 q 616 740 547 740 q 816 638 754 740 q 858 470 858 571 q 847 360 858 419 q 719 81 816 183 q 482 -20 621 -20 q 373 7 414 -20 q 313 91 331 35 l 247 -288 l 31 -288 l 193 639 "},"Ö":{"x_min":40.125,"x_max":1047.484375,"ha":1088,"o":"m 466 62 q 658 171 582 62 q 773 505 734 280 q 775 839 813 730 q 621 949 737 949 q 428 838 505 949 q 314 505 352 728 q 312 172 274 282 q 466 62 350 62 m 451 -20 q 115 119 221 -20 q 52 505 9 259 q 250 890 95 750 q 635 1031 406 1031 q 972 891 866 1031 q 1034 505 1078 751 q 836 119 992 259 q 451 -20 681 -20 m 489 1134 q 474 1204 467 1163 q 514 1274 482 1244 q 581 1304 545 1304 q 639 1274 618 1304 q 653 1204 660 1244 q 615 1134 646 1163 q 547 1105 584 1105 q 489 1134 511 1105 m 761 1134 q 747 1204 740 1163 q 786 1274 754 1244 q 854 1304 817 1304 q 912 1274 891 1304 q 927 1204 935 1244 q 888 1134 920 1163 q 819 1105 856 1105 q 761 1134 783 1105 "},"⊡":{"x_min":132,"x_max":914,"ha":1046,"o":"m 441 344 q 407 435 407 382 q 441 526 407 488 q 523 564 475 564 q 605 526 571 564 q 640 435 640 488 q 605 344 640 382 q 523 307 571 307 q 441 344 475 307 m 272 157 l 774 157 l 774 715 l 272 715 l 272 157 m 914 1 l 132 1 l 132 871 l 914 871 l 914 1 "},"Θ":{"x_min":40.125,"x_max":1047.484375,"ha":1088,"o":"m 631 502 l 455 502 l 432 373 l 349 373 l 410 722 l 494 722 l 471 594 l 647 594 l 670 722 l 753 722 l 692 373 l 608 373 l 631 502 m 466 62 q 658 171 582 62 q 773 505 734 280 q 775 839 813 730 q 621 949 737 949 q 428 838 505 949 q 314 505 352 728 q 312 172 274 282 q 466 62 350 62 m 451 -20 q 115 119 221 -20 q 52 505 9 259 q 250 890 95 750 q 635 1031 406 1031 q 972 891 866 1031 q 1034 505 1078 751 q 836 119 992 259 q 451 -20 681 -20 "},"Ř":{"x_min":-29.15625,"x_max":972.5,"ha":1038,"o":"m 661 494 q 746 454 714 485 q 795 364 778 423 l 878 82 l 972 82 l 958 0 l 658 0 l 566 305 q 516 426 541 400 q 438 453 491 453 l 401 453 l 336 82 l 453 82 l 439 0 l -29 0 l -14 82 l 101 82 l 250 931 l 133 931 l 147 1013 l 668 1013 q 900 942 826 1013 q 951 740 974 871 q 860 573 933 634 q 661 494 788 511 m 415 534 l 495 534 q 636 585 581 534 q 708 733 691 637 q 687 880 724 829 q 564 931 650 931 l 484 931 l 415 534 m 553 1109 l 448 1288 l 548 1288 l 659 1178 l 809 1288 l 908 1288 l 741 1109 l 553 1109 "},"⡅":{"x_min":183,"x_max":427,"ha":976,"o":"m 218 853 q 183 949 183 893 q 219 1045 183 1005 q 305 1085 255 1085 q 390 1045 354 1085 q 427 949 427 1005 q 391 853 427 893 q 304 814 355 814 q 218 853 254 814 m 218 129 q 183 225 183 169 q 219 321 183 281 q 305 361 255 361 q 390 321 354 361 q 427 225 427 281 q 391 129 427 169 q 304 90 355 90 q 218 129 254 90 m 218 -231 q 183 -135 183 -191 q 219 -39 183 -79 q 305 0 255 0 q 390 -39 354 0 q 427 -135 427 -79 q 391 -231 427 -191 q 304 -271 355 -271 q 218 -231 254 -271 "},"ϙ":{"x_min":65.84375,"x_max":815.828125,"ha":833,"o":"m 387 57 q 495 122 456 57 q 564 360 534 187 q 579 599 595 534 q 494 664 562 664 q 385 598 425 664 q 315 360 345 533 q 302 122 285 188 q 387 57 318 57 m 485 -7 l 436 -287 l 219 -287 l 267 -7 q 123 81 176 14 q 74 360 43 183 q 220 639 105 539 q 507 740 335 740 q 758 639 679 740 q 807 360 838 539 q 661 81 775 181 q 485 -7 583 14 "},"⬐":{"x_min":46.46875,"x_max":975.96875,"ha":1047,"o":"m 235 385 l 235 714 l 975 714 l 975 565 l 369 565 l 369 385 l 556 474 l 556 438 l 304 155 l 298 155 l 46 438 l 46 474 l 235 385 "},"ᾝ":{"x_min":74.59375,"x_max":1667.625,"ha":1635,"o":"m 424 0 l 438 82 l 555 82 l 703 931 l 587 931 l 601 1013 l 1070 1013 l 1055 931 l 938 931 l 878 590 l 1241 590 l 1301 931 l 1184 931 l 1199 1013 l 1667 1013 l 1653 931 l 1536 931 l 1387 82 l 1504 82 l 1490 0 l 1022 0 l 1036 82 l 1152 82 l 1225 497 l 862 497 l 790 82 l 907 82 l 893 0 l 424 0 m 458 1111 l 628 1111 l 356 856 l 255 856 l 458 1111 m 166 973 q 210 860 177 892 l 145 828 q 80 954 98 909 q 80 1041 69 981 q 122 1124 86 1079 q 200 1163 158 1163 q 258 1133 239 1163 q 272 1063 278 1100 q 233 994 265 1021 q 166 973 203 967 m 1034 -277 l 988 -288 q 870 -171 844 -322 l 886 -83 l 1006 -83 l 989 -180 q 1011 -234 978 -243 l 1043 -225 l 1034 -277 "},"ṅ":{"x_min":69.734375,"x_max":829.640625,"ha":909,"o":"m 69 0 l 181 639 l 89 639 l 103 721 l 412 721 l 394 619 q 499 712 444 683 q 631 741 554 741 q 784 668 740 741 q 812 550 812 623 q 803 458 812 508 l 737 82 l 829 82 l 815 0 l 506 0 l 587 465 q 596 545 596 512 q 589 592 596 575 q 522 628 574 628 q 417 574 456 628 q 357 405 377 521 l 286 0 l 69 0 m 481 995 q 520 1065 488 1036 q 587 1095 551 1095 q 646 1065 624 1095 q 661 995 667 1036 q 622 925 654 955 q 554 896 590 896 q 496 925 517 896 q 481 995 474 955 "},"ᶼ":{"x_min":29.84375,"x_max":552.03125,"ha":659,"o":"m 29 464 l 39 509 l 335 816 l 158 816 l 144 748 l 99 748 l 121 860 l 502 860 l 493 815 l 196 508 l 431 508 l 429 496 l 429 496 l 414 416 q 412 353 405 371 q 448 336 420 336 q 487 348 473 336 q 508 392 501 362 l 552 392 l 535 308 q 478 297 505 301 q 428 294 451 294 q 303 325 343 294 q 278 416 265 355 l 287 464 l 29 464 "},"и":{"x_min":79.359375,"x_max":838.890625,"ha":909,"o":"m 838 721 l 727 82 l 819 82 l 804 0 l 495 0 l 513 101 q 408 8 463 37 q 277 -20 354 -20 q 124 51 168 -20 q 97 170 97 97 q 105 262 97 212 l 171 639 l 79 639 l 93 721 l 402 721 l 328 299 q 314 169 314 215 q 318 128 314 142 q 386 93 332 93 q 491 146 451 93 q 551 316 531 200 l 621 721 l 838 721 "},"³":{"x_min":9.5,"x_max":503.3125,"ha":547,"o":"m 113 1004 q 216 1024 169 1017 q 301 1031 263 1031 q 462 995 411 1031 q 501 891 512 959 q 454 811 492 842 q 353 768 417 779 q 455 719 424 757 q 476 619 486 682 q 391 494 461 536 q 199 453 322 453 q 103 460 150 453 q 9 482 55 467 l 33 618 l 91 618 q 108 536 86 563 q 177 510 129 510 q 265 539 231 510 q 308 623 298 568 q 293 707 318 678 q 212 737 268 737 l 187 737 l 198 794 l 216 794 q 296 817 265 794 q 335 883 327 840 q 322 950 342 926 q 259 974 303 974 q 190 949 219 974 q 150 880 161 924 l 92 880 l 113 1004 "},"⇀":{"x_min":71,"x_max":1004,"ha":1047,"o":"m 1004 374 l 71 374 l 71 523 l 732 523 l 653 731 l 685 731 l 1004 380 l 1004 374 "},"♬":{"x_min":114.9375,"x_max":1006,"ha":1121,"o":"m 1003 1012 l 1006 1009 l 1006 153 q 846 -5 1006 9 q 693 106 704 -5 q 835 205 693 205 q 949 169 901 205 l 952 169 l 952 617 l 425 617 l 425 157 q 274 -7 425 17 l 272 -7 q 114 116 114 -7 q 259 203 114 203 q 374 164 320 203 l 374 1012 l 1003 1012 m 427 872 l 427 766 l 952 766 l 952 872 l 427 872 "},"͘":{"x_min":14.640625,"x_max":197.640625,"ha":0,"o":"m 16 995 q 54 1065 23 1036 q 122 1095 86 1095 q 181 1065 159 1095 q 195 995 202 1036 q 157 925 189 955 q 88 896 125 896 q 30 925 52 896 q 16 995 9 955 "},"⥸":{"x_min":71,"x_max":1001,"ha":1047,"o":"m 132 935 l 132 1097 l 915 783 l 915 630 l 132 315 l 132 477 l 729 705 l 132 935 m 71 252 l 794 252 l 714 460 l 746 460 l 1001 180 l 1001 174 l 746 -105 l 714 -105 l 794 103 l 71 103 l 71 252 "},"ᶣ":{"x_min":99.015625,"x_max":577.125,"ha":652,"o":"m 577 860 l 475 350 l 535 350 l 527 305 l 330 305 l 373 519 q 306 468 341 484 q 223 453 271 453 q 127 492 155 453 q 115 608 100 531 l 157 815 l 99 815 l 107 860 l 302 860 l 251 604 q 250 534 241 553 q 292 515 259 515 q 358 544 333 515 q 396 637 383 573 l 432 815 l 382 815 l 391 860 l 577 860 "},"⢂":{"x_min":183,"x_max":793,"ha":976,"o":"m 218 492 q 183 588 183 532 q 219 684 183 644 q 305 724 255 724 q 390 684 354 724 q 427 588 427 644 q 391 492 427 532 q 304 453 355 453 q 218 492 254 453 m 584 -231 q 549 -135 549 -191 q 585 -39 549 -79 q 671 0 621 0 q 756 -39 720 0 q 793 -135 793 -79 q 757 -231 793 -191 q 671 -271 721 -271 q 584 -231 620 -271 "},"▱":{"x_min":3.390625,"x_max":957.578125,"ha":961,"o":"m 684 181 l 851 540 l 276 540 l 109 181 l 684 181 m 717 104 l 3 104 l 244 617 l 957 617 l 717 104 "},"˨":{"x_min":72.5625,"x_max":588.65625,"ha":625,"o":"m 305 0 l 342 209 l 72 209 l 94 337 l 364 337 l 474 963 l 588 963 l 420 0 l 305 0 "},"︍":{"x_min":0,"x_max":0,"ha":0},"⤶":{"x_min":184,"x_max":844,"ha":1047,"o":"m 606 456 q 679 489 649 456 q 710 571 710 523 l 710 878 l 844 878 l 844 571 q 774 384 844 462 q 606 307 704 307 l 390 307 l 470 98 l 438 98 l 184 378 l 184 384 l 438 664 l 470 664 l 390 456 l 606 456 "},"⣟":{"x_min":183,"x_max":793,"ha":976,"o":"m 218 853 q 183 949 183 893 q 219 1045 183 1005 q 305 1085 255 1085 q 390 1045 354 1085 q 427 949 427 1005 q 391 853 427 893 q 304 814 355 814 q 218 853 254 814 m 218 492 q 183 588 183 532 q 219 684 183 644 q 305 724 255 724 q 390 684 354 724 q 427 588 427 644 q 391 492 427 532 q 304 453 355 453 q 218 492 254 453 m 218 129 q 183 225 183 169 q 219 321 183 281 q 305 361 255 361 q 390 321 354 361 q 427 225 427 281 q 391 129 427 169 q 304 90 355 90 q 218 129 254 90 m 584 853 q 549 949 549 893 q 585 1045 549 1005 q 671 1085 621 1085 q 756 1045 720 1085 q 793 949 793 1005 q 757 853 793 893 q 671 814 721 814 q 584 853 620 814 m 584 492 q 549 588 549 532 q 585 684 549 644 q 671 724 621 724 q 756 684 720 724 q 793 588 793 644 q 757 492 793 532 q 671 453 721 453 q 584 492 620 453 m 218 -231 q 183 -135 183 -191 q 219 -39 183 -79 q 305 0 255 0 q 390 -39 354 0 q 427 -135 427 -79 q 391 -231 427 -191 q 304 -271 355 -271 q 218 -231 254 -271 m 584 -231 q 549 -135 549 -191 q 585 -39 549 -79 q 671 0 621 0 q 756 -39 720 0 q 793 -135 793 -79 q 757 -231 793 -191 q 671 -271 721 -271 q 584 -231 620 -271 "},"⥄":{"x_min":46,"x_max":1001,"ha":1047,"o":"m 976 286 l 976 137 l 253 137 l 332 -71 l 301 -71 l 46 208 l 46 214 l 301 494 l 332 494 l 253 286 l 976 286 m 524 612 l 524 761 l 794 761 l 715 969 l 746 969 l 1001 689 l 1001 683 l 746 403 l 715 403 l 794 612 l 524 612 "},"ḥ":{"x_min":42.734375,"x_max":802.3125,"ha":909,"o":"m 42 0 l 212 974 l 116 974 l 130 1055 l 443 1055 l 366 619 q 472 712 417 683 q 603 741 527 741 q 756 668 712 741 q 784 550 784 623 q 775 458 784 508 l 709 82 l 802 82 l 788 0 l 478 0 l 560 465 q 569 545 569 512 q 561 592 569 575 q 495 628 546 628 q 389 574 429 628 q 329 405 349 521 l 258 0 l 42 0 m 246 -197 q 284 -127 253 -156 q 352 -98 316 -98 q 411 -127 389 -98 q 425 -197 432 -156 q 387 -267 419 -237 q 318 -297 355 -297 q 260 -267 282 -297 q 246 -197 239 -237 "},"Ἅ":{"x_min":-6.109375,"x_max":1001.65625,"ha":1061,"o":"m -6 0 l 8 82 l 82 82 l 588 1012 l 734 1012 l 915 82 l 1001 82 l 987 0 l 560 0 l 575 82 l 664 82 l 625 289 l 282 289 l 170 82 l 279 82 l 265 0 l -6 0 m 327 371 l 609 371 l 537 758 l 327 371 m 459 1111 l 629 1111 l 356 856 l 256 856 l 459 1111 m 167 973 q 211 860 177 891 l 145 828 q 80 954 99 909 q 80 1041 69 981 q 122 1124 87 1079 q 200 1162 158 1162 q 259 1133 240 1162 q 273 1063 279 1100 q 233 993 265 1021 q 167 973 204 967 "},"Ρ":{"x_min":-29.15625,"x_max":951.71875,"ha":940,"o":"m -29 0 l -14 82 l 101 82 l 250 931 l 133 931 l 147 1013 l 666 1013 q 894 932 818 1013 q 946 717 969 852 q 818 500 922 581 q 562 419 714 419 l 395 419 l 336 82 l 483 82 l 469 0 l -29 0 m 409 501 l 478 501 q 615 559 557 501 q 689 717 672 618 q 670 872 707 814 q 553 931 633 931 l 484 931 l 409 501 "},"ῌ":{"x_min":-29.15625,"x_max":1213.921875,"ha":1181,"o":"m -29 0 l -14 82 l 101 82 l 250 931 l 133 931 l 147 1013 l 616 1013 l 602 931 l 484 931 l 425 590 l 788 590 l 847 931 l 731 931 l 745 1013 l 1213 1013 l 1199 931 l 1082 931 l 933 82 l 1051 82 l 1036 0 l 568 0 l 582 82 l 699 82 l 771 497 l 408 497 l 336 82 l 453 82 l 439 0 l -29 0 m 581 -277 l 535 -288 q 417 -171 390 -322 l 432 -83 l 552 -83 l 535 -180 q 557 -234 524 -243 l 590 -225 l 581 -277 "},"⡽":{"x_min":183,"x_max":793,"ha":976,"o":"m 218 853 q 183 949 183 893 q 219 1045 183 1005 q 305 1085 255 1085 q 390 1045 354 1085 q 427 949 427 1005 q 391 853 427 893 q 304 814 355 814 q 218 853 254 814 m 218 129 q 183 225 183 169 q 219 321 183 281 q 305 361 255 361 q 390 321 354 361 q 427 225 427 281 q 391 129 427 169 q 304 90 355 90 q 218 129 254 90 m 584 853 q 549 949 549 893 q 585 1045 549 1005 q 671 1085 621 1085 q 756 1045 720 1085 q 793 949 793 1005 q 757 853 793 893 q 671 814 721 814 q 584 853 620 814 m 584 492 q 549 588 549 532 q 585 684 549 644 q 671 724 621 724 q 756 684 720 724 q 793 588 793 644 q 757 492 793 532 q 671 453 721 453 q 584 492 620 453 m 584 129 q 549 225 549 169 q 585 321 549 281 q 671 361 621 361 q 756 321 720 361 q 793 225 793 281 q 757 129 793 169 q 671 90 721 90 q 584 129 620 90 m 218 -231 q 183 -135 183 -191 q 219 -39 183 -79 q 305 0 255 0 q 390 -39 354 0 q 427 -135 427 -79 q 391 -231 427 -191 q 304 -271 355 -271 q 218 -231 254 -271 "},"⣥":{"x_min":183,"x_max":793,"ha":976,"o":"m 218 853 q 183 949 183 893 q 219 1045 183 1005 q 305 1085 255 1085 q 390 1045 354 1085 q 427 949 427 1005 q 391 853 427 893 q 304 814 355 814 q 218 853 254 814 m 218 129 q 183 225 183 169 q 219 321 183 281 q 305 361 255 361 q 390 321 354 361 q 427 225 427 281 q 391 129 427 169 q 304 90 355 90 q 218 129 254 90 m 584 129 q 549 225 549 169 q 585 321 549 281 q 671 361 621 361 q 756 321 720 361 q 793 225 793 281 q 757 129 793 169 q 671 90 721 90 q 584 129 620 90 m 218 -231 q 183 -135 183 -191 q 219 -39 183 -79 q 305 0 255 0 q 390 -39 354 0 q 427 -135 427 -79 q 391 -231 427 -191 q 304 -271 355 -271 q 218 -231 254 -271 m 584 -231 q 549 -135 549 -191 q 585 -39 549 -79 q 671 0 621 0 q 756 -39 720 0 q 793 -135 793 -79 q 757 -231 793 -191 q 671 -271 721 -271 q 584 -231 620 -271 "},"Ṙ":{"x_min":-29.15625,"x_max":972.5,"ha":1038,"o":"m 577 1134 q 563 1204 556 1163 q 602 1274 571 1244 q 670 1304 634 1304 q 729 1274 707 1304 q 742 1204 750 1244 q 703 1134 735 1163 q 636 1105 672 1105 q 577 1134 599 1105 m 661 494 q 746 454 714 485 q 795 364 778 423 l 878 82 l 972 82 l 958 0 l 658 0 l 566 305 q 516 426 541 400 q 438 453 491 453 l 401 453 l 336 82 l 453 82 l 439 0 l -29 0 l -14 82 l 101 82 l 250 931 l 133 931 l 147 1013 l 668 1013 q 900 942 826 1013 q 951 740 974 871 q 860 573 933 634 q 661 494 788 511 m 415 534 l 495 534 q 636 585 581 534 q 708 733 691 637 q 687 880 724 829 q 564 931 650 931 l 484 931 l 415 534 "},"ª":{"x_min":8.109375,"x_max":547.875,"ha":608,"o":"m 403 770 l 411 815 q 417 868 417 845 q 404 931 417 906 q 353 963 387 963 q 336 960 345 963 q 252 894 290 951 q 199 750 215 837 q 193 682 193 712 q 203 618 193 643 q 254 580 220 580 q 269 581 261 580 q 353 642 316 591 q 403 770 390 694 m 361 528 l 376 615 q 311 539 349 569 q 232 501 273 510 q 193 497 211 497 q 104 543 134 497 q 80 645 80 581 q 88 726 80 682 q 172 931 109 851 q 324 1030 235 1012 q 353 1034 339 1034 q 395 1024 377 1034 q 438 971 425 1009 l 449 1031 l 547 1031 l 477 630 l 547 630 l 529 528 l 361 528 m 24 434 l 511 434 l 495 342 l 8 342 l 24 434 "},"Ἓ":{"x_min":82.734375,"x_max":1475.703125,"ha":1461,"o":"m 479 0 l 493 82 l 610 82 l 758 931 l 642 931 l 656 1013 l 1475 1013 l 1433 774 l 1349 774 l 1375 920 l 991 920 l 935 595 l 1173 595 l 1196 723 l 1279 723 l 1218 374 l 1134 374 l 1157 503 l 918 503 l 847 92 l 1241 92 l 1267 238 l 1350 238 l 1309 0 l 479 0 m 496 1110 l 608 856 l 508 856 l 326 1110 l 496 1110 m 174 973 q 219 860 185 892 l 153 829 q 88 954 106 909 q 88 1041 77 981 q 130 1124 94 1079 q 208 1163 166 1163 q 266 1133 247 1163 q 280 1063 286 1100 q 241 994 273 1021 q 174 973 211 967 "},"š":{"x_min":0.046875,"x_max":690.640625,"ha":704,"o":"m 34 222 l 103 222 q 103 202 103 211 q 139 96 103 135 q 247 56 175 56 q 407 154 390 56 q 410 186 410 167 q 394 225 410 205 q 317 263 378 245 l 232 288 q 106 360 136 316 q 76 458 76 404 q 80 508 76 481 q 184 683 101 625 q 400 740 267 740 q 679 697 533 740 l 646 515 l 576 515 q 579 539 579 527 q 441 664 579 664 q 287 572 303 664 q 285 545 285 561 q 360 479 285 501 l 444 453 q 599 372 565 418 q 633 269 633 327 q 628 218 633 245 q 518 37 607 95 q 264 -20 430 -20 q 0 20 144 -20 l 34 222 m 341 856 l 230 1110 l 330 1110 l 432 957 l 589 1111 l 690 1111 l 489 856 l 341 856 "},"ჟ":{"x_min":-58,"x_max":805.359375,"ha":792,"o":"m 174 711 q 269 677 224 687 q 353 668 314 668 q 419 671 384 668 q 490 681 454 675 q 557 697 525 688 q 615 718 589 706 q 657 742 641 729 q 678 771 674 756 l 805 771 l 620 43 q 554 -119 595 -51 q 459 -230 513 -187 q 342 -293 405 -273 q 208 -313 278 -313 q 101 -297 150 -313 q 17 -254 52 -281 q -37 -189 -17 -226 q -58 -108 -58 -152 q -51 -60 -58 -83 q -14 30 -39 -7 q 47 93 10 68 q 135 135 85 119 q 254 160 186 151 l 254 94 q 215 59 231 76 q 187 22 199 42 q 166 -20 175 2 q 149 -74 156 -44 q 144 -102 146 -89 q 142 -126 142 -114 q 163 -177 142 -159 q 237 -195 184 -195 q 299 -181 271 -195 q 347 -143 326 -168 q 384 -82 369 -118 q 412 -1 400 -46 l 565 598 q 479 581 525 586 q 388 576 433 576 q 420 538 409 561 q 431 483 431 516 q 428 452 431 468 q 421 417 426 436 q 397 347 412 379 q 357 291 382 314 q 293 255 332 268 q 194 243 253 243 l 64 277 l 104 432 l 236 328 q 269 340 254 328 q 295 370 284 352 q 312 410 306 388 q 318 449 318 431 q 296 502 318 481 q 231 523 275 523 l 123 506 l 174 711 "},"⁪":{"x_min":0,"x_max":0,"ha":0},"ნ":{"x_min":49,"x_max":880.953125,"ha":800,"o":"m 521 394 q 538 475 532 440 q 544 539 544 511 q 526 612 544 589 q 474 636 509 636 q 416 621 446 636 q 358 575 386 607 q 305 491 330 542 q 261 367 280 441 q 242 276 248 314 q 236 210 236 238 q 242 165 236 182 q 260 137 248 147 q 289 124 272 127 q 327 121 306 121 q 431 172 385 121 q 503 322 478 223 l 521 394 m 729 396 q 659 226 704 300 q 555 102 613 153 q 429 26 497 52 q 291 0 361 0 q 190 13 234 0 q 114 54 145 27 q 65 122 82 82 q 49 217 49 162 q 63 327 49 267 l 216 925 q 261 1044 234 995 q 325 1125 288 1094 q 409 1172 362 1157 q 512 1187 455 1187 q 569 1178 547 1187 q 608 1160 590 1169 q 640 1141 625 1150 q 678 1133 656 1133 q 712 1139 693 1133 q 753 1158 731 1146 q 800 1185 775 1169 q 852 1218 825 1201 l 880 1164 q 832 1104 859 1135 q 774 1047 805 1073 q 710 1004 744 1021 q 641 988 676 988 q 605 994 621 988 q 576 1011 589 1001 q 553 1034 564 1022 q 532 1057 542 1046 q 510 1074 521 1067 q 485 1081 499 1081 q 463 1074 473 1081 q 444 1053 453 1068 q 426 1014 435 1038 q 408 953 417 990 l 343 698 q 388 723 364 713 q 433 741 411 734 q 473 751 454 748 q 507 755 493 755 q 602 740 558 755 q 678 696 646 725 q 728 623 710 667 q 746 519 746 579 q 729 396 746 463 "},"Ƕ":{"x_min":-27.8125,"x_max":1523.84375,"ha":1526,"o":"m 995 423 q 979 158 956 200 q 1114 83 1022 83 q 1288 159 1222 83 q 1386 423 1354 235 l 1424 639 l 1308 639 l 1323 720 l 1523 720 l 1469 408 q 1321 78 1428 175 q 1018 -20 1211 -20 q 767 79 830 -20 q 758 409 715 163 l 773 497 l 410 497 l 338 82 l 455 82 l 441 0 l -27 0 l -12 82 l 103 82 l 251 930 l 134 930 l 149 1012 l 618 1012 l 604 930 l 486 930 l 427 590 l 790 590 l 849 930 l 732 930 l 747 1012 l 1215 1012 l 1201 930 l 1084 930 l 995 423 "},"1":{"x_min":81.375,"x_max":669.359375,"ha":869,"o":"m 81 0 l 95 82 l 266 82 l 409 901 l 198 776 l 215 877 l 471 1030 l 663 1030 l 497 82 l 669 82 l 655 0 l 81 0 "},"ҍ":{"x_min":61.140625,"x_max":791,"ha":842,"o":"m 61 634 l 76 721 l 198 721 l 242 974 l 145 974 l 160 1055 l 472 1055 l 414 721 l 536 721 l 522 640 l 400 640 l 361 415 q 562 490 448 490 q 733 426 676 490 q 791 285 791 362 q 786 240 791 264 q 682 57 768 133 q 419 -19 595 -19 q 178 53 244 -19 q 112 207 112 126 q 115 249 112 228 l 183 634 l 61 634 m 322 162 q 335 94 322 132 q 409 57 348 57 q 519 116 470 57 q 569 294 569 175 q 543 364 569 328 q 468 400 517 400 q 383 369 418 400 q 332 252 347 338 l 328 230 q 322 162 322 193 "},"⟻":{"x_min":45.875,"x_max":1720,"ha":1791,"o":"m 1586 523 l 1586 715 l 1720 715 l 1720 182 l 1586 182 l 1586 374 l 253 374 l 332 165 l 300 165 l 45 445 l 45 451 l 300 731 l 332 731 l 253 523 l 1586 523 "},"ᵈ":{"x_min":28,"x_max":552.421875,"ha":622,"o":"m 336 641 l 343 681 q 351 744 351 718 q 345 781 351 767 q 292 813 332 813 q 227 780 251 813 q 186 662 204 747 q 176 576 176 609 q 180 543 176 556 q 232 511 191 511 q 297 542 272 511 q 336 641 321 572 m 552 1045 l 435 464 l 300 464 l 310 513 q 254 468 286 483 q 179 453 221 453 q 53 509 92 453 q 28 601 28 545 q 34 662 28 629 q 115 815 54 760 q 263 871 176 871 q 332 855 305 871 q 369 809 358 840 l 407 1000 l 348 1000 l 357 1045 l 552 1045 "},"ɩ":{"x_min":93.59375,"x_max":413.6875,"ha":475,"o":"m 111 228 l 183 639 l 93 639 l 108 721 l 413 721 l 329 237 q 332 108 314 149 q 407 67 351 67 l 396 0 l 290 0 q 136 32 176 0 q 111 228 84 75 "},"ǒ":{"x_min":43,"x_max":793,"ha":834,"o":"m 364 56 q 472 121 433 56 q 541 360 511 186 q 562 541 562 474 q 555 599 562 576 q 471 664 540 664 q 362 598 401 664 q 292 360 323 533 q 273 182 273 249 q 279 122 273 145 q 364 56 295 56 m 637 81 q 351 -20 522 -20 q 99 81 179 -20 q 43 267 43 154 q 51 360 43 310 q 197 639 83 539 q 484 740 312 740 q 736 640 656 740 q 793 454 793 567 q 784 360 793 410 q 637 81 752 182 m 437 856 l 326 1110 l 426 1110 l 529 957 l 686 1111 l 786 1111 l 585 856 l 437 856 "},"⥯":{"x_min":146.140625,"x_max":899.859375,"ha":1046,"o":"m 468 -32 l 461 -32 l 146 322 l 146 358 l 334 269 l 334 1005 l 468 1005 l 468 -32 m 578 1037 l 584 1037 l 899 682 l 899 646 l 712 735 l 712 0 l 578 0 l 578 1037 "},"⠛":{"x_min":183,"x_max":793,"ha":976,"o":"m 218 852 q 183 948 183 892 q 219 1044 183 1004 q 305 1084 255 1084 q 390 1044 354 1084 q 427 948 427 1004 q 391 852 427 892 q 304 813 355 813 q 218 852 254 813 m 218 491 q 183 587 183 531 q 219 683 183 643 q 305 723 255 723 q 390 683 354 723 q 427 587 427 643 q 391 491 427 531 q 304 452 355 452 q 218 491 254 452 m 584 852 q 549 948 549 892 q 585 1044 549 1004 q 671 1084 621 1084 q 756 1044 720 1084 q 793 948 793 1004 q 757 852 793 892 q 671 813 721 813 q 584 852 620 813 m 584 491 q 549 587 549 531 q 585 683 549 643 q 671 723 621 723 q 756 683 720 723 q 793 587 793 643 q 757 491 793 531 q 671 452 721 452 q 584 491 620 452 "},"ӡ":{"x_min":-33.90625,"x_max":756.15625,"ha":709,"o":"m 461 306 q 651 235 593 292 q 710 11 735 153 q 571 -206 684 -130 q 265 -282 457 -282 q 119 -268 193 -282 q -33 -227 44 -254 l 4 -5 l 78 -5 q 107 -152 68 -101 q 229 -203 145 -203 q 383 -145 322 -203 q 462 17 444 -88 q 439 186 482 127 q 300 246 397 246 l 259 246 l 286 399 l 491 642 l 210 642 l 189 518 l 116 518 l 151 721 l 756 721 l 741 640 l 461 306 "},"ḽ":{"x_min":-136.984375,"x_max":444.203125,"ha":475,"o":"m 273 82 l 366 82 l 351 0 l 43 0 l 213 974 l 121 974 l 135 1055 l 444 1055 l 273 82 m 64 -79 l 212 -79 l 323 -333 l 223 -333 l 120 -181 l -36 -333 l -136 -333 l 64 -79 "},"ī":{"x_min":71.890625,"x_max":486.921875,"ha":475,"o":"m 103 1060 l 486 1060 l 465 932 l 80 932 l 103 1060 m 302 82 l 394 82 l 380 0 l 71 0 l 183 639 l 91 639 l 105 721 l 413 721 l 302 82 "},"∐":{"x_min":28,"x_max":1020,"ha":1051,"o":"m 1019 -267 l 28 -267 l 28 -210 l 144 -210 l 144 942 l 28 942 l 28 999 l 454 999 l 454 942 l 345 942 l 345 -210 l 701 -210 l 701 942 l 594 942 l 594 999 l 1020 999 l 1020 942 l 903 942 l 903 -210 l 1019 -210 l 1019 -267 "},"̢":{"x_min":-512.765625,"x_max":-73.25,"ha":0,"o":"m -459 192 l -243 192 l -292 -85 q -294 -200 -306 -168 q -238 -232 -282 -232 q -175 -208 -197 -232 q -142 -130 -153 -184 l -73 -130 l -100 -282 q -189 -302 -147 -295 q -269 -309 -232 -309 q -466 -252 -406 -309 q -507 -85 -527 -195 l -459 192 "},"⣬":{"x_min":183,"x_max":793,"ha":976,"o":"m 218 129 q 183 225 183 169 q 219 321 183 281 q 305 361 255 361 q 390 321 354 361 q 427 225 427 281 q 391 129 427 169 q 304 90 355 90 q 218 129 254 90 m 584 853 q 549 949 549 893 q 585 1045 549 1005 q 671 1085 621 1085 q 756 1045 720 1085 q 793 949 793 1005 q 757 853 793 893 q 671 814 721 814 q 584 853 620 814 m 584 129 q 549 225 549 169 q 585 321 549 281 q 671 361 621 361 q 756 321 720 361 q 793 225 793 281 q 757 129 793 169 q 671 90 721 90 q 584 129 620 90 m 218 -231 q 183 -135 183 -191 q 219 -39 183 -79 q 305 0 255 0 q 390 -39 354 0 q 427 -135 427 -79 q 391 -231 427 -191 q 304 -271 355 -271 q 218 -231 254 -271 m 584 -231 q 549 -135 549 -191 q 585 -39 549 -79 q 671 0 621 0 q 756 -39 720 0 q 793 -135 793 -79 q 757 -231 793 -191 q 671 -271 721 -271 q 584 -231 620 -271 "},"ӹ":{"x_min":79.65625,"x_max":1202.1875,"ha":1272,"o":"m 79 639 l 93 721 l 402 721 l 349 415 q 549 490 436 490 q 721 426 664 490 q 779 285 779 362 q 774 240 779 263 q 670 56 756 133 q 395 -20 583 -20 q 166 52 232 -20 q 100 207 100 125 q 103 249 100 227 l 172 639 l 79 639 m 310 162 q 323 94 310 132 q 395 56 336 56 q 507 116 458 56 q 557 294 557 175 q 531 364 557 328 q 454 400 505 400 q 371 369 406 400 q 320 252 335 338 l 316 230 q 310 162 310 193 m 859 0 l 985 721 l 1202 721 l 1090 82 l 1182 82 l 1168 0 l 859 0 m 498 995 q 537 1065 505 1036 q 605 1095 569 1095 q 663 1065 642 1095 q 677 995 684 1036 q 638 925 669 955 q 572 896 607 896 q 513 925 535 896 q 498 995 491 955 m 771 995 q 809 1065 778 1036 q 877 1095 840 1095 q 936 1065 914 1095 q 950 995 958 1036 q 912 925 944 955 q 843 896 880 896 q 785 925 807 896 q 771 995 764 955 "},"ʲ":{"x_min":-8.8125,"x_max":393.21875,"ha":391,"o":"m 240 971 q 271 1024 245 1002 q 329 1045 297 1045 q 379 1024 360 1045 q 391 971 397 1002 q 361 921 387 942 q 304 900 335 900 q 253 921 271 900 q 240 971 235 942 m 228 811 l 168 811 l 177 857 l 377 857 l 298 406 q 236 312 287 344 q 95 281 184 281 q 45 284 71 281 q -8 296 18 288 l 6 381 l 50 381 q 55 337 46 350 q 91 324 65 324 q 134 341 120 324 q 158 406 149 359 l 228 811 "},"⤛":{"x_min":71,"x_max":985.546875,"ha":1047,"o":"m 463 374 l 71 374 l 71 523 l 463 523 l 656 733 l 741 638 l 637 523 l 707 523 l 900 733 l 985 638 l 816 451 l 816 445 l 985 258 l 900 163 l 707 374 l 637 374 l 741 258 l 656 163 l 463 374 "},"ˣ":{"x_min":-14.234375,"x_max":477.4375,"ha":469,"o":"m 288 717 l 422 860 l 477 860 l 302 674 l 390 509 l 444 509 l 436 464 l 261 464 l 181 613 l 40 464 l -14 464 l 166 657 l 81 816 l 35 816 l 44 861 l 210 861 l 288 717 "},"ŏ":{"x_min":43,"x_max":793,"ha":834,"o":"m 317 1077 l 394 1077 q 418 1001 388 1027 q 508 975 448 975 q 608 1001 569 975 q 658 1077 646 1027 l 735 1077 q 652 921 718 978 q 490 866 588 866 q 345 921 390 866 q 317 1077 301 976 m 364 56 q 472 121 433 56 q 541 360 511 186 q 562 541 562 474 q 555 599 562 576 q 471 664 540 664 q 362 598 401 664 q 292 360 323 533 q 273 182 273 249 q 279 122 273 145 q 364 56 295 56 m 637 81 q 351 -20 522 -20 q 99 81 179 -20 q 43 267 43 154 q 51 360 43 310 q 197 639 83 539 q 484 740 312 740 q 736 640 656 740 q 793 454 793 567 q 784 360 793 410 q 637 81 752 182 "},"ý":{"x_min":-22.90625,"x_max":797.6875,"ha":726,"o":"m 303 -185 l 130 639 l 59 639 l 74 721 l 339 721 l 485 23 q 602 263 554 136 q 695 637 649 390 l 608 637 l 622 720 l 797 720 q 760 521 782 633 q 638 118 706 246 q 316 -274 459 -213 q 118 -309 234 -309 q -22 -279 60 -309 l 3 -129 l 72 -129 q 70 -159 70 -145 q 98 -221 70 -206 q 137 -231 111 -227 q 166 -234 152 -234 q 303 -185 234 -234 m 538 1110 l 708 1110 l 436 856 l 335 856 l 538 1110 "},"∇":{"x_min":25.09375,"x_max":917.5625,"ha":941,"o":"m 155 888 l 388 259 l 619 888 l 155 888 m 25 1013 l 917 1013 l 543 0 l 398 0 l 25 1013 "},"꜒":{"x_min":35.9375,"x_max":588.65625,"ha":625,"o":"m 150 0 l 35 0 l 204 964 l 588 964 l 566 836 l 296 836 l 150 0 "},"ⱽ":{"x_min":165.46875,"x_max":800.234375,"ha":610,"o":"m 800 1020 l 792 974 l 744 974 l 436 453 l 345 453 l 219 974 l 165 974 l 173 1020 l 442 1020 l 434 974 l 379 974 l 467 598 l 690 974 l 621 974 l 630 1020 l 800 1020 "},"Ί":{"x_min":52.890625,"x_max":846.359375,"ha":827,"o":"m 255 1111 l 425 1111 l 153 856 l 52 856 l 255 1111 m 200 0 l 214 82 l 331 82 l 480 931 l 363 931 l 377 1013 l 846 1013 l 832 931 l 714 931 l 566 82 l 683 82 l 669 0 l 200 0 "},"ӛ":{"x_min":47.8125,"x_max":748.265625,"ha":795,"o":"m 292 995 q 330 1065 299 1036 q 399 1095 362 1095 q 457 1065 436 1095 q 470 995 478 1036 q 432 925 463 955 q 365 896 401 896 q 306 925 328 896 q 292 995 285 955 m 564 995 q 603 1065 572 1036 q 671 1095 634 1095 q 730 1065 708 1095 q 744 995 752 1036 q 705 925 737 955 q 637 896 674 896 q 579 925 600 896 q 564 995 558 955 m 280 314 q 269 114 255 171 q 340 56 283 56 q 429 113 396 56 q 486 301 463 169 l 489 314 l 280 314 m 56 395 l 503 395 l 504 400 q 501 601 528 539 q 390 664 474 664 q 269 622 320 664 q 193 502 219 580 l 92 502 q 227 682 139 625 q 456 740 316 740 q 697 641 625 740 q 738 359 770 543 q 597 80 707 180 q 323 -20 487 -20 q 94 85 162 -20 q 56 395 27 191 "},"⤻":{"x_min":48.484375,"x_max":983,"ha":1047,"o":"m 881 419 q 763 316 828 359 q 622 251 698 274 q 465 228 545 228 q 309 251 385 228 q 168 316 232 274 q 48 419 103 359 l 144 524 q 235 446 186 478 q 344 395 285 413 q 465 377 403 377 q 586 395 527 377 q 695 446 645 413 q 787 524 745 478 l 599 610 l 620 637 l 978 637 l 983 632 l 983 234 l 959 210 l 881 419 "},"ἒ":{"x_min":28.703125,"x_max":733.90625,"ha":760,"o":"m 733 697 l 708 553 l 641 553 q 634 591 641 577 q 606 623 629 601 q 506 655 571 655 q 388 622 433 655 l 364 604 q 336 548 342 584 q 334 513 332 527 q 363 465 337 489 q 482 432 398 432 l 511 432 l 495 339 l 457 339 q 312 296 368 339 q 284 272 293 282 q 246 196 254 244 q 245 149 240 168 q 276 101 250 128 q 400 60 315 60 q 529 96 478 60 q 555 116 547 109 q 594 181 583 140 l 662 181 l 634 22 q 481 -6 557 4 q 343 -16 406 -16 q 330 -16 336 -16 q 97 35 179 -16 q 32 191 13 89 q 108 326 46 277 q 121 335 115 330 q 269 390 180 378 l 246 395 q 156 444 194 407 q 128 550 117 485 q 233 684 143 637 q 240 688 237 686 q 459 731 327 731 q 594 722 529 731 q 733 697 666 714 m 274 973 q 214 993 235 967 q 200 1063 192 1021 q 238 1133 206 1100 q 307 1162 267 1162 q 371 1125 349 1162 q 385 1042 391 1080 q 354 954 374 981 q 245 828 320 909 l 190 860 q 274 973 235 892 m 600 1111 l 712 856 l 613 856 l 430 1111 l 600 1111 "}," ":{"x_min":0,"x_max":0,"ha":312},"⥿":{"x_min":133,"x_max":915,"ha":1048,"o":"m 915 329 q 847 149 915 224 q 685 75 780 75 q 524 149 591 75 q 362 75 457 75 q 200 149 267 75 q 133 329 133 224 l 267 329 q 294 254 267 285 q 362 224 322 224 q 429 254 401 224 q 457 329 457 285 l 457 801 l 591 801 l 591 329 q 618 254 591 285 q 686 224 646 224 q 753 254 725 224 q 781 329 781 285 l 915 329 "},"⢣":{"x_min":183,"x_max":793,"ha":976,"o":"m 218 853 q 183 949 183 893 q 219 1045 183 1005 q 305 1085 255 1085 q 390 1045 354 1085 q 427 949 427 1005 q 391 853 427 893 q 304 814 355 814 q 218 853 254 814 m 218 492 q 183 588 183 532 q 219 684 183 644 q 305 724 255 724 q 390 684 354 724 q 427 588 427 644 q 391 492 427 532 q 304 453 355 453 q 218 492 254 453 m 584 129 q 549 225 549 169 q 585 321 549 281 q 671 361 621 361 q 756 321 720 361 q 793 225 793 281 q 757 129 793 169 q 671 90 721 90 q 584 129 620 90 m 584 -231 q 549 -135 549 -191 q 585 -39 549 -79 q 671 0 621 0 q 756 -39 720 0 q 793 -135 793 -79 q 757 -231 793 -191 q 671 -271 721 -271 q 584 -231 620 -271 "},"‴":{"x_min":2.71875,"x_max":779.21875,"ha":787,"o":"m 231 760 l 381 1013 l 550 1013 l 330 760 l 231 760 m 2 760 l 151 1013 l 321 1013 l 101 760 l 2 760 m 460 760 l 609 1013 l 779 1013 l 558 760 l 460 760 "},"ἑ":{"x_min":28.703125,"x_max":733.90625,"ha":760,"o":"m 733 697 l 708 553 l 641 553 q 634 591 641 577 q 606 623 629 601 q 506 655 571 655 q 388 622 433 655 l 364 604 q 336 548 342 584 q 334 513 332 527 q 363 465 337 489 q 482 432 398 432 l 511 432 l 495 339 l 457 339 q 312 296 368 339 q 284 272 293 282 q 246 196 254 244 q 245 149 240 168 q 276 101 250 128 q 400 60 315 60 q 529 96 478 60 q 555 116 547 109 q 594 181 583 140 l 662 181 l 634 22 q 481 -6 557 4 q 343 -16 406 -16 q 330 -16 336 -16 q 97 35 179 -16 q 32 191 13 89 q 108 326 46 277 q 121 335 115 330 q 269 390 180 378 l 246 395 q 156 444 194 407 q 128 550 117 485 q 233 684 143 637 q 240 688 237 686 q 459 731 327 731 q 594 722 529 731 q 733 697 666 714 m 472 973 q 516 861 482 892 l 450 829 q 385 954 403 910 q 385 1042 374 981 q 427 1125 392 1080 q 505 1163 463 1163 q 563 1133 544 1163 q 577 1064 584 1100 q 538 994 570 1021 q 472 973 508 967 "},"ᴝ":{"x_min":134.953125,"x_max":946.71875,"ha":921,"o":"m 280 793 l 854 793 l 872 896 l 946 896 l 886 553 l 794 553 q 861 454 845 510 q 862 314 877 398 q 765 130 840 192 q 565 69 691 69 l 227 69 l 208 -34 l 134 -34 l 195 309 l 573 309 q 731 331 695 309 q 778 413 768 353 q 749 519 791 485 q 601 553 706 553 l 311 553 l 296 465 l 222 465 l 280 793 "},"Ь":{"x_min":-29.03125,"x_max":942,"ha":1032,"o":"m -29 0 l -14 82 l 101 82 l 250 931 l 133 931 l 147 1013 l 615 1013 l 601 931 l 485 931 l 425 590 l 565 590 q 942 356 942 590 q 936 295 942 327 q 794 71 910 143 q 462 0 679 0 l -29 0 m 336 82 l 409 82 q 591 133 525 82 q 674 293 656 185 q 681 350 681 323 q 484 509 681 509 l 411 509 l 336 82 "},"ƽ":{"x_min":-33.90625,"x_max":804.3125,"ha":709,"o":"m 463 320 q 653 249 618 284 q 710 11 737 167 q 571 -206 684 -130 q 265 -282 457 -282 q 119 -268 193 -282 q -33 -227 44 -254 l 4 -5 l 78 -5 q 107 -152 68 -101 q 229 -203 145 -203 q 383 -145 322 -203 q 462 16 444 -88 q 439 186 482 126 q 300 246 397 246 l 139 246 l 208 639 l 115 639 l 130 721 l 804 721 l 770 525 l 696 525 l 716 639 l 424 639 l 370 327 q 463 320 438 327 "},"↢":{"x_min":46,"x_max":985.546875,"ha":1047,"o":"m 707 374 l 253 374 l 332 165 l 300 165 l 46 445 l 46 451 l 300 731 l 332 731 l 253 523 l 707 523 l 900 733 l 985 638 l 816 451 l 816 445 l 985 258 l 900 163 l 707 374 "},"̅":{"x_min":-625,"x_max":0,"ha":-1,"o":"m 0 1049 l 0 920 l -625 920 l -625 1049 l 0 1049 "},"̸":{"x_min":-1131.1875,"x_max":47.46875,"ha":0,"o":"m -1087 -52 l -1131 8 l 3 1064 l 47 1003 l -1087 -52 "},"ᾯ":{"x_min":129.53125,"x_max":1284.8125,"ha":1324,"o":"m 906 125 l 1110 125 l 1125 209 l 1208 209 l 1171 0 l 724 0 l 747 131 q 913 255 846 152 q 1011 539 979 358 q 1003 844 1046 739 q 843 949 960 949 q 647 844 727 949 q 533 538 568 739 q 533 256 502 361 q 655 131 564 152 l 632 0 l 184 0 l 221 209 l 303 209 l 288 125 l 493 125 q 304 296 360 187 q 275 554 248 405 q 472 899 312 768 q 858 1031 632 1031 q 1198 899 1084 1031 q 1275 554 1312 768 q 1155 296 1249 405 q 906 125 1062 187 m 129 1190 l 130 1200 q 189 1350 147 1299 q 293 1402 231 1402 q 336 1394 316 1402 q 380 1364 356 1385 l 418 1333 l 419 1331 q 465 1312 443 1312 q 509 1335 490 1312 q 535 1400 528 1359 l 602 1400 l 600 1390 q 542 1239 583 1291 q 438 1189 501 1189 q 396 1197 416 1189 q 351 1226 375 1205 l 313 1257 l 312 1258 q 266 1279 288 1279 q 222 1255 241 1279 q 196 1190 203 1231 l 129 1190 m 292 973 q 337 860 303 892 l 271 828 q 206 954 224 909 q 206 1041 195 981 q 248 1124 212 1079 q 326 1162 284 1162 q 384 1133 365 1162 q 398 1063 404 1100 q 359 993 391 1021 q 292 973 329 967 m 755 -277 l 709 -288 q 591 -171 564 -322 l 606 -83 l 727 -83 l 710 -180 q 731 -234 699 -243 l 764 -225 l 755 -277 "},"⢈":{"x_min":549,"x_max":793,"ha":976,"o":"m 584 853 q 549 949 549 893 q 585 1045 549 1005 q 671 1085 621 1085 q 756 1045 720 1085 q 793 949 793 1005 q 757 853 793 893 q 671 814 721 814 q 584 853 620 814 m 584 -231 q 549 -135 549 -191 q 585 -39 549 -79 q 671 0 621 0 q 756 -39 720 0 q 793 -135 793 -79 q 757 -231 793 -191 q 671 -271 721 -271 q 584 -231 620 -271 "},"¤":{"x_min":46.125,"x_max":751.546875,"ha":795,"o":"m 398 286 q 493 329 454 286 q 532 434 532 372 q 493 539 532 496 q 398 583 454 583 q 303 539 342 583 q 265 434 265 496 q 303 328 265 371 q 398 286 341 286 m 265 181 l 138 40 l 46 145 l 173 287 q 146 354 155 318 q 137 434 137 391 q 146 513 137 477 q 173 581 155 550 l 46 720 l 139 828 l 265 684 q 328 715 295 705 q 398 725 361 725 q 464 715 431 725 q 533 684 498 705 l 658 828 l 751 723 l 623 584 q 651 508 642 546 q 660 434 660 471 q 651 356 660 391 q 623 288 642 320 l 751 145 l 656 40 l 529 184 q 468 153 501 163 q 398 144 436 144 q 330 153 363 144 q 265 181 296 163 "},"p":{"x_min":31.046875,"x_max":858,"ha":874,"o":"m 367 395 l 354 324 q 343 209 343 256 q 351 142 343 168 q 435 86 370 86 q 539 145 502 86 q 604 360 577 205 q 621 515 621 456 q 614 574 621 552 q 531 634 597 634 q 428 577 467 634 q 367 395 389 521 m 193 639 l 100 639 l 115 721 l 423 721 l 408 628 q 496 712 445 685 q 616 740 547 740 q 816 638 754 740 q 858 470 858 571 q 847 360 858 419 q 719 81 816 183 q 482 -20 621 -20 q 373 7 414 -20 q 313 91 331 35 l 247 -288 l 31 -288 l 193 639 "},"Ἤ":{"x_min":70.53125,"x_max":1631,"ha":1598,"o":"m 387 0 l 402 82 l 518 82 l 667 931 l 550 931 l 564 1013 l 1033 1013 l 1019 931 l 901 931 l 842 590 l 1205 590 l 1264 931 l 1148 931 l 1162 1013 l 1631 1013 l 1616 931 l 1499 931 l 1350 82 l 1468 82 l 1454 0 l 985 0 l 999 82 l 1116 82 l 1188 497 l 826 497 l 753 82 l 870 82 l 856 0 l 387 0 m 153 973 q 94 994 115 967 q 80 1063 72 1021 q 118 1133 86 1100 q 187 1163 147 1163 q 251 1124 229 1163 q 265 1041 271 1079 q 233 954 254 981 q 125 828 200 909 l 70 860 q 153 973 115 892 m 436 1111 l 606 1111 l 333 856 l 233 856 l 436 1111 "},"⢺":{"x_min":183,"x_max":793,"ha":976,"o":"m 218 492 q 183 588 183 532 q 219 684 183 644 q 305 724 255 724 q 390 684 354 724 q 427 588 427 644 q 391 492 427 532 q 304 453 355 453 q 218 492 254 453 m 584 853 q 549 949 549 893 q 585 1045 549 1005 q 671 1085 621 1085 q 756 1045 720 1085 q 793 949 793 1005 q 757 853 793 893 q 671 814 721 814 q 584 853 620 814 m 584 492 q 549 588 549 532 q 585 684 549 644 q 671 724 621 724 q 756 684 720 724 q 793 588 793 644 q 757 492 793 532 q 671 453 721 453 q 584 492 620 453 m 584 129 q 549 225 549 169 q 585 321 549 281 q 671 361 621 361 q 756 321 720 361 q 793 225 793 281 q 757 129 793 169 q 671 90 721 90 q 584 129 620 90 m 584 -231 q 549 -135 549 -191 q 585 -39 549 -79 q 671 0 621 0 q 756 -39 720 0 q 793 -135 793 -79 q 757 -231 793 -191 q 671 -271 721 -271 q 584 -231 620 -271 "},"►":{"x_min":3,"x_max":957.1875,"ha":961,"o":"m 3 14 l 3 706 l 957 360 l 3 14 "},"Ӭ":{"x_min":18,"x_max":942,"ha":994,"o":"m 18 289 l 142 289 q 324 62 142 62 q 660 454 581 62 l 253 454 l 272 563 l 679 563 q 688 686 688 630 q 483 949 688 949 q 187 694 279 949 l 110 694 l 153 943 q 524 1031 365 1031 q 863 889 754 1031 q 942 632 942 787 q 930 504 942 572 q 728 121 887 262 q 337 -20 569 -20 q 98 56 178 -20 q 18 289 18 132 m 372 1134 q 358 1204 350 1163 q 397 1274 365 1244 q 465 1304 428 1304 q 523 1274 502 1304 q 537 1204 544 1244 q 498 1134 529 1163 q 431 1105 468 1105 q 372 1134 394 1105 m 645 1134 q 631 1204 624 1163 q 670 1274 638 1244 q 738 1304 701 1304 q 796 1274 774 1304 q 811 1204 818 1244 q 771 1134 803 1163 q 703 1105 740 1105 q 645 1134 666 1105 "},"῭":{"x_min":203.15625,"x_max":659.03125,"ha":625,"o":"m 412 1385 l 524 1130 l 424 1130 l 242 1385 l 412 1385 m 204 995 q 243 1065 211 1036 q 311 1095 275 1095 q 369 1065 348 1095 q 383 995 390 1036 q 344 925 375 955 q 278 896 314 896 q 219 925 241 896 q 204 995 198 955 m 477 995 q 516 1065 484 1036 q 583 1095 547 1095 q 642 1065 620 1095 q 657 995 664 1036 q 618 925 650 955 q 549 896 586 896 q 492 925 513 896 q 477 995 470 955 "},"ђ":{"x_min":37.53125,"x_max":802,"ha":898,"o":"m 42 0 l 154 639 l 37 639 l 51 721 l 168 721 l 212 974 l 116 974 l 130 1055 l 442 1055 l 384 721 l 648 721 l 633 639 l 369 639 l 335 440 q 441 533 386 504 q 572 562 496 562 q 742 477 683 562 q 802 298 802 393 q 795 224 802 262 q 638 -70 764 44 q 316 -308 512 -186 l 282 -238 q 464 -68 412 -156 q 547 199 515 19 q 557 297 557 250 q 536 397 557 345 q 457 449 515 449 q 297 226 337 449 l 258 0 l 42 0 "},"ϕ":{"x_min":38.671875,"x_max":1127.234375,"ha":1177,"o":"m 813 1055 l 758 738 q 1070 639 998 738 q 1118 360 1148 531 q 973 80 1087 182 q 625 -19 859 -19 l 578 -289 l 360 -289 l 408 -19 q 95 80 174 -19 q 47 360 16 182 q 193 640 77 532 q 540 738 300 738 l 596 1055 l 813 1055 m 640 64 q 785 140 722 64 q 878 360 854 226 q 861 591 906 525 q 743 655 815 655 l 640 64 m 423 64 l 526 655 q 385 591 454 655 q 288 360 317 525 q 304 140 265 226 q 423 64 339 64 "},"y":{"x_min":-22.90625,"x_max":797.6875,"ha":726,"o":"m 303 -185 l 130 639 l 59 639 l 74 721 l 339 721 l 485 23 q 602 263 554 136 q 695 637 649 390 l 608 637 l 622 720 l 797 720 q 760 521 782 633 q 638 118 706 246 q 316 -274 459 -213 q 118 -309 234 -309 q -22 -279 60 -309 l 3 -129 l 72 -129 q 70 -159 70 -145 q 98 -221 70 -206 q 137 -231 111 -227 q 166 -234 152 -234 q 303 -185 234 -234 "},"ⱨ":{"x_min":42.84375,"x_max":909.484375,"ha":909,"o":"m 514 205 l 560 465 q 569 545 569 513 q 561 592 569 575 q 495 628 546 628 q 390 574 430 628 q 329 405 350 521 l 259 0 l 42 0 l 213 974 l 116 974 l 131 1055 l 442 1055 l 367 619 q 472 712 417 683 q 603 741 527 741 q 756 669 712 741 q 784 550 784 623 q 775 458 784 508 l 719 141 q 718 127 718 134 q 759 93 718 93 q 806 110 792 93 q 831 161 820 128 l 909 161 q 870 46 893 85 q 864 -12 864 12 q 872 -68 864 -36 q 881 -140 881 -100 q 803 -257 881 -220 q 655 -301 725 -295 l 655 -246 q 727 -212 690 -246 q 764 -113 764 -179 q 786 -52 764 -81 q 808 -8 808 -23 q 800 6 808 4 q 632 -20 725 -20 q 506 95 540 -20 q 504 123 504 102 q 514 205 504 146 "},"‗":{"x_min":0,"x_max":625,"ha":624,"o":"m 625 -199 l 625 -328 l 0 -328 l 0 -199 l 625 -199 m 625 -13 l 625 -142 l 0 -142 l 0 -13 l 625 -13 "},"Ⴌ":{"x_min":-44.90625,"x_max":948.171875,"ha":1007,"o":"m 713 1176 q 784 1171 753 1176 q 836 1154 815 1167 q 868 1119 857 1142 q 879 1061 879 1097 q 871 996 879 1033 l 948 996 l 931 912 l 636 912 l 661 1040 q 662 1046 662 1043 q 663 1051 663 1048 q 650 1082 663 1071 q 619 1093 638 1093 l 459 1093 l 391 739 l 618 739 q 716 724 676 739 q 782 685 757 710 q 819 624 808 659 q 831 550 831 590 q 829 519 831 535 q 825 487 828 504 l 748 81 l 824 81 l 808 -1 l 437 -1 l 453 81 l 528 81 l 606 487 q 613 536 610 511 q 617 583 617 561 q 614 617 617 601 q 604 645 611 633 q 586 664 598 657 q 558 671 575 671 l 378 671 l 266 81 l 340 81 l 325 -1 l -44 -1 l -28 81 l 46 81 l 240 1092 l 164 1092 l 180 1176 l 713 1176 "},"ḓ":{"x_min":14,"x_max":846.421875,"ha":874,"o":"m 502 324 l 515 396 q 527 510 527 463 q 518 578 527 552 q 434 635 498 635 q 330 575 367 635 q 265 360 292 516 q 249 206 249 265 q 255 145 249 168 q 338 86 272 86 q 441 142 402 86 q 502 324 481 198 m 846 1055 l 661 0 l 446 0 l 462 91 q 373 7 424 35 q 253 -20 321 -20 q 54 81 115 -20 q 14 250 14 149 q 24 360 14 301 q 151 639 55 538 q 386 741 248 741 q 496 713 454 741 q 556 629 538 685 l 616 974 l 523 974 l 537 1055 l 846 1055 m 240 -79 l 387 -79 l 498 -333 l 398 -333 l 295 -181 l 138 -333 l 38 -333 l 240 -79 "},"⡗":{"x_min":183,"x_max":793,"ha":976,"o":"m 218 853 q 183 949 183 893 q 219 1045 183 1005 q 305 1085 255 1085 q 390 1045 354 1085 q 427 949 427 1005 q 391 853 427 893 q 304 814 355 814 q 218 853 254 814 m 218 492 q 183 588 183 532 q 219 684 183 644 q 305 724 255 724 q 390 684 354 724 q 427 588 427 644 q 391 492 427 532 q 304 453 355 453 q 218 492 254 453 m 218 129 q 183 225 183 169 q 219 321 183 281 q 305 361 255 361 q 390 321 354 361 q 427 225 427 281 q 391 129 427 169 q 304 90 355 90 q 218 129 254 90 m 584 492 q 549 588 549 532 q 585 684 549 644 q 671 724 621 724 q 756 684 720 724 q 793 588 793 644 q 757 492 793 532 q 671 453 721 453 q 584 492 620 453 m 218 -231 q 183 -135 183 -191 q 219 -39 183 -79 q 305 0 255 0 q 390 -39 354 0 q 427 -135 427 -79 q 391 -231 427 -191 q 304 -271 355 -271 q 218 -231 254 -271 "},"ƅ":{"x_min":-61.03125,"x_max":807.4375,"ha":873,"o":"m 304 324 q 301 142 282 198 q 385 86 320 86 q 489 145 451 86 q 554 360 526 205 q 564 574 581 515 q 481 634 547 634 q 377 577 416 634 q 316 395 339 521 l 304 324 m 29 683 l 44 764 l 432 1055 l 357 628 q 445 712 394 685 q 565 740 497 740 q 765 638 703 740 q 797 360 828 537 q 668 81 766 183 q 432 -20 571 -20 q 322 7 364 -20 q 263 91 281 35 l 247 0 l -61 0 l -46 82 l 46 82 l 150 683 l 29 683 "},"ë":{"x_min":41,"x_max":743.8125,"ha":795,"o":"m 525 564 q 448 664 525 664 q 356 603 391 664 q 291 352 322 542 q 304 352 291 352 q 520 516 491 352 q 525 564 525 542 m 277 281 q 273 206 273 256 q 398 56 273 56 q 520 98 469 56 q 596 218 571 139 l 697 218 q 561 37 649 95 q 332 -20 473 -20 q 91 78 164 -20 q 41 256 41 147 q 51 358 41 303 q 192 640 82 539 q 463 740 302 740 q 660 690 579 740 q 742 548 742 639 q 737 510 742 529 q 277 281 699 281 m 289 995 q 327 1065 296 1036 q 396 1095 359 1095 q 454 1065 433 1095 q 467 995 475 1036 q 429 925 460 955 q 362 896 398 896 q 303 925 325 896 q 289 995 282 955 m 562 995 q 600 1065 569 1036 q 668 1095 632 1095 q 727 1065 705 1095 q 741 995 749 1036 q 703 925 735 955 q 634 896 671 896 q 576 925 598 896 q 562 995 555 955 "},"б":{"x_min":49,"x_max":869.234375,"ha":903,"o":"m 49 280 q 54 364 49 319 l 69 485 q 82 583 76 545 q 170 819 107 721 q 356 1002 258 956 q 633 1049 454 1049 q 758 1069 729 1049 q 789 1092 787 1090 l 869 1092 q 760 960 857 1040 q 628 904 707 916 q 361 854 418 874 q 240 762 303 834 q 178 618 206 724 q 477 740 295 740 q 738 640 659 740 q 796 454 796 567 q 787 360 796 410 q 640 81 755 182 q 354 -20 525 -20 q 107 77 182 -20 q 49 280 49 152 m 276 197 q 282 122 276 145 q 367 56 298 56 q 475 121 436 56 q 539 330 514 186 q 565 524 565 474 q 559 599 565 576 q 474 664 543 664 q 365 598 405 664 q 300 391 325 533 q 276 197 276 249 "},"Ẏ":{"x_min":63.0625,"x_max":992.15625,"ha":892,"o":"m 499 1139 q 485 1209 478 1168 q 524 1279 493 1249 q 592 1309 556 1309 q 651 1279 629 1309 q 664 1209 672 1249 q 625 1139 657 1168 q 558 1110 594 1110 q 499 1139 521 1110 m 126 0 l 140 82 l 263 82 l 322 419 l 141 931 l 63 931 l 77 1013 l 514 1013 l 500 931 l 398 931 l 536 544 l 807 931 l 716 931 l 731 1013 l 992 1013 l 977 931 l 900 931 l 564 454 l 499 82 l 621 82 l 607 0 l 126 0 "},"⇈":{"x_min":-5.859375,"x_max":1052.859375,"ha":1047,"o":"m 316 0 l 182 0 l 182 803 l -5 714 l -5 750 l 246 1033 l 252 1033 l 503 750 l 503 714 l 316 803 l 316 0 m 865 0 l 731 0 l 731 803 l 543 714 l 543 750 l 795 1033 l 801 1033 l 1052 750 l 1052 714 l 865 803 l 865 0 "},"ṝ":{"x_min":56.34375,"x_max":734.109375,"ha":659,"o":"m 734 729 l 696 514 l 626 514 q 629 540 629 528 q 614 599 629 578 q 548 628 594 628 q 424 558 477 628 q 350 366 371 489 l 285 0 l 69 0 l 181 639 l 82 639 l 97 721 l 411 721 l 389 592 q 493 704 434 668 q 626 741 551 741 q 672 737 645 741 q 734 729 699 734 m 57 -196 q 96 -126 65 -155 q 164 -97 127 -97 q 223 -126 201 -97 q 237 -196 244 -155 q 199 -266 230 -236 q 130 -296 167 -296 q 72 -266 93 -296 q 57 -196 51 -236 m 309 1051 l 693 1051 l 671 923 l 287 923 l 309 1051 "},"ӌ":{"x_min":91.546875,"x_max":935.875,"ha":915,"o":"m 809 0 l 598 0 l 558 -225 l 347 -225 l 400 82 l 515 82 l 548 271 l 427 271 l 413 271 q 213 309 275 271 q 179 335 190 324 q 149 444 136 373 l 183 639 l 91 639 l 105 721 l 493 721 l 478 639 l 399 639 l 363 434 q 368 373 355 389 q 401 356 377 361 l 429 354 l 562 354 l 612 639 l 533 639 l 547 721 l 935 721 l 921 639 l 828 639 l 731 82 l 823 82 l 809 0 "},"☻":{"x_min":104,"x_max":1017,"ha":1121,"o":"m 104 506 q 237 866 104 717 q 560 1015 371 1015 q 883 866 750 1015 q 1017 506 1017 717 q 883 147 1017 295 q 560 0 750 0 q 237 147 371 0 q 104 506 104 295 m 344 502 l 303 502 q 556 212 303 212 q 818 504 818 212 l 775 504 q 560 293 716 293 q 344 502 420 293 m 824 695 q 743 796 824 789 q 655 695 655 796 q 738 602 655 602 q 824 695 824 602 m 468 697 q 387 796 468 789 q 299 695 299 796 q 381 602 299 602 q 468 697 468 602 "},"‐":{"x_min":51.546875,"x_max":467.265625,"ha":519,"o":"m 84 464 l 467 464 l 434 281 l 51 281 l 84 464 "},"":{"x_min":-4.65625,"x_max":878.53125,"ha":914,"o":"m 770 336 q 708 188 752 254 q 604 76 664 122 q 472 4 545 29 q 323 -20 399 -20 q 236 -10 279 -20 q 153 15 192 -1 q 81 58 113 32 q 27 117 48 84 q -1 191 6 151 q 1 279 -9 232 q 41 368 11 326 q 112 445 70 410 q 202 504 153 480 q 302 541 251 529 l 318 474 q 281 439 296 458 q 255 395 266 419 q 235 341 243 370 q 219 277 227 312 q 211 185 206 221 q 235 126 217 148 q 283 96 254 104 q 346 88 312 88 q 411 98 381 88 q 467 139 441 109 q 514 220 493 168 q 554 353 536 272 q 570 470 570 422 q 555 547 570 517 q 516 589 541 576 q 460 603 491 603 l 411 603 l 435 707 l 489 707 q 534 717 510 707 q 579 753 557 728 q 622 822 602 778 q 657 932 643 865 q 666 1006 666 973 q 654 1062 666 1039 q 620 1098 642 1085 q 563 1111 597 1111 q 500 1107 532 1111 q 440 1088 467 1104 q 389 1040 412 1072 q 354 951 367 1008 q 361 904 347 920 q 407 880 375 887 l 296 753 q 243 783 265 766 q 207 821 220 799 q 195 873 195 844 q 203 943 195 903 q 256 1063 219 1011 q 345 1149 293 1114 q 460 1200 397 1183 q 590 1218 523 1218 q 668 1211 629 1218 q 742 1189 707 1204 q 806 1153 777 1175 q 852 1100 834 1131 q 876 1031 870 1070 q 872 943 882 992 q 827 831 857 878 q 758 752 796 785 q 677 699 720 720 q 594 663 634 677 q 679 626 639 649 q 745 565 719 602 q 779 471 771 527 q 770 336 787 416 "},"ⅷ":{"x_min":25.96875,"x_max":2096,"ha":2150,"o":"m 910 924 q 960 1017 920 979 q 1050 1055 1001 1055 q 1125 1017 1098 1055 q 1146 951 1146 989 q 1143 924 1146 939 q 1093 833 1134 871 q 1005 796 1053 796 q 928 833 956 796 q 908 898 908 861 q 910 924 908 911 m 999 82 l 1091 82 l 1077 0 l 768 0 l 880 639 l 788 639 l 802 721 l 1110 721 l 999 82 m 1384 924 q 1434 1017 1394 979 q 1525 1055 1475 1055 q 1600 1017 1573 1055 q 1621 951 1621 989 q 1618 924 1621 939 q 1568 833 1609 871 q 1479 796 1527 796 q 1403 833 1430 796 q 1382 898 1382 861 q 1384 924 1382 911 m 1473 82 l 1566 82 l 1551 0 l 1242 0 l 1354 639 l 1262 639 l 1276 721 l 1585 721 l 1473 82 m 1859 924 q 1909 1017 1869 979 q 2000 1055 1950 1055 q 2075 1017 2048 1055 q 2096 951 2096 989 q 2093 924 2096 939 q 2043 833 2084 871 q 1954 796 2002 796 q 1878 833 1905 796 q 1857 898 1857 861 q 1859 924 1857 911 m 1948 82 l 2041 82 l 2026 0 l 1717 0 l 1829 639 l 1737 639 l 1751 721 l 2060 721 l 1948 82 m 388 0 l 215 0 l 97 639 l 25 639 l 40 721 l 304 721 l 403 183 q 517 328 419 183 q 647 639 607 466 l 575 639 l 590 722 l 736 722 q 613 326 736 552 q 388 0 497 111 "},"⥩":{"x_min":43,"x_max":1005,"ha":1048,"o":"m 43 388 l 976 388 l 976 239 l 315 239 l 393 30 l 362 30 l 43 381 l 43 388 m 1005 659 l 1005 652 l 795 421 l 700 421 l 733 510 l 72 510 l 72 659 l 1005 659 "},"ʋ":{"x_min":91.546875,"x_max":820.265625,"ha":867,"o":"m 380 -1 q 113 236 71 -1 l 183 639 l 91 639 l 105 721 l 414 721 l 328 235 q 395 82 302 82 q 508 158 457 82 q 581 359 559 234 q 586 533 600 468 q 553 634 568 615 l 558 664 l 637 664 q 784 533 737 620 q 815 348 832 445 q 760 208 802 275 q 654 92 719 141 q 525 23 596 47 q 380 -1 455 -1 "},"ц":{"x_min":79.359375,"x_max":935.171875,"ha":1004,"o":"m 79 639 l 93 721 l 402 721 l 328 299 q 314 178 314 216 q 329 111 314 130 q 391 93 344 93 q 551 316 511 93 l 621 721 l 838 721 l 737 141 q 735 127 735 134 q 783 93 735 93 q 832 110 818 93 q 856 161 845 128 l 935 161 q 895 46 918 85 q 889 -12 889 12 q 897 -68 889 -36 q 906 -140 906 -100 q 828 -257 906 -220 q 680 -301 750 -295 l 680 -246 q 752 -212 716 -246 q 789 -113 789 -179 q 811 -52 789 -81 q 833 -8 833 -23 q 826 6 833 4 q 657 -20 750 -20 q 513 101 564 -20 q 408 8 463 37 q 278 -20 353 -20 q 132 38 168 -20 q 97 154 97 97 q 106 262 97 209 l 172 639 l 79 639 "},"ⴒ":{"x_min":37.875,"x_max":817.859375,"ha":806,"o":"m 611 544 q 620 584 617 563 q 609 632 625 628 q 514 620 561 626 q 417 609 466 614 q 331 342 373 472 q 246 74 290 211 q 339 87 292 80 q 432 100 385 93 l 430 100 q 501 199 478 108 l 611 544 m 674 192 q 605 83 649 123 q 502 36 560 44 q 430 27 465 32 q 361 19 396 23 q 292 11 327 15 q 221 2 258 7 q 214 -46 217 -21 q 208 -95 210 -71 q 289 -201 194 -201 l 457 -201 l 444 -301 l 283 -301 q 40 -102 14 -301 l 56 21 l 243 612 q 225 612 234 612 q 206 612 215 612 q 188 612 196 612 q 173 612 179 612 l 181 676 l 263 676 q 268 695 265 684 q 273 713 271 705 l 449 713 l 437 680 q 558 697 497 688 q 678 713 618 705 q 718 716 698 716 q 817 647 826 716 q 807 614 815 636 l 808 615 l 674 192 "},"⡐":{"x_min":183,"x_max":793,"ha":976,"o":"m 584 492 q 549 588 549 532 q 585 684 549 644 q 671 724 621 724 q 756 684 720 724 q 793 588 793 644 q 757 492 793 532 q 671 453 721 453 q 584 492 620 453 m 218 -231 q 183 -135 183 -191 q 219 -39 183 -79 q 305 0 255 0 q 390 -39 354 0 q 427 -135 427 -79 q 391 -231 427 -191 q 304 -271 355 -271 q 218 -231 254 -271 "},"w":{"x_min":37.984375,"x_max":1112.203125,"ha":1076,"o":"m 803 203 q 895 326 809 208 q 1016 638 981 450 l 931 638 l 946 721 l 1112 721 q 1000 328 1077 461 q 765 0 882 122 l 617 0 l 558 451 l 341 0 l 193 0 l 108 639 l 37 639 l 52 721 l 318 721 l 380 248 l 608 721 l 737 721 l 803 203 "},"о":{"x_min":43,"x_max":793,"ha":834,"o":"m 364 56 q 472 121 433 56 q 541 360 511 186 q 562 541 562 474 q 555 599 562 576 q 471 664 540 664 q 362 598 401 664 q 292 360 323 533 q 273 182 273 249 q 279 122 273 145 q 364 56 295 56 m 637 81 q 351 -20 522 -20 q 99 81 179 -20 q 43 267 43 154 q 51 360 43 310 q 197 639 83 539 q 484 740 312 740 q 736 640 656 740 q 793 454 793 567 q 784 360 793 410 q 637 81 752 182 "},"𝜾":{"x_min":92.90625,"x_max":515.40625,"ha":604,"o":"m 497 22 q 187 30 292 -53 q 114 236 91 107 l 184 639 l 92 639 l 107 721 l 415 721 l 330 234 q 378 82 303 82 q 515 127 452 82 l 497 22 "},"𝒋":{"x_min":-206.90625,"x_max":442,"ha":451,"o":"m 205 924 q 255 1017 215 979 q 346 1055 296 1055 q 421 1017 393 1055 q 442 951 442 988 q 439 924 442 939 q 389 833 429 871 q 300 796 348 796 q 223 833 251 796 q 203 898 203 861 q 205 924 203 911 m 180 639 l 88 639 l 102 721 l 410 721 l 270 -85 q 170 -252 250 -195 q -47 -309 90 -309 q -124 -302 -84 -309 q -206 -282 -164 -295 l -179 -130 l -111 -130 q -114 -166 -114 -150 q -105 -207 -114 -193 q -51 -232 -91 -232 q 16 -200 -6 -232 q 53 -85 39 -168 l 180 639 "},"⊥":{"x_min":132,"x_max":1067,"ha":1199,"o":"m 132 0 l 132 152 l 525 152 l 525 956 l 674 956 l 674 152 l 1067 152 l 1067 0 l 132 0 "},"Д":{"x_min":-48.921875,"x_max":1135.0625,"ha":1111,"o":"m 248 97 q 263 82 246 82 l 621 82 l 767 920 l 447 920 l 414 732 q 256 120 341 316 q 248 97 248 101 m -48 -218 l 3 82 l 69 82 q 233 297 164 82 q 328 732 275 426 l 363 931 l 246 931 l 260 1013 l 1135 1013 l 1120 931 l 1004 931 l 856 82 l 998 82 l 945 -218 l 876 -218 l 876 -77 q 821 0 876 0 l 144 0 q 58 -96 84 0 q 25 -218 25 -216 l -48 -218 "},"⊄":{"x_min":132,"x_max":915,"ha":1047,"o":"m 915 871 l 915 715 l 757 715 l 574 156 l 915 156 l 915 0 l 523 0 l 523 0 l 460 -191 l 328 -138 l 382 28 q 327 58 354 40 q 184 217 236 116 q 132 435 132 317 q 184 653 132 553 q 327 812 237 754 q 523 871 417 871 l 659 871 l 722 1062 l 853 1009 l 808 871 l 915 871 m 430 175 l 607 715 l 523 715 q 397 677 456 715 q 305 575 339 639 q 272 435 272 510 q 305 295 272 360 q 398 193 339 231 q 430 175 414 183 "},"↙":{"x_min":185,"x_max":890.96875,"ha":1047,"o":"m 796 857 l 890 751 l 380 184 l 568 98 l 546 73 l 188 73 l 185 77 l 185 474 l 208 499 l 284 290 l 796 857 "},"⠦":{"x_min":183,"x_max":793,"ha":976,"o":"m 218 491 q 183 587 183 531 q 219 683 183 643 q 305 723 255 723 q 390 683 354 723 q 427 587 427 643 q 391 491 427 531 q 304 452 355 452 q 218 491 254 452 m 218 129 q 183 225 183 169 q 219 321 183 281 q 305 361 255 361 q 390 321 354 361 q 427 225 427 281 q 391 129 427 169 q 304 90 355 90 q 218 129 254 90 m 584 129 q 549 225 549 169 q 585 321 549 281 q 671 361 621 361 q 756 321 720 361 q 793 225 793 281 q 757 129 793 169 q 671 90 721 90 q 584 129 620 90 "},"Ӂ":{"x_min":-74.96875,"x_max":1655.71875,"ha":1640,"o":"m 768 1288 l 842 1288 q 879 1230 848 1250 q 961 1211 909 1211 q 1050 1230 1012 1211 q 1107 1288 1088 1251 l 1182 1288 q 1089 1153 1149 1199 q 942 1109 1028 1109 q 811 1153 854 1109 q 768 1288 768 1197 m -74 0 l -61 82 l 28 82 l 504 626 l 270 931 l 149 931 l 163 1013 l 503 1013 l 489 931 l 391 931 l 706 522 l 778 931 l 661 931 l 675 1013 l 1143 1013 l 1129 931 l 1012 931 l 941 522 l 1399 931 l 1301 931 l 1315 1013 l 1655 1013 l 1641 931 l 1520 931 l 1181 626 l 1464 82 l 1554 82 l 1540 0 l 1071 0 l 1085 82 l 1187 82 l 1010 473 l 918 391 l 864 82 l 980 82 l 966 0 l 498 0 l 512 82 l 628 82 l 683 391 l 620 473 l 304 82 l 407 82 l 393 0 l -74 0 "},"Ḁ":{"x_min":-97.65625,"x_max":910.109375,"ha":970,"o":"m -97 0 l -83 82 l -8 82 l 497 1012 l 642 1012 l 823 82 l 910 82 l 895 0 l 469 0 l 483 82 l 573 82 l 533 289 l 191 289 l 79 82 l 187 82 l 173 0 l -97 0 m 236 371 l 518 371 l 445 758 l 236 371 m 384 -173 q 376 -131 388 -148 q 341 -114 363 -114 q 299 -130 317 -114 q 276 -173 281 -147 q 284 -215 272 -198 q 320 -233 297 -233 q 361 -215 342 -233 q 384 -173 379 -198 m 474 -173 q 412 -287 462 -241 q 302 -334 362 -334 q 208 -287 242 -334 q 187 -173 175 -241 q 248 -61 198 -107 q 358 -15 298 -15 q 452 -61 419 -15 q 474 -173 485 -107 "},"◜":{"x_min":3,"x_max":480,"ha":483,"o":"m 3 361 q 241 819 3 666 q 480 896 361 896 l 480 816 q 277 750 378 816 q 75 361 75 620 l 3 361 "},"◎":{"x_min":68,"x_max":1022,"ha":1090,"o":"m 474 495 q 405 361 405 450 q 474 226 405 271 q 545 204 510 204 q 614 226 580 204 q 685 361 685 271 q 614 495 685 450 q 545 518 580 518 q 474 495 510 518 m 437 154 q 330 360 330 223 q 437 567 330 498 q 544 602 490 602 q 651 567 598 602 q 760 360 760 498 q 651 154 760 223 q 544 120 598 120 q 437 154 490 120 m 341 750 q 139 361 139 620 q 341 -28 139 101 q 544 -94 443 -94 q 747 -28 646 -94 q 950 361 950 101 q 747 750 950 620 q 544 816 646 816 q 341 750 443 816 m 306 -97 q 68 361 68 55 q 306 819 68 666 q 544 896 425 896 q 783 819 664 896 q 1022 361 1022 666 q 783 -97 1022 55 q 544 -174 664 -174 q 306 -97 425 -174 "},"Ĵ":{"x_min":-196.671875,"x_max":658.5,"ha":591,"o":"m 339 1288 l 526 1288 l 631 1109 l 531 1109 l 421 1218 l 271 1109 l 171 1109 l 339 1288 m -196 -242 l -168 -83 l -89 -83 q -78 -177 -96 -147 q -14 -207 -60 -207 q 77 -156 45 -207 q 134 33 109 -105 l 290 931 l 158 931 l 172 1013 l 658 1013 l 644 931 l 527 931 l 369 28 q 252 -212 340 -136 q 1 -289 164 -289 q -98 -277 -48 -289 q -196 -242 -147 -265 "},"Ҕ":{"x_min":-29.15625,"x_max":960.28125,"ha":1067,"o":"m 413 512 l 337 82 l 481 82 l 467 0 l -29 0 l -14 82 l 101 82 l 250 931 l 133 931 l 147 1013 l 960 1013 l 918 774 l 834 774 l 860 920 l 484 920 l 427 594 l 665 594 q 889 512 813 594 q 941 296 965 431 l 899 52 q 878 -36 891 6 q 776 -221 838 -167 q 530 -297 688 -297 q 430 -285 479 -297 q 332 -250 381 -273 l 360 -91 l 439 -91 q 450 -185 432 -155 q 514 -215 468 -215 q 606 -163 573 -215 l 611 -155 q 668 58 641 -96 l 710 296 q 690 453 727 394 q 574 512 653 512 l 413 512 "},"⥥":{"x_min":146.140625,"x_max":899.859375,"ha":1046,"o":"m 578 -32 l 578 1005 l 712 1005 l 712 269 l 899 357 l 899 322 l 584 -32 l 578 -32 m 468 -32 l 461 -32 l 146 322 l 146 357 l 334 269 l 334 1005 l 468 1005 l 468 -32 "},"г":{"x_min":70,"x_max":691,"ha":703,"o":"m 70 146 q 155 332 70 262 q 402 486 222 387 q 490 597 490 533 q 420 664 490 664 q 137 503 284 664 l 90 562 q 255 704 177 667 q 452 741 334 741 q 630 692 570 741 q 691 575 691 644 q 599 367 691 444 q 326 198 508 289 q 271 125 271 170 q 342 56 271 56 q 599 177 491 56 l 630 218 l 677 159 q 317 -20 557 -20 q 139 32 208 -20 q 70 146 70 85 "},"𝒀":{"x_min":63.0625,"x_max":992.15625,"ha":892,"o":"m 126 0 l 140 82 l 263 82 l 322 419 l 141 931 l 63 931 l 77 1013 l 514 1013 l 500 931 l 398 931 l 536 544 l 807 931 l 716 931 l 731 1013 l 992 1013 l 977 931 l 900 931 l 564 454 l 499 82 l 621 82 l 607 0 l 126 0 "},"⡦":{"x_min":183,"x_max":793,"ha":976,"o":"m 218 492 q 183 588 183 532 q 219 684 183 644 q 305 724 255 724 q 390 684 354 724 q 427 588 427 644 q 391 492 427 532 q 304 453 355 453 q 218 492 254 453 m 218 129 q 183 225 183 169 q 219 321 183 281 q 305 361 255 361 q 390 321 354 361 q 427 225 427 281 q 391 129 427 169 q 304 90 355 90 q 218 129 254 90 m 584 129 q 549 225 549 169 q 585 321 549 281 q 671 361 621 361 q 756 321 720 361 q 793 225 793 281 q 757 129 793 169 q 671 90 721 90 q 584 129 620 90 m 218 -231 q 183 -135 183 -191 q 219 -39 183 -79 q 305 0 255 0 q 390 -39 354 0 q 427 -135 427 -79 q 391 -231 427 -191 q 304 -271 355 -271 q 218 -231 254 -271 "},"Ŀ":{"x_min":-29.15625,"x_max":891.03125,"ha":879,"o":"m 674 510 q 656 601 646 548 q 705 692 665 654 q 794 730 746 730 q 870 692 842 730 q 888 601 897 654 q 838 510 879 548 q 749 473 797 473 q 674 510 701 473 m -29 0 l -14 82 l 101 82 l 250 931 l 133 931 l 147 1013 l 616 1013 l 602 931 l 484 931 l 338 92 l 697 92 l 725 252 l 807 252 l 763 0 l -29 0 "},"𝜻":{"x_min":37.828125,"x_max":794.421875,"ha":740,"o":"m 613 973 l 219 973 l 199 859 l 125 859 l 159 1055 l 794 1055 l 780 973 q 368 603 475 793 q 287 360 312 503 q 284 126 259 197 q 393 56 309 56 q 593 -100 593 56 q 503 -238 593 -175 q 293 -290 429 -290 l 306 -217 q 447 -110 427 -217 q 344 -20 464 -20 q 93 79 171 -20 q 47 360 15 179 q 191 647 71 500 q 613 973 340 833 "},"ᾙ":{"x_min":81.375,"x_max":1399.734375,"ha":1367,"o":"m 156 0 l 170 82 l 287 82 l 436 931 l 319 931 l 333 1013 l 802 1013 l 788 931 l 670 931 l 611 590 l 973 590 l 1033 931 l 916 931 l 931 1013 l 1399 1013 l 1385 931 l 1268 931 l 1119 82 l 1236 82 l 1222 0 l 754 0 l 768 82 l 885 82 l 957 497 l 594 497 l 522 82 l 639 82 l 625 0 l 156 0 m 173 973 q 217 861 183 892 l 151 829 q 86 954 105 909 q 86 1041 75 981 q 128 1124 93 1079 q 206 1162 164 1162 q 265 1133 246 1162 q 279 1063 285 1100 q 240 994 271 1021 q 173 973 210 967 m 767 -277 l 721 -288 q 603 -171 577 -322 l 619 -83 l 739 -83 l 722 -180 q 743 -234 711 -243 l 776 -225 l 767 -277 "},"⡳":{"x_min":183,"x_max":793,"ha":976,"o":"m 218 853 q 183 949 183 893 q 219 1045 183 1005 q 305 1085 255 1085 q 390 1045 354 1085 q 427 949 427 1005 q 391 853 427 893 q 304 814 355 814 q 218 853 254 814 m 218 492 q 183 588 183 532 q 219 684 183 644 q 305 724 255 724 q 390 684 354 724 q 427 588 427 644 q 391 492 427 532 q 304 453 355 453 q 218 492 254 453 m 584 492 q 549 588 549 532 q 585 684 549 644 q 671 724 621 724 q 756 684 720 724 q 793 588 793 644 q 757 492 793 532 q 671 453 721 453 q 584 492 620 453 m 584 129 q 549 225 549 169 q 585 321 549 281 q 671 361 621 361 q 756 321 720 361 q 793 225 793 281 q 757 129 793 169 q 671 90 721 90 q 584 129 620 90 m 218 -231 q 183 -135 183 -191 q 219 -39 183 -79 q 305 0 255 0 q 390 -39 354 0 q 427 -135 427 -79 q 391 -231 427 -191 q 304 -271 355 -271 q 218 -231 254 -271 "},"∦":{"x_min":108,"x_max":859,"ha":967,"o":"m 542 460 l 425 331 l 425 -136 l 285 -136 l 285 175 l 207 89 l 108 199 l 285 396 l 285 1148 l 425 1148 l 425 552 l 542 681 l 542 1148 l 682 1148 l 682 837 l 759 923 l 859 813 l 682 616 l 682 -136 l 542 -136 l 542 460 "},"ʟ":{"x_min":14.921875,"x_max":718.1875,"ha":806,"o":"m 14 0 l 29 82 l 145 82 l 243 639 l 126 639 l 141 721 l 609 721 l 595 639 l 478 639 l 383 92 l 607 92 l 635 252 l 718 252 l 673 0 l 14 0 "},"Ǟ":{"x_min":-97.65625,"x_max":910.109375,"ha":970,"o":"m 463 1523 l 847 1523 l 825 1395 l 440 1395 l 463 1523 m -97 0 l -83 82 l -8 82 l 497 1012 l 642 1012 l 823 82 l 910 82 l 895 0 l 469 0 l 483 82 l 573 82 l 533 289 l 191 289 l 79 82 l 187 82 l 173 0 l -97 0 m 236 371 l 518 371 l 445 758 l 236 371 m 390 1134 q 375 1204 368 1163 q 415 1274 383 1244 q 482 1304 446 1304 q 540 1274 519 1304 q 554 1204 561 1244 q 516 1134 547 1163 q 448 1105 485 1105 q 390 1134 412 1105 m 662 1134 q 648 1204 641 1163 q 687 1274 655 1244 q 755 1304 718 1304 q 813 1274 792 1304 q 828 1204 836 1244 q 789 1134 821 1163 q 720 1105 757 1105 q 662 1134 684 1105 "},"Җ":{"x_min":-75.25,"x_max":1655.4375,"ha":1640,"o":"m -75 0 l -61 82 l 28 82 l 503 626 l 270 930 l 149 930 l 162 1012 l 503 1012 l 488 930 l 391 930 l 706 521 l 777 930 l 661 930 l 674 1012 l 1143 1012 l 1129 930 l 1012 930 l 941 521 l 1399 930 l 1301 930 l 1315 1012 l 1655 1012 l 1641 930 l 1519 930 l 1180 626 l 1464 82 l 1554 82 l 1502 -218 l 1433 -218 l 1433 -77 q 1382 0 1433 0 l 1071 0 l 1085 82 l 1188 82 l 1009 473 l 918 391 l 864 82 l 980 82 l 966 0 l 498 0 l 512 82 l 629 82 l 682 391 l 620 473 l 305 82 l 407 82 l 393 0 l -75 0 "},"€":{"x_min":-29.96875,"x_max":870.96875,"ha":870,"o":"m 774 289 q 631 58 724 137 q 411 -20 539 -20 q 171 79 256 -20 q 86 359 86 178 l -29 359 l 16 440 l 90 440 q 91 454 91 444 q 99 505 96 490 q 110 560 101 522 q 112 571 112 566 l 7 571 l 53 652 l 137 652 q 320 931 200 832 q 594 1030 440 1030 q 727 1009 660 1030 q 870 942 794 988 l 827 694 l 755 694 q 721 888 755 826 q 617 951 687 951 q 479 877 537 951 q 380 652 421 803 l 668 652 l 620 571 l 362 571 q 352 524 355 541 q 346 494 348 507 q 343 473 346 492 q 339 440 341 455 l 545 440 l 498 359 l 330 359 q 348 133 316 208 q 461 59 381 59 q 584 117 529 59 q 674 289 639 176 l 774 289 "},"⤍":{"x_min":71,"x_max":1001,"ha":1047,"o":"m 71 374 l 71 523 l 407 523 l 407 374 l 71 374 m 517 374 l 517 523 l 793 523 l 714 731 l 746 731 l 1001 451 l 1001 445 l 746 165 l 714 165 l 793 374 l 517 374 "},"Ἀ":{"x_min":-97.65625,"x_max":910.109375,"ha":970,"o":"m -97 0 l -83 82 l -8 82 l 497 1012 l 642 1012 l 823 82 l 910 82 l 895 0 l 469 0 l 483 82 l 573 82 l 533 289 l 191 289 l 79 82 l 187 82 l 173 0 l -97 0 m 236 371 l 518 371 l 445 758 l 236 371 m 299 973 q 239 993 260 967 q 225 1063 217 1021 q 263 1133 231 1100 q 332 1162 292 1162 q 396 1124 374 1162 q 410 1041 416 1079 q 379 954 399 981 q 270 828 345 909 l 215 860 q 299 973 260 891 "},"С":{"x_min":40.25,"x_max":982.390625,"ha":995,"o":"m 893 289 q 722 56 829 132 q 458 -20 616 -20 q 119 121 228 -20 q 51 505 9 262 q 253 889 94 748 q 642 1031 412 1031 q 808 1009 724 1031 q 982 943 892 987 l 938 694 l 861 694 q 808 885 861 821 q 653 949 756 949 q 436 840 520 949 q 313 505 353 731 q 319 170 273 279 q 499 62 365 62 q 657 118 590 62 q 771 289 725 174 l 893 289 "},"⨍":{"x_min":31,"x_max":732,"ha":762,"o":"m 222 -169 q 288 283 288 -169 q 288 355 288 325 l 125 355 l 125 515 l 310 515 q 367 898 310 771 q 585 1055 438 1055 q 691 1019 650 1055 q 732 925 732 983 q 706 855 732 882 q 642 828 681 828 q 583 854 603 828 q 564 931 564 881 q 558 964 564 957 q 541 972 553 972 q 474 519 474 972 l 474 515 l 643 515 l 643 355 l 459 355 q 450 137 459 210 q 414 -28 438 40 q 317 -197 376 -141 q 175 -254 256 -254 q 70 -218 110 -254 q 31 -124 31 -183 q 56 -53 31 -80 q 124 -27 82 -27 q 181 -51 161 -27 q 201 -121 201 -76 q 199 -137 201 -129 l 199 -139 q 205 -162 199 -156 q 222 -169 210 -169 "},"◓":{"x_min":68,"x_max":1022,"ha":1090,"o":"m 131 94 q 68 359 68 217 q 131 624 68 501 q 306 818 195 747 q 545 890 417 890 q 783 818 672 890 q 957 624 893 747 q 1022 359 1022 501 q 957 94 1022 217 q 783 -99 893 -28 q 545 -171 672 -171 q 306 -99 417 -171 q 131 94 195 -28 m 950 361 q 747 750 950 620 q 544 816 646 816 q 341 750 443 816 q 139 361 139 620 l 950 361 "},"Ӓ":{"x_min":-75.953125,"x_max":931.796875,"ha":1018,"o":"m -75 0 l -61 82 l 12 82 l 518 1012 l 664 1012 l 845 82 l 931 82 l 917 0 l 491 0 l 505 82 l 594 82 l 555 289 l 212 289 l 101 82 l 209 82 l 195 0 l -75 0 m 257 371 l 539 371 l 467 758 l 257 371 m 411 1134 q 397 1204 389 1163 q 436 1274 404 1244 q 504 1304 467 1304 q 562 1274 541 1304 q 576 1204 583 1244 q 537 1134 568 1163 q 470 1105 507 1105 q 411 1134 434 1105 m 684 1134 q 670 1204 663 1163 q 709 1274 677 1244 q 777 1304 740 1304 q 835 1274 813 1304 q 850 1204 857 1244 q 811 1134 842 1163 q 742 1105 779 1105 q 684 1134 705 1105 "},"◭":{"x_min":3.25,"x_max":957.4375,"ha":961,"o":"m 480 -94 l 853 -94 l 480 737 l 480 -94 m 3 -171 l 480 892 l 957 -171 l 3 -171 "},"ᵄ":{"x_min":82.734375,"x_max":532.75,"ha":582,"o":"m 101 617 l 141 815 l 82 815 l 92 860 l 286 860 l 276 809 q 345 856 309 841 q 424 872 381 872 q 514 839 486 872 q 528 745 541 806 q 460 645 515 678 q 307 612 405 612 l 236 612 l 232 589 q 241 517 222 540 q 309 494 260 494 q 375 510 350 494 q 417 564 400 526 l 461 564 l 444 477 q 364 459 404 465 q 280 453 324 453 q 127 492 170 453 q 101 617 84 532 m 261 736 l 246 657 l 297 657 q 359 676 335 657 q 391 734 383 696 q 388 790 399 771 q 346 809 377 809 q 291 789 314 809 q 261 736 268 769 "},"⣶":{"x_min":183,"x_max":793,"ha":976,"o":"m 218 492 q 183 588 183 532 q 219 684 183 644 q 305 724 255 724 q 390 684 354 724 q 427 588 427 644 q 391 492 427 532 q 304 453 355 453 q 218 492 254 453 m 218 129 q 183 225 183 169 q 219 321 183 281 q 305 361 255 361 q 390 321 354 361 q 427 225 427 281 q 391 129 427 169 q 304 90 355 90 q 218 129 254 90 m 584 492 q 549 588 549 532 q 585 684 549 644 q 671 724 621 724 q 756 684 720 724 q 793 588 793 644 q 757 492 793 532 q 671 453 721 453 q 584 492 620 453 m 584 129 q 549 225 549 169 q 585 321 549 281 q 671 361 621 361 q 756 321 720 361 q 793 225 793 281 q 757 129 793 169 q 671 90 721 90 q 584 129 620 90 m 218 -231 q 183 -135 183 -191 q 219 -39 183 -79 q 305 0 255 0 q 390 -39 354 0 q 427 -135 427 -79 q 391 -231 427 -191 q 304 -271 355 -271 q 218 -231 254 -271 m 584 -231 q 549 -135 549 -191 q 585 -39 549 -79 q 671 0 621 0 q 756 -39 720 0 q 793 -135 793 -79 q 757 -231 793 -191 q 671 -271 721 -271 q 584 -231 620 -271 "},"Ὕ":{"x_min":74.59375,"x_max":1515.703125,"ha":1416,"o":"m 649 0 l 663 82 l 786 82 l 845 419 l 664 931 l 586 931 l 600 1013 l 1038 1013 l 1024 931 l 922 931 l 1059 544 l 1331 931 l 1240 931 l 1254 1013 l 1515 1013 l 1501 931 l 1424 931 l 1088 454 l 1023 82 l 1145 82 l 1131 0 l 649 0 m 458 1111 l 628 1111 l 356 856 l 255 856 l 458 1111 m 166 973 q 210 860 177 892 l 145 828 q 80 954 98 909 q 80 1041 69 981 q 122 1124 86 1079 q 200 1163 158 1163 q 258 1133 239 1163 q 272 1063 278 1100 q 233 994 265 1021 q 166 973 203 967 "},"ẳ":{"x_min":33.484375,"x_max":720.0625,"ha":810,"o":"m 511 593 q 476 634 511 634 q 314 525 394 634 q 247 308 277 475 q 241 134 226 182 q 316 86 257 86 q 408 142 372 86 q 465 324 443 198 l 511 593 m 720 698 l 612 83 l 694 83 l 679 0 l 408 0 l 424 91 q 238 -20 357 -20 q 68 66 120 -20 q 42 303 15 152 q 185 585 68 454 q 509 740 324 740 q 720 698 692 740 m 265 1077 l 342 1077 q 366 1001 336 1028 q 456 975 396 975 q 555 1001 516 975 q 606 1078 594 1028 l 683 1078 q 600 921 666 978 q 437 866 535 866 q 293 921 338 866 q 265 1077 249 976 m 565 1462 q 697 1370 697 1462 q 694 1342 697 1357 q 665 1269 688 1307 q 570 1189 628 1214 l 557 1115 l 443 1115 l 456 1189 q 555 1248 509 1215 q 590 1312 590 1274 q 577 1345 590 1335 q 524 1362 558 1362 q 419 1338 479 1362 l 438 1444 q 565 1462 505 1462 "},"♣":{"x_min":139,"x_max":980.21875,"ha":1120,"o":"m 561 1011 q 753 857 692 1011 q 762 784 762 822 q 690 596 762 705 l 653 556 l 655 556 q 751 575 700 575 l 763 575 q 966 438 907 575 q 980 352 980 393 q 853 143 980 213 q 785 131 828 135 q 576 317 637 131 l 574 317 l 574 310 q 625 4 574 78 l 625 0 l 497 0 l 493 4 q 546 316 546 90 l 546 319 l 543 319 q 333 131 482 131 q 154 267 217 131 q 139 352 139 313 q 289 566 139 510 q 360 575 329 575 l 366 575 q 466 556 418 575 l 468 556 l 468 558 q 399 653 417 606 q 363 782 363 727 l 363 792 q 493 998 363 928 q 561 1011 537 1011 "},"ᴹ":{"x_min":-21.703125,"x_max":891.109375,"ha":871,"o":"m -21 464 l -12 509 l 59 509 l 153 976 l 80 976 l 89 1021 l 326 1021 l 418 663 l 655 1021 l 891 1021 l 882 976 l 809 976 l 715 509 l 788 509 l 779 464 l 484 464 l 493 509 l 566 509 l 651 933 l 395 545 l 298 545 l 198 933 l 113 509 l 186 509 l 177 464 l -21 464 "},"¶":{"x_min":133.859375,"x_max":819.234375,"ha":795,"o":"m 480 1013 l 819 1013 l 804 928 l 735 928 l 550 -133 l 457 -133 l 642 928 l 543 928 l 357 -133 l 264 -133 l 364 440 q 177 526 236 451 q 139 726 118 601 q 255 934 162 855 q 480 1013 348 1013 "},"Ụ":{"x_min":118.671875,"x_max":1152.890625,"ha":1090,"o":"m 358 -196 q 396 -126 365 -155 q 464 -97 427 -97 q 523 -126 501 -97 q 537 -196 544 -155 q 499 -266 531 -236 q 430 -296 467 -296 q 372 -266 394 -296 q 358 -196 351 -236 m 234 931 l 118 931 l 132 1013 l 601 1013 l 587 931 l 470 931 l 382 424 q 388 159 349 235 q 557 84 428 84 q 749 160 683 84 q 848 424 815 236 l 937 931 l 821 931 l 835 1013 l 1152 1013 l 1138 931 l 1022 931 l 931 410 q 782 79 890 178 q 461 -19 674 -19 q 176 80 250 -19 q 143 411 103 180 l 234 931 "},"𝜰":{"x_min":63.0625,"x_max":992.15625,"ha":892,"o":"m 126 0 l 140 82 l 263 82 l 322 419 l 141 931 l 63 931 l 77 1013 l 514 1013 l 500 931 l 398 931 l 536 544 l 807 931 l 716 931 l 731 1013 l 992 1013 l 977 931 l 900 931 l 564 454 l 499 82 l 621 82 l 607 0 l 126 0 "},"­":{"x_min":51.546875,"x_max":467.265625,"ha":519,"o":"m 84 464 l 467 464 l 434 281 l 51 281 l 84 464 "},"ḳ":{"x_min":42.046875,"x_max":809.0625,"ha":866,"o":"m 257 0 l 42 0 l 212 974 l 120 974 l 134 1055 l 442 1055 l 324 377 l 631 639 l 554 639 l 568 721 l 743 721 l 729 639 l 533 472 l 738 82 l 809 82 l 794 0 l 556 0 l 377 339 l 306 279 l 257 0 m 242 -197 q 281 -127 250 -156 q 349 -98 312 -98 q 408 -127 385 -98 q 422 -197 429 -156 q 383 -267 415 -237 q 315 -297 351 -297 q 257 -267 278 -297 q 242 -197 236 -237 "},"ѫ":{"x_min":27.3125,"x_max":1276.65625,"ha":1262,"o":"m 583 340 l 570 340 q 467 260 490 322 q 338 24 389 52 q 170 -20 257 -20 q 48 10 83 -20 q 34 144 14 41 l 100 161 q 130 56 100 56 q 203 125 177 56 q 286 314 255 264 q 541 422 332 388 l 370 640 l 384 721 l 1129 721 l 1114 640 l 868 422 q 1085 314 1064 388 q 1101 125 1101 264 q 1150 56 1101 56 q 1216 161 1181 56 l 1276 144 q 1215 10 1260 41 q 1081 -20 1170 -20 q 929 24 995 -20 q 887 260 887 52 q 811 340 887 322 l 797 340 l 737 0 l 524 0 l 583 340 m 632 639 l 783 447 l 1000 639 l 632 639 "},"Ѝ":{"x_min":-29.15625,"x_max":1213.921875,"ha":1181,"o":"m 719 1288 l 798 1109 l 698 1109 l 549 1288 l 719 1288 m -29 0 l -14 82 l 101 82 l 250 931 l 133 931 l 147 1013 l 616 1013 l 602 931 l 485 931 l 389 383 l 834 858 l 847 931 l 731 931 l 745 1013 l 1213 1013 l 1199 931 l 1083 931 l 933 82 l 1051 82 l 1036 0 l 568 0 l 582 82 l 699 82 l 798 648 l 352 173 l 336 82 l 453 82 l 439 0 l -29 0 "},"̯":{"x_min":-539.140625,"x_max":-117.03125,"ha":0,"o":"m -121 -306 l -197 -306 q -221 -230 -192 -256 q -312 -204 -252 -204 q -411 -230 -373 -204 q -462 -306 -450 -256 l -539 -306 q -456 -150 -521 -206 q -293 -95 -391 -95 q -149 -149 -193 -95 q -121 -306 -105 -204 "},"⬌":{"x_min":46,"x_max":1001,"ha":1047,"o":"m 338 629 l 709 629 l 709 733 l 746 733 l 1001 452 l 1001 446 l 746 166 l 709 166 l 709 270 l 338 270 l 338 166 l 300 166 l 46 446 l 46 452 l 300 733 l 338 733 l 338 629 "},"ᶹ":{"x_min":82.734375,"x_max":542.671875,"ha":610,"o":"m 265 463 q 96 592 70 463 l 141 815 l 82 815 l 92 860 l 286 860 l 233 592 q 274 508 216 508 q 345 549 313 508 q 391 661 378 592 q 394 757 404 721 q 374 812 383 802 l 377 829 l 427 829 q 520 756 490 804 q 539 655 550 708 q 504 577 531 614 q 437 513 478 540 q 356 475 400 488 q 265 463 312 463 "},"ǲ":{"x_min":-29.15625,"x_max":1815.453125,"ha":1794,"o":"m 1801 640 l 1373 132 q 1411 112 1394 124 q 1537 66 1488 66 q 1720 164 1610 66 l 1701 57 q 1495 -55 1593 -55 q 1367 -10 1445 -55 q 1245 39 1279 39 q 1175 23 1211 39 q 1125 -1 1140 8 l 1065 -1 l 1079 82 l 1505 589 q 1468 608 1485 597 q 1343 655 1391 655 q 1160 556 1270 655 l 1178 663 q 1384 776 1287 776 q 1513 731 1435 776 q 1634 682 1600 682 q 1704 697 1668 682 q 1754 722 1740 713 l 1815 722 l 1801 640 m 336 82 l 421 82 q 648 183 564 82 q 771 507 732 285 q 761 829 809 728 q 569 931 713 931 l 484 931 l 336 82 m -29 0 l -14 82 l 101 82 l 250 931 l 133 931 l 147 1013 l 615 1013 q 967 882 860 1013 q 1032 507 1074 752 q 836 130 989 261 q 438 0 682 0 l -29 0 "},"𝑵":{"x_min":-33.234375,"x_max":1182.046875,"ha":1142,"o":"m -33 0 l -18 82 l 97 82 l 246 931 l 129 931 l 144 1013 l 429 1013 l 853 295 l 965 931 l 849 931 l 863 1013 l 1182 1013 l 1167 931 l 1051 931 l 888 0 l 728 0 l 297 732 l 183 82 l 299 82 l 285 0 l -33 0 "},"⤆":{"x_min":46.5,"x_max":976,"ha":1047,"o":"m 298 255 l 332 164 l 301 164 l 46 445 l 46 451 l 301 732 l 332 732 l 298 642 l 842 642 l 842 715 l 976 715 l 976 182 l 842 182 l 842 255 l 298 255 m 842 387 l 842 510 l 248 510 l 225 448 l 248 387 l 842 387 "},"Ƨ":{"x_min":38.65625,"x_max":870.8125,"ha":903,"o":"m 733 48 q 545 -3 636 13 q 366 -20 455 -20 q 99 59 181 -20 q 45 292 18 139 q 137 498 67 423 q 341 608 208 572 l 484 645 q 652 713 615 680 q 700 809 689 746 q 673 914 712 878 q 542 949 632 949 q 364 900 432 949 q 259 747 295 851 l 181 747 l 221 971 q 407 1016 319 1001 q 577 1031 497 1031 q 814 946 739 1031 q 863 712 890 863 q 775 520 842 587 q 569 415 710 452 l 426 377 q 276 314 316 348 q 226 219 237 280 q 255 102 212 142 q 392 62 297 62 q 584 118 509 62 q 698 289 660 174 l 775 289 l 733 48 "},"У":{"x_min":48.21875,"x_max":1090.5625,"ha":1014,"o":"m 228 -20 q 48 26 146 -20 l 76 185 l 156 185 q 154 139 154 167 q 169 87 154 112 q 249 62 185 62 q 393 128 350 62 l 412 158 l 183 930 l 106 930 l 120 1012 l 558 1012 l 543 930 l 440 930 l 588 432 l 906 930 l 815 930 l 829 1012 l 1090 1012 l 1076 930 l 998 930 l 485 128 q 438 66 459 89 q 228 -20 357 -20 "},"ᾢ":{"x_min":44.234375,"x_max":1148.421875,"ha":1190,"o":"m 119 91 q 54 215 84 128 q 52 380 34 274 q 152 588 73 499 q 346 720 231 676 l 425 720 l 419 691 q 351 588 398 674 q 290 391 313 519 q 288 161 264 237 q 364 82 315 82 q 468 262 437 82 l 509 498 l 726 498 l 684 262 q 726 82 653 82 q 829 161 775 82 q 907 391 880 237 q 916 588 929 519 q 883 691 899 674 l 889 721 l 967 721 q 1114 588 1066 676 q 1142 380 1163 499 q 1082 214 1123 274 q 975 91 1022 128 q 846 22 933 59 q 681 -2 793 -2 q 547 96 593 -2 q 379 -2 469 -2 q 223 22 277 -2 q 119 91 149 59 m 487 973 q 427 993 448 967 q 413 1063 406 1021 q 452 1133 420 1100 q 520 1163 480 1163 q 585 1124 562 1163 q 598 1041 604 1079 q 567 954 587 981 q 459 828 534 909 l 404 860 q 487 973 448 891 m 814 1110 l 926 856 l 826 856 l 644 1110 l 814 1110 m 614 -277 l 568 -288 q 450 -171 423 -322 l 465 -83 l 585 -83 l 568 -180 q 590 -234 558 -243 l 623 -225 l 614 -277 "},"ү":{"x_min":59,"x_max":785.3125,"ha":715,"o":"m 59 639 l 73 721 l 337 721 l 453 217 q 668 639 602 430 l 588 639 l 602 721 l 785 721 q 480 120 724 442 l 409 -288 l 193 -288 l 258 80 l 129 639 l 59 639 "},"Ί":{"x_min":52.890625,"x_max":846.359375,"ha":827,"o":"m 255 1111 l 425 1111 l 153 856 l 52 856 l 255 1111 m 200 0 l 214 82 l 331 82 l 480 931 l 363 931 l 377 1013 l 846 1013 l 832 931 l 714 931 l 566 82 l 683 82 l 669 0 l 200 0 "},"⇑":{"x_min":268.625,"x_max":778.6875,"ha":1047,"o":"m 350 752 l 268 714 l 268 750 l 521 1033 l 527 1033 l 778 750 l 778 714 l 698 752 l 698 0 l 579 0 l 579 808 l 524 834 l 469 808 l 469 0 l 350 0 l 350 752 "},"︄":{"x_min":0,"x_max":0,"ha":0},"⅓":{"x_min":35.265625,"x_max":1259.46875,"ha":1294,"o":"m 870 551 q 972 571 925 564 q 1057 578 1019 578 q 1218 542 1167 578 q 1257 438 1268 506 q 1210 358 1248 389 q 1109 315 1173 326 q 1211 266 1180 304 q 1232 166 1243 229 q 1147 41 1217 83 q 955 0 1078 0 q 859 7 906 0 q 765 29 811 14 l 789 165 l 847 165 q 864 83 842 110 q 933 57 885 57 q 1021 86 988 57 q 1064 170 1054 115 q 1049 254 1074 225 q 969 284 1024 284 l 944 284 l 954 341 l 972 341 q 1052 364 1022 341 q 1091 430 1083 387 q 1078 497 1098 473 q 1015 521 1059 521 q 946 496 975 521 q 906 427 917 471 l 848 427 l 870 551 m 35 464 l 46 528 l 146 528 l 219 943 l 95 875 l 107 946 l 258 1031 l 396 1031 l 308 528 l 408 528 l 397 464 l 35 464 m 989 1031 l 1093 1031 l 339 -20 l 236 -20 l 989 1031 "},"Ģ":{"x_min":40.125,"x_max":1013.75,"ha":1067,"o":"m 402 -285 q 483 -221 454 -256 q 520 -139 512 -185 l 525 -110 l 656 -110 l 655 -112 q 590 -241 642 -188 q 444 -333 539 -295 l 402 -285 m 891 694 q 836 888 891 828 q 665 949 782 949 q 438 842 523 949 q 313 505 353 735 q 318 169 273 277 q 496 62 362 62 q 594 74 548 62 q 681 113 640 87 l 730 392 l 620 392 l 634 473 l 962 473 l 895 84 q 676 5 783 31 q 463 -20 569 -20 q 118 120 228 -20 q 52 505 9 260 q 253 890 94 750 q 646 1031 412 1031 q 835 1009 744 1031 q 1013 943 925 987 l 970 694 l 891 694 "},"ᾇ":{"x_min":40.703125,"x_max":932.375,"ha":961,"o":"m 728 631 q 853 721 789 686 l 932 721 l 926 691 q 794 559 842 626 q 733 455 777 536 l 733 232 q 783 85 733 85 q 890 127 833 85 l 872 22 q 590 30 691 -51 q 553 70 571 45 q 471 7 524 30 q 320 -20 410 -20 q 81 81 142 -20 q 51 359 20 182 q 178 637 82 535 q 468 738 275 738 q 728 631 680 738 m 530 244 l 530 531 q 461 631 530 631 q 357 571 397 636 q 292 359 319 513 q 282 145 264 205 q 365 86 299 86 q 468 142 430 86 q 530 244 481 156 m 336 1189 l 337 1199 q 396 1349 354 1298 q 500 1401 437 1401 q 542 1393 522 1401 q 586 1363 562 1384 l 624 1332 l 626 1330 q 671 1311 649 1311 q 715 1334 696 1311 q 741 1400 734 1358 l 808 1400 l 806 1389 q 748 1238 789 1290 q 645 1188 707 1188 q 602 1196 622 1188 q 557 1225 582 1204 l 519 1256 l 519 1257 q 473 1278 495 1278 q 428 1254 447 1278 q 403 1189 409 1230 l 336 1189 m 499 972 q 543 860 509 891 l 477 828 q 412 953 430 908 q 412 1041 401 980 q 454 1123 419 1079 q 532 1161 490 1161 q 590 1132 571 1161 q 605 1062 611 1099 q 565 993 597 1020 q 499 972 536 966 m 418 -277 l 372 -288 q 254 -171 228 -322 l 270 -83 l 390 -83 l 373 -180 q 395 -234 362 -243 l 427 -225 l 418 -277 "},"⣂":{"x_min":183,"x_max":793,"ha":976,"o":"m 218 492 q 183 588 183 532 q 219 684 183 644 q 305 724 255 724 q 390 684 354 724 q 427 588 427 644 q 391 492 427 532 q 304 453 355 453 q 218 492 254 453 m 218 -231 q 183 -135 183 -191 q 219 -39 183 -79 q 305 0 255 0 q 390 -39 354 0 q 427 -135 427 -79 q 391 -231 427 -191 q 304 -271 355 -271 q 218 -231 254 -271 m 584 -231 q 549 -135 549 -191 q 585 -39 549 -79 q 671 0 621 0 q 756 -39 720 0 q 793 -135 793 -79 q 757 -231 793 -191 q 671 -271 721 -271 q 584 -231 620 -271 "},"⡞":{"x_min":183,"x_max":793,"ha":976,"o":"m 218 492 q 183 588 183 532 q 219 684 183 644 q 305 724 255 724 q 390 684 354 724 q 427 588 427 644 q 391 492 427 532 q 304 453 355 453 q 218 492 254 453 m 218 129 q 183 225 183 169 q 219 321 183 281 q 305 361 255 361 q 390 321 354 361 q 427 225 427 281 q 391 129 427 169 q 304 90 355 90 q 218 129 254 90 m 584 853 q 549 949 549 893 q 585 1045 549 1005 q 671 1085 621 1085 q 756 1045 720 1085 q 793 949 793 1005 q 757 853 793 893 q 671 814 721 814 q 584 853 620 814 m 584 492 q 549 588 549 532 q 585 684 549 644 q 671 724 621 724 q 756 684 720 724 q 793 588 793 644 q 757 492 793 532 q 671 453 721 453 q 584 492 620 453 m 218 -231 q 183 -135 183 -191 q 219 -39 183 -79 q 305 0 255 0 q 390 -39 354 0 q 427 -135 427 -79 q 391 -231 427 -191 q 304 -271 355 -271 q 218 -231 254 -271 "},"ǌ":{"x_min":68.734375,"x_max":1350,"ha":1360,"o":"m 1114 924 q 1164 1017 1124 979 q 1254 1055 1204 1055 q 1329 1017 1302 1055 q 1350 951 1350 988 q 1347 924 1350 939 q 1297 833 1337 871 q 1209 796 1257 796 q 1132 833 1160 796 q 1112 898 1112 861 q 1114 924 1112 911 m 1089 639 l 997 639 l 1011 721 l 1318 721 l 1178 -85 q 1078 -252 1158 -195 q 860 -309 998 -309 q 783 -302 823 -309 q 701 -282 743 -295 l 728 -130 l 796 -130 q 794 -166 794 -150 q 802 -207 794 -193 q 856 -232 816 -232 q 924 -200 901 -232 q 962 -85 947 -168 l 1089 639 m 68 0 l 180 639 l 88 639 l 102 721 l 411 721 l 393 619 q 498 712 443 683 q 630 741 553 741 q 783 668 739 741 q 811 550 811 623 q 801 458 811 508 l 735 82 l 828 82 l 814 0 l 505 0 l 586 465 q 595 545 595 512 q 588 592 595 575 q 521 628 573 628 q 416 574 455 628 q 356 405 376 521 l 285 0 l 68 0 "},"⁵":{"x_min":14.234375,"x_max":502.515625,"ha":547,"o":"m 502 1031 l 482 933 l 174 933 l 149 801 q 212 829 179 820 q 280 839 246 839 q 438 787 387 839 q 471 645 489 734 q 381 503 453 554 q 198 453 309 453 q 106 460 151 453 q 14 483 61 467 l 38 605 l 84 605 q 97 523 75 550 q 172 496 119 496 q 264 533 229 496 q 314 645 299 570 q 309 756 328 719 q 235 794 290 794 q 181 781 208 794 q 131 745 155 769 l 92 745 l 148 1031 l 502 1031 "},"ჶ":{"x_min":39,"x_max":1125,"ha":1175,"o":"m 893 389 q 916 492 909 449 q 923 563 923 534 q 916 611 923 594 q 898 638 909 628 q 871 649 887 647 q 836 652 855 652 q 800 649 819 652 q 763 634 781 646 q 729 599 745 622 q 703 533 714 575 l 628 239 q 623 201 623 217 q 631 162 623 178 q 655 137 640 147 q 687 124 669 128 q 724 121 705 121 q 770 131 748 121 q 811 170 791 141 q 852 251 832 199 q 893 389 872 304 m 304 0 q 195 12 244 0 q 111 51 145 24 q 57 123 76 79 q 39 231 39 168 q 60 385 39 297 q 129 563 87 490 q 225 683 171 637 q 340 750 278 729 q 469 772 402 772 q 523 762 490 772 q 588 737 556 753 q 626 840 606 799 q 673 907 645 881 q 740 947 700 933 q 839 971 780 961 l 839 917 q 813 899 824 909 q 793 877 801 889 q 779 851 784 864 q 770 821 774 837 l 749 742 q 819 764 783 757 q 890 772 855 772 q 986 759 942 772 q 1060 718 1029 746 q 1108 648 1091 691 q 1125 545 1125 605 q 1119 475 1125 512 q 1103 394 1114 438 q 1033 207 1074 282 q 940 85 992 131 q 827 19 889 39 q 694 0 766 0 q 629 4 659 0 q 573 20 599 8 l 549 -70 q 505 -176 534 -131 q 431 -252 476 -222 q 325 -297 386 -282 q 183 -313 263 -313 l 210 -211 l 294 -211 q 312 -207 304 -211 q 327 -192 320 -203 q 343 -161 335 -181 q 358 -109 350 -141 l 522 530 q 528 555 526 544 q 529 577 529 567 q 520 618 529 603 q 498 640 511 633 q 469 649 484 647 q 441 652 453 652 q 396 642 417 652 q 353 603 374 632 q 311 522 332 574 q 269 385 290 470 q 248 290 254 330 q 242 219 242 249 q 248 167 242 187 q 268 136 255 147 q 299 120 281 124 q 339 116 317 116 l 304 0 "},"á":{"x_min":34.5,"x_max":720.875,"ha":810,"o":"m 512 593 q 477 634 512 634 q 315 525 395 634 q 248 308 278 475 q 242 134 227 182 q 317 86 258 86 q 409 142 373 86 q 466 324 444 198 l 512 593 m 720 698 l 613 83 l 695 83 l 680 0 l 409 0 l 425 91 q 239 -20 358 -20 q 69 66 121 -20 q 43 303 16 152 q 186 585 69 454 q 510 740 325 740 q 720 698 693 740 m 539 1111 l 710 1111 l 437 856 l 337 856 l 539 1111 "},"⠂":{"x_min":183,"x_max":427,"ha":976,"o":"m 218 491 q 183 587 183 531 q 219 683 183 643 q 305 723 255 723 q 390 683 354 723 q 427 587 427 643 q 391 491 427 531 q 304 452 355 452 q 218 491 254 452 "},"⇥":{"x_min":71.59375,"x_max":976,"ha":1047,"o":"m 71 523 l 698 523 l 618 731 l 650 731 l 839 523 l 842 523 l 842 715 l 976 715 l 976 182 l 842 182 l 842 374 l 839 374 l 650 165 l 618 165 l 698 374 l 71 374 l 71 523 "},"K":{"x_min":-29.15625,"x_max":1127.796875,"ha":1086,"o":"m -29 0 l -14 82 l 101 82 l 250 931 l 133 931 l 147 1013 l 616 1013 l 602 931 l 484 931 l 420 561 l 871 931 l 773 931 l 788 1013 l 1127 1013 l 1113 931 l 992 931 l 610 618 l 961 82 l 1051 82 l 1036 0 l 728 0 l 408 491 l 336 82 l 453 82 l 439 0 l -29 0 "},"Y":{"x_min":63.0625,"x_max":992.15625,"ha":892,"o":"m 126 0 l 140 82 l 263 82 l 322 419 l 141 931 l 63 931 l 77 1013 l 514 1013 l 500 931 l 398 931 l 536 544 l 807 931 l 716 931 l 731 1013 l 992 1013 l 977 931 l 900 931 l 564 454 l 499 82 l 621 82 l 607 0 l 126 0 "},"E":{"x_min":-29.15625,"x_max":967.0625,"ha":952,"o":"m -29 0 l -14 82 l 101 82 l 250 931 l 133 931 l 147 1013 l 967 1013 l 925 774 l 840 774 l 866 920 l 482 920 l 426 595 l 665 595 l 687 723 l 771 723 l 710 374 l 625 374 l 649 503 l 410 503 l 338 92 l 733 92 l 758 238 l 842 238 l 800 0 l -29 0 "},"Ƥ":{"x_min":-118.671875,"x_max":951.734375,"ha":940,"o":"m 264 1013 l 666 1013 q 894 932 818 1013 q 946 717 969 852 q 818 500 922 581 q 562 419 714 419 l 395 419 l 336 82 l 483 82 l 469 0 l -29 0 l -14 82 l 101 82 l 250 931 q 77 870 130 931 q 2 682 24 808 l -118 682 l -75 925 q 132 1001 -17 972 q 264 1013 192 1013 m 409 501 l 478 501 q 615 559 557 501 q 689 716 672 618 q 670 872 707 814 q 553 931 633 931 l 484 931 l 409 501 "},"Ï":{"x_min":-29.15625,"x_max":630.53125,"ha":585,"o":"m -29 0 l -14 82 l 101 82 l 250 931 l 133 931 l 147 1013 l 616 1013 l 602 931 l 484 931 l 336 82 l 453 82 l 439 0 l -29 0 m 190 1134 q 175 1204 168 1163 q 214 1274 183 1244 q 282 1304 246 1304 q 340 1274 319 1304 q 354 1204 361 1244 q 316 1134 347 1163 q 248 1105 285 1105 q 190 1134 212 1105 m 462 1134 q 448 1204 441 1163 q 487 1274 455 1244 q 555 1304 518 1304 q 613 1274 592 1304 q 628 1204 636 1244 q 589 1134 621 1163 q 520 1105 557 1105 q 462 1134 484 1105 "},"ῶ":{"x_min":44.234375,"x_max":1148.421875,"ha":1190,"o":"m 453 823 l 454 834 q 513 983 471 933 q 617 1036 554 1036 q 659 1027 639 1036 q 703 998 679 1018 l 741 966 l 743 964 q 788 945 767 945 q 832 968 813 945 q 859 1034 851 992 l 926 1034 l 924 1023 q 866 873 907 924 q 762 822 824 822 q 719 830 739 822 q 674 859 699 838 l 636 891 l 636 892 q 590 913 612 913 q 545 888 564 913 q 520 823 526 864 l 453 823 m 119 91 q 54 215 84 128 q 52 380 34 274 q 152 588 73 499 q 346 720 231 676 l 425 720 l 419 691 q 351 588 398 674 q 290 391 313 519 q 288 161 264 237 q 364 82 315 82 q 468 262 437 82 l 509 498 l 726 498 l 684 262 q 726 82 653 82 q 829 161 775 82 q 907 391 880 237 q 916 588 929 519 q 883 691 899 674 l 889 721 l 967 721 q 1114 588 1066 676 q 1142 380 1163 499 q 1082 214 1123 274 q 975 91 1022 128 q 846 22 933 59 q 681 -2 793 -2 q 547 96 593 -2 q 379 -2 469 -2 q 223 22 277 -2 q 119 91 149 59 "},"ȴ":{"x_min":103.921875,"x_max":640.828125,"ha":716,"o":"m 337 150 q 472 47 376 47 q 568 118 556 47 q 528 203 583 203 q 337 150 372 203 m 334 355 q 325 214 325 292 q 535 265 425 265 q 636 115 662 265 q 405 -28 611 -28 q 223 20 295 -28 q 204 -59 213 -1 l 187 -156 l 103 -156 l 121 -59 q 162 63 135 9 q 150 76 150 76 q 118 355 88 180 l 226 974 l 134 974 l 148 1055 l 457 1055 l 334 355 "},"Ɖ":{"x_min":-21.015625,"x_max":1051.84375,"ha":1093,"o":"m 345 82 l 429 82 q 656 183 573 82 q 778 507 739 284 q 769 829 817 728 q 578 931 721 931 l 493 931 l 432 577 l 634 577 l 617 484 l 415 484 l 345 82 m -21 0 l -6 82 l 109 82 l 180 484 l 50 484 l 66 577 l 196 577 l 258 931 l 141 931 l 155 1013 l 624 1013 q 975 883 868 1013 q 1039 507 1082 753 q 844 130 996 261 q 447 0 691 0 l -21 0 "},"⢯":{"x_min":183,"x_max":793,"ha":976,"o":"m 218 853 q 183 949 183 893 q 219 1045 183 1005 q 305 1085 255 1085 q 390 1045 354 1085 q 427 949 427 1005 q 391 853 427 893 q 304 814 355 814 q 218 853 254 814 m 218 492 q 183 588 183 532 q 219 684 183 644 q 305 724 255 724 q 390 684 354 724 q 427 588 427 644 q 391 492 427 532 q 304 453 355 453 q 218 492 254 453 m 218 129 q 183 225 183 169 q 219 321 183 281 q 305 361 255 361 q 390 321 354 361 q 427 225 427 281 q 391 129 427 169 q 304 90 355 90 q 218 129 254 90 m 584 853 q 549 949 549 893 q 585 1045 549 1005 q 671 1085 621 1085 q 756 1045 720 1085 q 793 949 793 1005 q 757 853 793 893 q 671 814 721 814 q 584 853 620 814 m 584 129 q 549 225 549 169 q 585 321 549 281 q 671 361 621 361 q 756 321 720 361 q 793 225 793 281 q 757 129 793 169 q 671 90 721 90 q 584 129 620 90 m 584 -231 q 549 -135 549 -191 q 585 -39 549 -79 q 671 0 621 0 q 756 -39 720 0 q 793 -135 793 -79 q 757 -231 793 -191 q 671 -271 721 -271 q 584 -231 620 -271 "},"K":{"x_min":-29.15625,"x_max":1127.796875,"ha":1086,"o":"m -29 0 l -14 82 l 101 82 l 250 931 l 133 931 l 147 1013 l 616 1013 l 602 931 l 484 931 l 420 561 l 871 931 l 773 931 l 788 1013 l 1127 1013 l 1113 931 l 992 931 l 610 618 l 961 82 l 1051 82 l 1036 0 l 728 0 l 408 491 l 336 82 l 453 82 l 439 0 l -29 0 "},"ϋ":{"x_min":91.546875,"x_max":827.65625,"ha":867,"o":"m 380 -1 q 113 236 71 -1 l 183 639 l 91 639 l 105 721 l 414 721 l 328 235 q 395 82 302 82 q 509 161 455 82 q 587 391 560 237 q 596 588 610 521 q 563 691 579 674 l 568 721 l 647 721 q 794 588 746 676 q 821 380 842 500 q 762 215 802 275 q 654 92 701 128 q 525 23 596 47 q 380 -1 455 -1 m 318 995 q 357 1065 325 1036 q 425 1095 389 1095 q 483 1065 462 1095 q 497 995 504 1036 q 458 925 489 955 q 391 896 427 896 q 332 925 355 896 q 318 995 311 955 m 591 995 q 630 1065 598 1036 q 697 1095 661 1095 q 756 1065 734 1095 q 771 995 778 1036 q 732 925 764 955 q 663 896 700 896 q 605 925 627 896 q 591 995 584 955 "},"⥗":{"x_min":71.59375,"x_max":976,"ha":1047,"o":"m 842 523 l 842 715 l 976 715 l 976 182 l 842 182 l 842 374 l 839 374 l 650 165 l 618 165 l 698 374 l 71 374 l 71 523 l 842 523 "},"ἶ":{"x_min":92.90625,"x_max":638.15625,"ha":604,"o":"m 497 22 q 187 30 292 -53 q 114 236 91 107 l 184 639 l 92 639 l 107 721 l 415 721 l 330 234 q 378 82 303 82 q 515 127 452 82 l 497 22 m 164 1190 l 166 1200 q 225 1350 183 1299 q 328 1402 266 1402 q 371 1394 351 1402 q 415 1364 391 1385 l 453 1333 l 455 1331 q 500 1312 478 1312 q 544 1335 525 1312 q 571 1401 563 1359 l 638 1401 l 636 1390 q 577 1239 619 1291 q 474 1189 536 1189 q 431 1197 451 1189 q 386 1226 410 1205 l 348 1257 l 347 1258 q 301 1279 324 1279 q 257 1255 276 1279 q 231 1190 238 1231 l 164 1190 m 316 973 q 257 993 278 967 q 242 1063 235 1021 q 281 1133 249 1100 q 349 1163 309 1163 q 414 1124 391 1163 q 427 1042 434 1080 q 396 954 417 981 q 288 828 363 909 l 233 860 q 316 973 278 892 "},"ⅰ":{"x_min":42.96875,"x_max":421,"ha":475,"o":"m 184 924 q 234 1017 194 979 q 325 1055 275 1055 q 400 1017 373 1055 q 421 951 421 989 q 418 924 421 939 q 368 833 409 871 q 279 796 327 796 q 203 833 230 796 q 182 898 182 861 q 184 924 182 911 m 273 82 l 366 82 l 351 0 l 42 0 l 154 639 l 62 639 l 76 721 l 385 721 l 273 82 "},"b":{"x_min":30.90625,"x_max":807,"ha":873,"o":"m 201 974 l 108 974 l 122 1055 l 431 1055 l 356 629 q 444 713 393 685 q 564 741 496 741 q 765 639 703 741 q 807 470 807 571 q 796 360 807 419 q 667 81 765 183 q 431 -20 570 -20 q 321 7 363 -20 q 262 91 280 35 l 246 0 l 30 0 l 201 974 m 303 324 q 292 209 292 257 q 300 142 292 168 q 384 86 319 86 q 488 145 450 86 q 553 360 525 205 q 570 516 570 457 q 563 575 570 552 q 480 635 546 635 q 376 578 415 635 q 315 396 338 522 l 303 324 "},"⢨":{"x_min":549,"x_max":793,"ha":976,"o":"m 584 853 q 549 949 549 893 q 585 1045 549 1005 q 671 1085 621 1085 q 756 1045 720 1085 q 793 949 793 1005 q 757 853 793 893 q 671 814 721 814 q 584 853 620 814 m 584 129 q 549 225 549 169 q 585 321 549 281 q 671 361 621 361 q 756 321 720 361 q 793 225 793 281 q 757 129 793 169 q 671 90 721 90 q 584 129 620 90 m 584 -231 q 549 -135 549 -191 q 585 -39 549 -79 q 671 0 621 0 q 756 -39 720 0 q 793 -135 793 -79 q 757 -231 793 -191 q 671 -271 721 -271 q 584 -231 620 -271 "},"≕":{"x_min":132,"x_max":1220,"ha":1352,"o":"m 1021 499 q 987 590 987 537 q 1021 681 987 643 q 1103 719 1055 719 q 1185 681 1151 719 q 1220 590 1220 643 q 1185 499 1220 537 q 1103 462 1151 462 q 1021 499 1055 462 m 1021 190 q 987 281 987 228 q 1021 372 987 334 q 1103 410 1055 410 q 1185 372 1151 410 q 1220 281 1220 334 q 1185 190 1220 228 q 1103 153 1151 153 q 1021 190 1055 153 m 132 358 l 915 358 l 915 204 l 132 204 l 132 358 m 132 666 l 915 666 l 915 512 l 132 512 l 132 666 "},"ﬂ":{"x_min":-73.25,"x_max":901.28125,"ha":909,"o":"m 178 639 l 82 639 l 95 721 l 192 721 l 201 772 q 327 985 226 916 q 615 1055 429 1055 l 901 1055 l 730 82 l 823 82 l 809 0 l 500 0 l 671 979 l 617 979 q 484 931 531 979 q 418 779 437 884 l 408 721 l 556 721 l 541 639 l 394 639 l 278 -19 q 178 -202 254 -161 q -73 -264 60 -264 q -59 -188 -66 -226 q 18 -148 -10 -188 q 62 -22 46 -109 l 178 639 "},"𝑼":{"x_min":118.671875,"x_max":1152.890625,"ha":1090,"o":"m 234 930 l 118 930 l 132 1012 l 601 1012 l 587 930 l 470 930 l 382 423 q 388 158 349 234 q 557 83 428 83 q 749 159 683 83 q 848 423 815 235 l 937 930 l 821 930 l 835 1012 l 1152 1012 l 1138 930 l 1022 930 l 931 409 q 782 78 890 177 q 461 -20 674 -20 q 176 79 250 -20 q 143 410 103 179 l 234 930 "},"𝑮":{"x_min":40.125,"x_max":1013.75,"ha":1067,"o":"m 891 694 q 836 888 891 828 q 665 949 782 949 q 438 842 523 949 q 313 505 353 735 q 318 169 273 277 q 496 62 362 62 q 594 74 548 62 q 681 113 640 87 l 730 392 l 620 392 l 634 473 l 962 473 l 895 84 q 676 5 783 31 q 463 -20 569 -20 q 118 120 228 -20 q 52 505 9 260 q 253 890 94 750 q 646 1031 412 1031 q 835 1009 744 1031 q 1013 943 925 987 l 970 694 l 891 694 "},"ɢ":{"x_min":70.046875,"x_max":744.15625,"ha":783,"o":"m 637 488 q 586 623 637 566 q 502 665 549 665 q 373 591 431 665 q 285 357 313 517 q 289 125 257 199 q 386 51 320 51 q 456 78 416 51 l 492 279 l 403 279 l 413 336 l 709 336 l 662 66 q 510 11 584 29 q 362 -6 436 -6 q 124 91 200 -6 q 78 357 49 188 q 217 624 108 527 q 489 722 327 722 q 620 707 557 722 q 744 660 683 691 l 713 488 l 637 488 "},"Ʈ":{"x_min":83.421875,"x_max":1031.5,"ha":930,"o":"m 288 28 l 444 920 l 195 920 l 167 759 l 83 759 l 128 1013 l 1031 1013 l 986 759 l 904 759 l 932 920 l 680 920 l 526 33 q 516 -155 501 -105 q 590 -207 531 -207 q 665 -177 636 -207 q 708 -83 693 -147 l 788 -83 l 760 -242 q 650 -277 703 -265 q 545 -289 596 -289 q 322 -213 383 -289 q 288 28 259 -136 "},"Ὢ":{"x_min":75.953125,"x_max":1545.234375,"ha":1585,"o":"m 1166 125 l 1370 125 l 1385 209 l 1468 209 l 1432 0 l 984 0 l 1007 131 q 1173 255 1106 152 q 1272 539 1240 358 q 1264 844 1306 739 q 1104 949 1221 949 q 908 844 987 949 q 794 538 829 739 q 794 256 762 361 q 915 131 825 152 l 892 0 l 444 0 l 481 209 l 564 209 l 549 125 l 754 125 q 564 296 620 187 q 535 554 509 405 q 733 899 573 768 q 1118 1031 893 1031 q 1459 899 1344 1031 q 1536 554 1573 768 q 1416 296 1509 405 q 1166 125 1323 187 m 159 973 q 99 993 120 967 q 85 1063 77 1021 q 124 1133 92 1100 q 192 1163 152 1163 q 257 1124 234 1163 q 270 1042 276 1080 q 239 954 259 981 q 130 828 206 909 l 75 860 q 159 973 120 891 m 486 1111 l 598 856 l 498 856 l 316 1111 l 486 1111 "},"↽":{"x_min":43,"x_max":976,"ha":1047,"o":"m 43 523 l 976 523 l 976 374 l 314 374 l 393 165 l 362 165 l 43 516 l 43 523 "},"Ḡ":{"x_min":40.125,"x_max":1013.75,"ha":1067,"o":"m 891 694 q 836 888 891 828 q 665 949 782 949 q 438 842 523 949 q 313 505 353 735 q 318 169 273 277 q 496 62 362 62 q 594 74 548 62 q 681 113 640 87 l 730 392 l 620 392 l 634 473 l 962 473 l 895 84 q 676 5 783 31 q 463 -20 569 -20 q 118 120 228 -20 q 52 505 9 260 q 253 890 94 750 q 646 1031 412 1031 q 835 1009 744 1031 q 1013 943 925 987 l 970 694 l 891 694 m 490 1303 l 874 1303 l 852 1175 l 467 1175 l 490 1303 "},"⤕":{"x_min":61.453125,"x_max":1001,"ha":1047,"o":"m 549 715 l 668 715 l 668 523 l 794 523 l 715 731 l 747 731 l 1001 451 l 1001 445 l 747 165 l 715 165 l 794 374 l 668 374 l 668 182 l 549 182 l 549 374 l 500 374 l 500 182 l 381 182 l 381 374 l 339 374 l 147 163 l 61 258 l 231 445 l 231 451 l 61 638 l 147 733 l 339 523 l 381 523 l 381 715 l 500 715 l 500 523 l 549 523 l 549 715 "},"‬":{"x_min":0,"x_max":0,"ha":0},"ȭ":{"x_min":43,"x_max":793,"ha":834,"o":"m 364 56 q 472 121 433 56 q 541 360 511 186 q 562 541 562 474 q 555 599 562 576 q 471 664 540 664 q 362 598 401 664 q 292 360 323 533 q 273 182 273 249 q 279 122 273 145 q 364 56 295 56 m 637 81 q 351 -20 522 -20 q 99 81 179 -20 q 43 267 43 154 q 51 360 43 310 q 197 639 83 539 q 484 740 312 740 q 736 640 656 740 q 793 454 793 567 q 784 360 793 410 q 637 81 752 182 m 272 888 l 274 898 q 333 1047 291 997 q 437 1100 374 1100 q 479 1091 459 1100 q 524 1061 499 1082 l 562 1030 l 563 1028 q 608 1009 587 1009 q 652 1032 633 1009 q 679 1098 671 1056 l 746 1098 l 744 1087 q 685 937 727 988 q 582 886 644 886 q 539 895 559 886 q 494 924 519 903 l 456 955 l 456 956 q 409 977 432 977 q 365 953 384 977 q 340 888 346 929 l 272 888 m 359 1270 l 742 1270 l 721 1142 l 336 1142 l 359 1270 "},"Ŋ":{"x_min":42.71875,"x_max":1073,"ha":1091,"o":"m 491 -117 q 569 -207 491 -207 q 660 -156 628 -207 q 717 33 693 -105 l 820 628 q 840 785 840 732 q 832 863 840 838 q 738 929 813 929 q 587 844 646 929 q 494 570 527 760 l 409 82 l 526 82 l 511 0 l 42 0 l 57 82 l 173 82 l 321 931 l 229 931 l 243 1013 l 571 1013 l 553 907 q 681 1002 613 974 q 847 1031 749 1031 q 1039 935 986 1031 q 1073 799 1073 875 q 1060 654 1073 723 l 950 27 q 834 -213 922 -137 q 582 -289 745 -289 q 383 -242 482 -289 l 412 -83 l 493 -83 q 491 -117 491 -101 "},"Ⅹ":{"x_min":-65.109375,"x_max":1010.46875,"ha":970,"o":"m 404 390 l 160 82 l 272 82 l 258 0 l -65 0 l -50 82 l 61 82 l 368 469 l 164 931 l 80 931 l 95 1013 l 547 1013 l 533 931 l 434 931 l 560 645 l 784 931 l 678 931 l 693 1013 l 1010 1013 l 996 931 l 883 931 l 594 567 l 809 82 l 895 82 l 880 0 l 425 0 l 440 82 l 541 82 l 404 390 "},"Ẋ":{"x_min":-65.109375,"x_max":1010.46875,"ha":970,"o":"m 522 1134 q 507 1204 500 1163 q 547 1274 515 1244 q 615 1304 578 1304 q 673 1274 651 1304 q 687 1204 694 1244 q 648 1134 680 1163 q 580 1105 617 1105 q 522 1134 543 1105 m 404 390 l 160 82 l 272 82 l 258 0 l -65 0 l -50 82 l 61 82 l 368 469 l 164 931 l 80 931 l 95 1013 l 547 1013 l 533 931 l 434 931 l 560 645 l 784 931 l 678 931 l 693 1013 l 1010 1013 l 996 931 l 883 931 l 594 567 l 809 82 l 895 82 l 880 0 l 425 0 l 440 82 l 541 82 l 404 390 "},"ď":{"x_min":14,"x_max":1159.046875,"ha":874,"o":"m 502 324 l 515 396 q 527 510 527 463 q 518 578 527 552 q 434 635 498 635 q 330 575 367 635 q 265 360 292 516 q 249 206 249 265 q 255 145 249 168 q 338 86 272 86 q 441 142 402 86 q 502 324 481 198 m 846 1055 l 661 0 l 446 0 l 462 91 q 373 7 424 35 q 253 -20 321 -20 q 54 81 115 -20 q 14 250 14 149 q 24 360 14 301 q 151 639 55 538 q 386 741 248 741 q 496 713 454 741 q 556 629 538 685 l 616 974 l 523 974 l 537 1055 l 846 1055 m 988 1054 l 1159 1054 l 1002 799 l 902 799 l 988 1054 "},"Ⴠ":{"x_min":78.703125,"x_max":1353.921875,"ha":1415,"o":"m 1337 637 l 1259 637 l 1176 202 q 1138 106 1166 145 q 1071 44 1111 68 q 980 9 1031 20 q 872 -1 930 -1 l 729 -1 q 621 9 669 -1 q 539 41 573 20 q 487 96 505 63 q 470 175 470 129 q 471 198 470 186 q 474 224 472 210 l 640 1093 l 460 1093 l 375 645 l 78 645 l 94 729 l 170 729 l 240 1093 l 164 1093 l 180 1175 l 950 1175 l 934 1093 l 858 1093 l 698 248 q 691 208 693 227 q 690 174 690 190 q 706 105 690 129 q 757 81 722 81 l 862 81 q 893 92 877 81 q 922 124 909 104 q 947 171 936 144 q 963 229 957 198 l 1041 637 l 965 637 l 981 721 l 1353 721 l 1337 637 "},"⟸":{"x_min":46,"x_max":1720,"ha":1791,"o":"m 298 256 l 332 165 l 300 165 l 46 445 l 46 452 l 300 732 l 332 732 l 298 642 l 1720 642 l 1720 510 l 248 510 l 225 449 l 248 388 l 1720 388 l 1720 256 l 298 256 "},"ṯ":{"x_min":26.953125,"x_max":564.109375,"ha":577,"o":"m 153 639 l 60 639 l 74 721 l 168 721 l 207 944 l 423 944 l 384 721 l 564 721 l 549 639 l 370 639 l 292 197 q 282 106 282 136 q 285 79 282 87 q 330 56 294 56 q 393 85 369 56 q 429 176 417 114 l 520 176 q 440 23 495 67 q 267 -20 385 -20 q 94 26 134 -20 q 69 119 69 56 q 76 197 69 152 l 153 639 m 49 -96 l 433 -96 l 411 -224 l 26 -224 l 49 -96 "},"ŧ":{"x_min":8.96875,"x_max":565.453125,"ha":578,"o":"m 155 639 l 61 639 l 75 721 l 169 721 l 208 944 l 425 944 l 385 721 l 565 721 l 551 639 l 371 639 l 338 451 l 450 451 l 427 321 l 315 321 l 294 197 q 284 106 284 136 q 286 79 284 87 q 332 56 296 56 q 394 85 370 56 q 430 176 418 114 l 522 176 q 441 24 497 67 q 268 -20 386 -20 q 95 26 135 -20 q 70 119 70 56 q 77 197 70 152 l 99 321 l 8 321 l 32 451 l 122 451 l 155 639 "},"À":{"x_min":-97.65625,"x_max":910.109375,"ha":970,"o":"m -97 0 l -83 82 l -8 82 l 497 1012 l 642 1012 l 823 82 l 910 82 l 895 0 l 469 0 l 483 82 l 573 82 l 533 289 l 191 289 l 79 82 l 187 82 l 173 0 l -97 0 m 236 371 l 518 371 l 445 758 l 236 371 m 580 1288 l 659 1109 l 559 1109 l 410 1288 l 580 1288 "},"Ώ":{"x_min":1.359375,"x_max":1101.703125,"ha":1139,"o":"m 255 1111 l 425 1111 l 153 856 l 52 856 l 255 1111 m 722 125 l 927 125 l 941 209 l 1025 209 l 988 0 l 541 0 l 564 131 q 730 255 663 152 q 828 539 796 358 q 820 844 863 739 q 660 949 777 949 q 464 844 543 949 q 350 538 385 739 q 350 256 319 361 q 472 131 381 152 l 448 0 l 1 0 l 37 209 l 120 209 l 105 125 l 310 125 q 121 296 177 187 q 92 554 65 405 q 289 899 129 768 q 675 1031 449 1031 q 1015 899 901 1031 q 1092 554 1129 768 q 972 296 1066 405 q 722 125 879 187 "},"̟":{"x_min":-474.046875,"x_max":-144.453125,"ha":0,"o":"m -377 -389 l -474 -389 l -452 -261 l -355 -261 l -337 -153 l -222 -153 l -240 -261 l -144 -261 l -166 -389 l -263 -389 l -282 -496 l -396 -496 l -377 -389 "},"'":{"x_min":119,"x_max":263,"ha":382,"o":"m 263 1012 l 263 636 l 119 636 l 119 1012 l 263 1012 "},"⢟":{"x_min":183,"x_max":793,"ha":976,"o":"m 218 853 q 183 949 183 893 q 219 1045 183 1005 q 305 1085 255 1085 q 390 1045 354 1085 q 427 949 427 1005 q 391 853 427 893 q 304 814 355 814 q 218 853 254 814 m 218 492 q 183 588 183 532 q 219 684 183 644 q 305 724 255 724 q 390 684 354 724 q 427 588 427 644 q 391 492 427 532 q 304 453 355 453 q 218 492 254 453 m 218 129 q 183 225 183 169 q 219 321 183 281 q 305 361 255 361 q 390 321 354 361 q 427 225 427 281 q 391 129 427 169 q 304 90 355 90 q 218 129 254 90 m 584 853 q 549 949 549 893 q 585 1045 549 1005 q 671 1085 621 1085 q 756 1045 720 1085 q 793 949 793 1005 q 757 853 793 893 q 671 814 721 814 q 584 853 620 814 m 584 492 q 549 588 549 532 q 585 684 549 644 q 671 724 621 724 q 756 684 720 724 q 793 588 793 644 q 757 492 793 532 q 671 453 721 453 q 584 492 620 453 m 584 -231 q 549 -135 549 -191 q 585 -39 549 -79 q 671 0 621 0 q 756 -39 720 0 q 793 -135 793 -79 q 757 -231 793 -191 q 671 -271 721 -271 q 584 -231 620 -271 "},"ჼ":{"x_min":85,"x_max":633.46875,"ha":453,"o":"m 495 683 q 241 474 442 474 q 85 603 85 474 q 88 640 85 621 q 96 683 91 660 l 185 1036 q 218 1105 195 1073 q 273 1158 241 1136 q 347 1193 306 1181 q 437 1205 389 1205 q 459 1202 448 1205 q 481 1194 471 1198 q 499 1187 491 1190 q 514 1184 508 1184 q 550 1195 518 1184 q 633 1225 581 1206 l 612 1144 q 545 1101 576 1116 q 487 1086 514 1086 q 452 1087 466 1086 q 428 1091 438 1089 q 412 1096 418 1094 q 402 1101 406 1099 l 403 1101 q 399 1102 401 1102 q 396 1103 398 1102 q 394 1103 395 1103 q 377 1095 386 1101 q 360 1080 368 1089 q 346 1059 352 1071 q 337 1036 340 1048 l 300 888 q 348 893 324 893 q 468 862 429 893 q 508 766 508 831 q 495 683 508 732 m 344 683 q 354 727 351 708 q 357 763 357 747 q 327 810 357 810 q 247 683 279 810 q 235 603 235 632 q 264 559 235 559 q 294 568 282 559 q 316 594 307 577 q 331 634 325 611 q 344 683 338 656 "},"Ⴃ":{"x_min":25,"x_max":1092.828125,"ha":1104,"o":"m 781 462 q 791 525 788 495 q 794 584 794 556 q 784 671 794 632 q 754 739 775 711 q 701 784 733 768 q 623 800 668 800 l 557 800 q 455 776 503 800 q 368 708 407 752 q 300 603 329 665 q 258 468 271 542 l 247 417 q 237 345 241 379 q 233 280 233 311 q 277 130 233 180 q 420 80 322 80 l 485 80 q 591 106 544 80 q 674 177 638 132 q 734 284 710 223 q 773 417 759 346 l 781 462 m 985 417 q 921 242 966 320 q 814 110 876 165 q 678 27 752 56 q 525 -1 603 -1 l 335 -1 q 209 21 266 -1 q 111 84 152 43 q 47 184 70 125 q 25 318 25 243 q 27 367 25 343 q 35 417 30 392 l 50 497 q 83 592 59 547 q 142 675 107 636 q 218 746 176 714 q 306 802 261 778 q 400 844 352 827 q 491 870 448 861 l 534 1092 l 376 1092 l 363 1020 l 255 901 l 127 901 l 143 981 l 190 981 l 227 1176 l 1081 1176 l 1044 982 l 1092 982 l 1077 901 l 968 901 l 885 1020 l 899 1092 l 745 1092 l 703 869 q 776 854 739 869 q 847 816 813 840 q 909 762 880 793 q 958 695 937 731 q 991 620 979 659 q 1004 540 1004 580 q 1000 497 1004 518 l 985 417 "},"▩":{"x_min":113,"x_max":1067,"ha":1180,"o":"m 183 729 l 213 695 l 289 780 l 256 815 l 183 815 l 183 729 m 183 448 l 213 414 l 290 500 l 213 585 l 183 552 l 183 448 m 387 780 l 464 694 l 541 780 l 509 815 l 419 815 l 387 780 m 262 640 l 339 555 l 414 639 l 338 725 l 262 640 m 183 168 l 213 135 l 290 220 l 213 305 l 183 272 l 183 168 m 639 780 l 716 694 l 793 780 l 760 815 l 672 815 l 639 780 m 513 639 l 590 554 l 667 639 l 590 725 l 513 639 m 388 500 l 465 414 l 541 499 l 464 584 l 388 500 m 262 360 l 339 275 l 416 360 l 339 446 l 262 360 m 891 780 l 967 695 l 998 729 l 998 815 l 924 815 l 891 780 m 766 639 l 841 555 l 918 640 l 842 725 l 766 639 m 639 499 l 715 414 l 792 500 l 716 584 l 639 499 m 514 360 l 590 276 l 666 360 l 590 444 l 514 360 m 388 220 l 464 136 l 541 221 l 465 305 l 388 220 m 262 80 l 339 -3 l 414 81 l 339 165 l 262 80 m 183 -94 l 257 -94 l 289 -58 l 213 25 l 183 -7 l 183 -94 m 891 500 l 967 414 l 998 448 l 998 552 l 967 585 l 891 500 m 764 360 l 841 275 l 918 360 l 841 446 l 764 360 m 639 221 l 716 136 l 792 220 l 715 305 l 639 221 m 513 81 l 590 -4 l 667 81 l 590 166 l 513 81 m 387 -58 l 419 -94 l 509 -94 l 541 -58 l 464 26 l 387 -58 m 891 220 l 967 135 l 998 168 l 998 272 l 967 305 l 891 220 m 765 81 l 842 -3 l 918 80 l 841 165 l 765 81 m 639 -58 l 671 -94 l 760 -94 l 793 -58 l 716 26 l 639 -58 m 891 -58 l 923 -94 l 998 -94 l 998 -7 l 967 25 l 891 -58 m 113 -171 l 113 892 l 1067 892 l 1067 -171 l 113 -171 "},"Ɠ":{"x_min":28.828125,"x_max":1263.515625,"ha":1067,"o":"m 893 973 q 981 1120 927 1078 q 1103 1167 1041 1167 q 1180 1160 1140 1167 q 1263 1140 1220 1153 l 1236 988 l 1167 988 q 1161 1066 1176 1042 q 1108 1090 1148 1090 q 1040 1058 1063 1090 q 1002 943 1016 1026 l 959 694 l 879 694 q 823 888 879 828 q 653 949 769 949 q 426 842 512 949 q 301 505 341 735 q 306 169 261 277 q 485 62 351 62 q 582 74 536 62 q 669 113 629 87 l 718 392 l 608 392 l 622 473 l 950 473 l 883 84 q 664 5 771 31 q 451 -20 558 -20 q 107 120 216 -20 q 40 505 -1 260 q 242 890 83 750 q 634 1031 400 1031 q 823 1009 778 1031 l 893 973 "},"Ć":{"x_min":40.25,"x_max":982.390625,"ha":995,"o":"m 893 289 q 722 56 829 132 q 458 -20 616 -20 q 119 121 228 -20 q 51 505 9 262 q 253 889 94 748 q 642 1031 412 1031 q 808 1009 724 1031 q 982 943 892 987 l 938 694 l 861 694 q 808 885 861 822 q 653 949 756 949 q 436 840 520 949 q 313 505 353 731 q 319 170 273 279 q 499 62 365 62 q 657 118 590 62 q 771 289 725 174 l 893 289 m 697 1288 l 867 1288 l 654 1109 l 554 1109 l 697 1288 "},"𝜞":{"x_min":-29.15625,"x_max":960.28125,"ha":887,"o":"m -29 0 l -14 82 l 101 82 l 250 931 l 133 931 l 147 1013 l 960 1013 l 918 774 l 834 774 l 860 920 l 484 920 l 337 82 l 481 82 l 467 0 l -29 0 "},"ẓ":{"x_min":-18.3125,"x_max":731.75,"ha":709,"o":"m 717 640 l 289 132 q 327 113 310 124 q 453 67 404 67 q 636 165 526 67 l 617 58 q 411 -54 509 -54 q 283 -9 361 -54 q 161 40 195 40 q 92 24 127 40 q 42 0 56 8 l -18 0 l -4 82 l 421 589 q 385 608 402 597 q 259 655 307 655 q 76 556 186 655 l 94 663 q 301 776 203 776 q 429 731 351 776 q 551 682 516 682 q 620 697 585 682 q 670 722 656 713 l 731 722 l 717 640 m 166 -196 q 205 -126 174 -155 q 273 -97 236 -97 q 332 -126 309 -97 q 346 -196 353 -155 q 307 -266 339 -236 q 239 -296 276 -296 q 181 -266 202 -296 q 166 -196 160 -236 "},"ⴇ":{"x_min":54.9375,"x_max":1235.625,"ha":1200,"o":"m 489 141 q 563 374 526 260 q 637 608 600 488 q 580 598 608 602 q 525 588 552 593 q 468 578 497 583 q 409 567 440 572 q 336 338 372 450 q 263 108 300 226 l 489 141 m 835 0 l 1028 608 q 970 598 998 602 q 914 588 942 593 q 858 578 887 583 q 798 567 829 572 q 709 283 754 426 q 619 0 663 141 l 444 0 l 466 72 q 409 63 437 67 q 355 55 382 59 q 299 46 327 50 q 241 37 271 42 q 236 18 238 28 q 231 0 233 7 l 54 0 l 249 613 q 211 613 231 613 q 179 613 191 613 l 187 676 l 269 676 q 275 695 271 684 q 280 713 278 705 l 454 713 l 429 632 q 486 642 458 637 l 541 651 q 597 661 569 656 q 657 671 625 665 q 664 692 660 680 q 670 714 668 704 l 845 714 l 820 632 q 878 643 851 638 q 933 652 906 648 q 990 662 961 657 q 1049 673 1018 667 q 1055 694 1052 682 q 1061 714 1059 706 l 1235 714 l 1042 104 l 1112 104 l 1103 34 l 1022 34 l 1011 0 l 835 0 "},"⢍":{"x_min":183,"x_max":793,"ha":976,"o":"m 218 853 q 183 949 183 893 q 219 1045 183 1005 q 305 1085 255 1085 q 390 1045 354 1085 q 427 949 427 1005 q 391 853 427 893 q 304 814 355 814 q 218 853 254 814 m 218 129 q 183 225 183 169 q 219 321 183 281 q 305 361 255 361 q 390 321 354 361 q 427 225 427 281 q 391 129 427 169 q 304 90 355 90 q 218 129 254 90 m 584 853 q 549 949 549 893 q 585 1045 549 1005 q 671 1085 621 1085 q 756 1045 720 1085 q 793 949 793 1005 q 757 853 793 893 q 671 814 721 814 q 584 853 620 814 m 584 -231 q 549 -135 549 -191 q 585 -39 549 -79 q 671 0 621 0 q 756 -39 720 0 q 793 -135 793 -79 q 757 -231 793 -191 q 671 -271 721 -271 q 584 -231 620 -271 "},"↫":{"x_min":46,"x_max":976,"ha":1047,"o":"m 332 731 l 253 523 l 599 523 l 599 583 q 654 731 599 670 q 787 793 709 793 q 920 731 865 793 q 976 583 976 670 q 920 435 976 496 q 787 374 865 374 l 733 374 l 733 203 l 599 203 l 599 374 l 253 374 l 332 165 l 301 165 l 46 445 l 46 451 l 301 731 l 332 731 m 733 523 l 787 523 q 825 540 809 523 q 842 583 842 558 q 825 626 842 608 q 787 644 809 644 q 749 626 765 644 q 733 583 733 608 l 733 523 "},"Ͱ":{"x_min":-29.15625,"x_max":955.546875,"ha":973,"o":"m 832 497 l 810 368 l 894 368 l 955 719 l 871 719 l 849 590 l 425 590 l 485 931 l 602 931 l 616 1013 l 147 1013 l 133 931 l 250 931 l 101 82 l -14 82 l -29 0 l 439 0 l 453 82 l 336 82 l 408 497 l 832 497 "},"Ğ":{"x_min":40.125,"x_max":1013.75,"ha":1067,"o":"m 891 694 q 836 888 891 828 q 665 949 782 949 q 438 842 523 949 q 313 505 353 735 q 318 169 273 277 q 496 62 362 62 q 594 74 548 62 q 681 113 640 87 l 730 392 l 620 392 l 634 473 l 962 473 l 895 84 q 676 5 783 31 q 463 -20 569 -20 q 118 120 228 -20 q 52 505 9 260 q 253 890 94 750 q 646 1031 412 1031 q 835 1009 744 1031 q 1013 943 925 987 l 970 694 l 891 694 m 471 1288 l 545 1288 q 582 1230 551 1250 q 664 1211 612 1211 q 753 1230 715 1211 q 810 1288 791 1251 l 885 1288 q 792 1153 852 1199 q 645 1109 732 1109 q 514 1153 557 1109 q 471 1288 471 1197 "},"Ї":{"x_min":-29.15625,"x_max":682.75,"ha":585,"o":"m 242 1134 q 227 1204 220 1163 q 267 1274 235 1244 q 335 1304 298 1304 q 392 1274 371 1304 q 406 1204 413 1244 q 368 1134 399 1163 q 301 1105 337 1105 q 242 1134 264 1105 m 514 1134 q 500 1204 493 1163 q 539 1274 507 1244 q 607 1304 571 1304 q 665 1274 644 1304 q 680 1204 688 1244 q 641 1134 673 1163 q 573 1105 609 1105 q 514 1134 536 1105 m -29 0 l -14 82 l 101 82 l 250 931 l 133 931 l 147 1013 l 616 1013 l 602 931 l 484 931 l 336 82 l 453 82 l 439 0 l -29 0 "},"Ź":{"x_min":-41.375,"x_max":950.109375,"ha":912,"o":"m 697 1288 l 867 1288 l 654 1110 l 554 1110 l 697 1288 m -41 0 l -25 95 l 663 920 l 226 920 l 200 768 l 116 768 l 159 1013 l 950 1013 l 933 917 l 251 93 l 712 93 l 737 234 l 820 234 l 779 0 l -41 0 "},"Ꙑ":{"x_min":51.21875,"x_max":1697.03125,"ha":1666,"o":"m 499 82 l 572 82 q 754 133 688 82 q 838 293 819 185 q 844 350 844 323 q 647 509 844 509 l 574 509 l 499 82 m 51 760 l 95 1013 l 778 1013 l 765 931 l 648 931 l 588 590 l 729 590 q 1105 356 1105 590 q 1099 295 1105 327 q 957 71 1073 143 q 625 0 842 0 l 133 0 l 148 82 l 264 82 l 411 920 l 162 920 l 135 760 l 51 760 m 1051 0 l 1065 82 l 1182 82 l 1330 931 l 1214 931 l 1228 1013 l 1697 1013 l 1682 931 l 1565 931 l 1416 82 l 1534 82 l 1520 0 l 1051 0 "},"ʻ":{"x_min":51.546875,"x_max":381.125,"ha":435,"o":"m 381 939 q 276 829 314 893 q 221 671 238 765 l 215 634 l 51 634 q 148 870 80 774 q 332 1031 217 966 l 381 939 "},"Ṁ":{"x_min":-35.265625,"x_max":1413.984375,"ha":1383,"o":"m 699 1131 q 684 1201 677 1160 q 724 1271 692 1241 q 792 1301 755 1301 q 850 1271 828 1301 q 864 1201 871 1241 q 825 1131 857 1160 q 757 1102 794 1102 q 699 1131 720 1102 m -35 0 l -21 82 l 94 82 l 243 931 l 127 931 l 141 1013 l 517 1013 l 663 363 l 1038 1013 l 1413 1013 l 1399 931 l 1283 931 l 1135 82 l 1251 82 l 1236 0 l 768 0 l 782 82 l 898 82 l 1034 855 l 627 148 l 473 148 l 315 855 l 180 82 l 296 82 l 282 0 l -35 0 "},"ɔ":{"x_min":16.3125,"x_max":713.921875,"ha":761,"o":"m 75 496 q 202 679 120 619 q 407 740 284 740 q 658 640 581 740 q 704 359 736 541 q 561 80 673 180 q 283 -20 450 -20 q 149 -5 215 -20 q 16 36 82 8 l 50 237 l 116 237 q 145 101 116 145 q 244 56 175 56 q 384 124 334 56 q 463 359 434 192 q 467 593 492 523 q 358 664 442 664 q 245 620 293 664 q 176 496 198 577 l 75 496 "},"ᵎ":{"x_min":67,"x_max":305.15625,"ha":374,"o":"m 216 353 q 184 302 210 323 q 127 282 158 282 q 79 302 96 282 q 67 338 67 317 q 69 353 67 345 q 100 403 74 382 q 155 424 125 424 q 204 403 187 424 q 217 367 217 388 q 216 353 217 361 m 159 817 l 100 817 l 110 862 l 305 862 l 234 511 l 292 511 l 283 466 l 89 466 l 159 817 "},"Ⴋ":{"x_min":14,"x_max":1158.078125,"ha":1326,"o":"m 438 648 q 376 641 400 648 q 335 619 351 634 q 309 578 319 603 q 292 516 300 553 l 231 191 q 228 155 228 173 q 242 102 228 123 q 291 81 257 81 l 362 81 q 435 110 407 81 q 474 191 464 140 l 561 648 l 438 648 m 935 484 q 944 566 944 531 q 930 626 944 604 q 882 648 916 648 l 782 648 l 702 241 q 667 129 690 175 q 610 54 645 83 q 527 12 576 25 q 414 -1 479 -1 l 253 -1 q 75 45 137 -1 q 14 188 14 91 q 15 215 14 202 q 20 241 17 228 l 66 482 q 188 672 90 607 q 455 738 285 738 l 578 738 l 607 887 l 443 887 q 389 894 414 887 q 346 913 364 900 q 318 944 328 925 q 308 985 308 962 q 310 1007 308 998 l 327 1092 l 254 1092 l 271 1176 l 639 1176 l 623 1092 l 547 1092 l 537 1039 q 536 1032 536 1035 q 536 1025 536 1028 q 538 1006 536 1016 q 548 988 541 996 q 568 974 556 979 q 600 969 581 969 l 918 969 l 902 888 l 826 888 l 799 738 l 993 738 q 1115 702 1077 738 q 1154 592 1154 667 q 1151 548 1154 571 q 1143 499 1148 525 l 1079 167 l 1158 167 l 1141 82 l 858 82 l 935 484 "},"ʚ":{"x_min":16.65625,"x_max":848.546875,"ha":899,"o":"m 357 48 q 413 55 391 48 q 480 86 454 69 q 659 356 629 185 q 575 626 692 543 q 518 657 540 651 q 465 670 476 670 q 358 634 400 670 q 306 535 317 599 q 332 441 297 483 q 453 398 368 398 l 476 398 l 461 317 l 438 317 q 303 274 352 317 q 244 181 253 231 q 261 81 233 116 q 357 48 290 48 m 461 741 q 578 728 528 741 q 676 690 638 713 q 842 358 879 567 q 560 26 802 130 q 448 -11 485 -5 q 346 -24 359 -24 q 81 28 159 -24 q 19 176 2 80 q 101 293 31 245 q 286 358 172 341 q 124 423 178 374 q 83 540 71 471 q 196 688 99 636 q 461 741 292 741 "},"↶":{"x_min":95,"x_max":934,"ha":1047,"o":"m 800 395 q 770 518 800 461 q 689 608 740 575 q 578 641 637 641 q 467 608 518 641 q 386 518 416 575 q 359 438 366 480 l 484 514 l 484 479 l 292 196 l 286 196 l 95 479 l 95 514 l 223 434 q 270 592 231 519 q 399 737 317 684 q 578 790 481 790 q 756 737 674 790 q 886 593 839 684 q 934 395 934 502 l 800 395 "},"ῖ":{"x_min":92.90625,"x_max":570.34375,"ha":604,"o":"m 497 22 q 187 30 292 -53 q 114 236 91 107 l 184 639 l 92 639 l 107 721 l 415 721 l 330 234 q 378 82 303 82 q 515 127 452 82 l 497 22 m 96 888 l 98 898 q 157 1048 115 997 q 261 1100 198 1100 q 303 1092 283 1100 q 347 1062 323 1083 l 385 1031 l 387 1029 q 432 1010 410 1010 q 476 1033 457 1010 q 503 1099 495 1057 l 570 1099 l 568 1088 q 509 937 551 989 q 406 887 468 887 q 363 895 383 887 q 318 924 343 903 l 280 955 l 280 956 q 233 977 256 977 q 189 953 208 977 q 164 888 170 929 l 96 888 "},".":{"x_min":98.90625,"x_max":336.09375,"ha":435,"o":"m 101 109 q 151 200 110 162 q 240 238 192 238 q 315 200 288 238 q 333 109 343 162 q 283 17 324 55 q 194 -20 242 -20 q 119 17 147 -20 q 101 109 92 55 "},"ǀ":{"x_min":29.84375,"x_max":338.40625,"ha":368,"o":"m 338 1013 l 161 0 l 29 0 l 207 1013 l 338 1013 "},"ꙇ":{"x_min":93.59375,"x_max":413.6875,"ha":475,"o":"m 111 228 l 183 639 l 93 639 l 108 721 l 413 721 l 329 237 q 332 108 314 149 q 407 67 351 67 l 396 0 l 290 0 q 136 32 176 0 q 111 228 84 75 "},"𝒔":{"x_min":0.046875,"x_max":679.109375,"ha":704,"o":"m 34 222 l 103 222 q 103 202 103 211 q 139 96 103 135 q 247 56 175 56 q 407 154 390 56 q 410 186 410 167 q 394 225 410 205 q 317 263 378 245 l 232 288 q 106 360 136 316 q 76 458 76 404 q 80 508 76 481 q 184 683 101 625 q 400 740 267 740 q 679 697 533 740 l 646 515 l 576 515 q 579 539 579 527 q 441 664 579 664 q 287 572 303 664 q 285 545 285 561 q 360 479 285 501 l 444 453 q 599 372 565 418 q 633 269 633 327 q 628 218 633 245 q 518 37 607 95 q 264 -20 430 -20 q 0 20 144 -20 l 34 222 "},"ʂ":{"x_min":1.15625,"x_max":703.125,"ha":703,"o":"m 24 20 l 54 192 l 59 222 l 126 222 q 163 99 126 141 q 279 57 201 57 q 384 82 344 57 q 431 155 423 107 q 421 222 439 198 q 342 263 403 245 l 257 288 q 125 368 161 317 q 104 508 89 420 q 208 682 125 625 q 444 740 292 740 q 564 729 501 740 q 703 696 627 718 l 671 515 l 602 515 q 574 626 609 588 q 461 663 539 663 q 357 639 395 663 q 311 571 319 616 q 320 514 305 535 q 384 479 336 493 l 468 453 q 629 365 590 418 q 652 218 669 312 q 542 38 631 96 q 288 -19 454 -19 q 233 -19 261 -19 l 221 -85 q 219 -200 207 -168 q 275 -232 231 -232 q 338 -208 316 -232 q 371 -130 360 -184 l 440 -130 l 413 -282 q 324 -302 366 -295 q 244 -309 281 -309 q 46 -252 107 -309 q 5 -85 -13 -195 l 24 20 "},"ԝ":{"x_min":37.984375,"x_max":1112.203125,"ha":1069,"o":"m 803 203 q 895 326 809 208 q 1016 638 981 450 l 931 638 l 946 721 l 1112 721 q 1000 328 1077 461 q 765 0 882 122 l 617 0 l 558 451 l 341 0 l 193 0 l 108 639 l 37 639 l 52 721 l 318 721 l 380 248 l 608 721 l 737 721 l 803 203 "},"⠘":{"x_min":549,"x_max":793,"ha":976,"o":"m 584 852 q 549 948 549 892 q 585 1044 549 1004 q 671 1084 621 1084 q 756 1044 720 1084 q 793 948 793 1004 q 757 852 793 892 q 671 813 721 813 q 584 852 620 813 m 584 491 q 549 587 549 531 q 585 683 549 643 q 671 723 621 723 q 756 683 720 723 q 793 587 793 643 q 757 491 793 531 q 671 452 721 452 q 584 491 620 452 "},"à":{"x_min":34.5,"x_max":720.875,"ha":810,"o":"m 512 593 q 477 634 512 634 q 315 525 395 634 q 248 308 278 475 q 242 134 227 182 q 317 86 258 86 q 409 142 373 86 q 466 324 444 198 l 512 593 m 720 698 l 613 83 l 695 83 l 680 0 l 409 0 l 425 91 q 239 -20 358 -20 q 69 66 121 -20 q 43 303 16 152 q 186 585 69 454 q 510 740 325 740 q 720 698 693 740 m 384 1110 l 496 856 l 396 856 l 214 1110 l 384 1110 "},"₀":{"x_min":19.515625,"x_max":516.1875,"ha":547,"o":"m 162 72 q 218 32 172 32 q 290 72 265 32 q 348 277 315 113 q 372 482 381 441 q 317 524 363 524 q 245 483 270 524 q 186 278 219 442 q 162 72 154 113 m 401 63 q 209 -11 324 -11 q 48 63 94 -11 q 30 278 2 138 q 134 492 58 417 q 326 567 210 567 q 487 492 440 567 q 505 278 533 417 q 401 63 477 138 "},"⡂":{"x_min":183,"x_max":427,"ha":976,"o":"m 218 492 q 183 588 183 532 q 219 684 183 644 q 305 724 255 724 q 390 684 354 724 q 427 588 427 644 q 391 492 427 532 q 304 453 355 453 q 218 492 254 453 m 218 -231 q 183 -135 183 -191 q 219 -39 183 -79 q 305 0 255 0 q 390 -39 354 0 q 427 -135 427 -79 q 391 -231 427 -191 q 304 -271 355 -271 q 218 -231 254 -271 "},"₴":{"x_min":4.0625,"x_max":1093.890625,"ha":1095,"o":"m 899 567 q 863 520 887 543 q 777 460 829 486 l 1060 460 l 1046 378 l 514 378 q 364 314 404 349 q 314 219 324 280 q 342 102 300 142 q 480 62 385 62 q 672 118 596 62 q 786 289 748 174 l 863 289 l 821 48 q 633 -3 724 13 q 453 -20 542 -20 q 187 59 268 -20 q 132 293 105 139 q 154 378 141 339 l 4 378 l 18 460 l 194 460 q 225 498 219 491 q 320 567 263 538 l 37 567 l 51 649 l 587 649 q 739 712 703 682 q 788 809 777 746 q 760 914 800 880 q 630 949 720 949 q 451 900 519 949 q 347 747 383 851 l 269 747 l 308 971 q 495 1016 406 1001 q 664 1031 584 1031 q 901 946 826 1031 q 951 712 977 863 q 936 649 945 678 l 1093 649 l 1079 567 l 899 567 "},"̛":{"x_min":-156.328125,"x_max":108,"ha":0,"o":"m -156 554 l -142 639 q -87 592 -108 605 q -50 580 -67 580 q -7 599 -25 580 q 15 653 9 618 q 20 707 20 680 q 15 761 20 735 l 108 761 q 108 691 108 724 q 103 630 108 659 q 54 511 89 553 q -33 469 18 469 q -95 489 -65 469 q -156 554 -124 510 "},"Ṕ":{"x_min":-29.15625,"x_max":951.71875,"ha":940,"o":"m -29 0 l -14 82 l 101 82 l 250 931 l 133 931 l 147 1013 l 666 1013 q 894 932 818 1013 q 946 717 969 852 q 818 500 922 581 q 562 419 714 419 l 395 419 l 336 82 l 483 82 l 469 0 l -29 0 m 409 501 l 478 501 q 615 559 557 501 q 689 717 672 618 q 670 872 707 814 q 553 931 633 931 l 484 931 l 409 501 m 653 1287 l 823 1287 l 611 1109 l 510 1109 l 653 1287 "},"̳":{"x_min":-625,"x_max":0,"ha":-1,"o":"m 0 -199 l 0 -328 l -625 -328 l -625 -199 l 0 -199 m 0 -13 l 0 -142 l -625 -142 l -625 -13 l 0 -13 "},"ꜞ":{"x_min":49.8125,"x_max":284.75,"ha":345,"o":"m 283 957 q 253 907 278 928 q 198 886 228 886 q 150 907 167 886 q 137 957 132 928 q 168 1008 143 987 q 223 1030 193 1030 q 271 1008 253 1030 q 283 957 288 987 m 199 453 l 49 453 l 150 773 l 163 845 l 216 845 l 199 773 l 199 453 "},"⡫":{"x_min":183,"x_max":793,"ha":976,"o":"m 218 853 q 183 949 183 893 q 219 1045 183 1005 q 305 1085 255 1085 q 390 1045 354 1085 q 427 949 427 1005 q 391 853 427 893 q 304 814 355 814 q 218 853 254 814 m 218 492 q 183 588 183 532 q 219 684 183 644 q 305 724 255 724 q 390 684 354 724 q 427 588 427 644 q 391 492 427 532 q 304 453 355 453 q 218 492 254 453 m 584 853 q 549 949 549 893 q 585 1045 549 1005 q 671 1085 621 1085 q 756 1045 720 1085 q 793 949 793 1005 q 757 853 793 893 q 671 814 721 814 q 584 853 620 814 m 584 129 q 549 225 549 169 q 585 321 549 281 q 671 361 621 361 q 756 321 720 361 q 793 225 793 281 q 757 129 793 169 q 671 90 721 90 q 584 129 620 90 m 218 -231 q 183 -135 183 -191 q 219 -39 183 -79 q 305 0 255 0 q 390 -39 354 0 q 427 -135 427 -79 q 391 -231 427 -191 q 304 -271 355 -271 q 218 -231 254 -271 "},"e":{"x_min":41,"x_max":742,"ha":795,"o":"m 525 564 q 448 664 525 664 q 356 603 391 664 q 291 352 322 542 q 304 352 291 352 q 520 516 491 352 q 525 564 525 542 m 277 281 q 273 206 273 256 q 398 56 273 56 q 520 98 469 56 q 596 218 571 139 l 697 218 q 561 37 649 95 q 332 -20 473 -20 q 91 78 164 -20 q 41 256 41 147 q 51 358 41 303 q 192 640 82 539 q 463 740 302 740 q 660 690 579 740 q 742 548 742 639 q 737 510 742 529 q 277 281 699 281 "},"⊏":{"x_min":132,"x_max":914.21875,"ha":1046,"o":"m 914 1 l 132 1 l 132 871 l 914 871 l 914 715 l 272 715 l 272 157 l 914 157 l 914 1 "},"Ѓ":{"x_min":-29.15625,"x_max":935.875,"ha":863,"o":"m 641 1288 l 811 1288 l 598 1109 l 498 1109 l 641 1288 m -29 0 l -14 82 l 101 82 l 250 931 l 133 931 l 147 1013 l 935 1013 l 894 774 l 810 774 l 835 920 l 484 920 l 337 82 l 480 82 l 467 0 l -29 0 "},"ò":{"x_min":43,"x_max":793,"ha":834,"o":"m 364 56 q 472 121 433 56 q 541 360 511 186 q 562 541 562 474 q 555 599 562 576 q 471 664 540 664 q 362 598 401 664 q 292 360 323 533 q 273 182 273 249 q 279 122 273 145 q 364 56 295 56 m 637 81 q 351 -20 522 -20 q 99 81 179 -20 q 43 267 43 154 q 51 360 43 310 q 197 639 83 539 q 484 740 312 740 q 736 640 656 740 q 793 454 793 567 q 784 360 793 410 q 637 81 752 182 m 436 1110 l 548 856 l 448 856 l 266 1110 l 436 1110 "},"𝜥":{"x_min":-29.15625,"x_max":1127.796875,"ha":1086,"o":"m -29 0 l -14 82 l 101 82 l 250 931 l 133 931 l 147 1013 l 616 1013 l 602 931 l 484 931 l 420 561 l 871 931 l 773 931 l 788 1013 l 1127 1013 l 1113 931 l 992 931 l 610 618 l 961 82 l 1051 82 l 1036 0 l 728 0 l 408 491 l 336 82 l 453 82 l 439 0 l -29 0 "},"⥘":{"x_min":268.15625,"x_max":763,"ha":1046,"o":"m 590 856 l 590 0 l 456 0 l 456 695 l 268 607 l 268 643 l 456 853 l 456 856 l 283 856 l 283 1005 l 763 1005 l 763 856 l 590 856 "},"ℎ":{"x_min":42.734375,"x_max":802.3125,"ha":909,"o":"m 42 0 l 212 974 l 116 974 l 130 1055 l 443 1055 l 366 619 q 472 712 417 683 q 603 741 527 741 q 756 668 712 741 q 784 550 784 623 q 775 458 784 508 l 709 82 l 802 82 l 788 0 l 478 0 l 560 465 q 569 545 569 512 q 561 592 569 575 q 495 628 546 628 q 389 574 429 628 q 329 405 349 521 l 258 0 l 42 0 "},"к":{"x_min":70.71875,"x_max":852.4375,"ha":846,"o":"m 89 639 l 103 721 l 412 721 l 358 415 l 436 487 q 589 647 441 493 q 739 740 680 740 q 852 721 782 740 l 828 581 l 748 581 q 688 641 748 641 q 632 602 665 641 q 497 452 600 563 l 428 379 q 646 272 610 348 q 667 125 654 253 q 717 56 673 56 q 782 161 748 56 l 842 144 q 780 10 826 41 q 654 -20 734 -20 q 491 24 566 -20 q 441 220 441 53 q 410 283 441 270 l 356 304 l 335 281 l 286 0 l 70 0 l 181 639 l 89 639 "},"￼":{"x_min":0,"x_max":0,"ha":0},"⠆":{"x_min":183,"x_max":427,"ha":976,"o":"m 218 491 q 183 587 183 531 q 219 683 183 643 q 305 723 255 723 q 390 683 354 723 q 427 587 427 643 q 391 491 427 531 q 304 452 355 452 q 218 491 254 452 m 218 129 q 183 225 183 169 q 219 321 183 281 q 305 361 255 361 q 390 321 354 361 q 427 225 427 281 q 391 129 427 169 q 304 90 355 90 q 218 129 254 90 "},"⁻":{"x_min":83,"x_max":576,"ha":659,"o":"m 83 746 l 576 746 l 576 660 l 83 660 l 83 746 "},"ṉ":{"x_min":68.734375,"x_max":828.625,"ha":909,"o":"m 68 0 l 180 639 l 88 639 l 102 721 l 411 721 l 393 619 q 498 712 443 683 q 630 741 553 741 q 783 668 739 741 q 811 550 811 623 q 802 458 811 508 l 736 82 l 828 82 l 814 0 l 505 0 l 586 465 q 595 545 595 512 q 588 592 595 575 q 521 628 573 628 q 416 574 455 628 q 356 405 376 521 l 285 0 l 68 0 m 186 -96 l 569 -96 l 548 -224 l 163 -224 l 186 -96 "},"ᵒ":{"x_min":47,"x_max":520,"ha":584,"o":"m 196 531 q 249 495 206 495 q 317 530 293 495 q 361 662 342 566 q 374 761 374 725 q 370 793 374 781 q 317 829 360 829 q 248 793 273 829 q 205 662 223 757 q 193 564 193 600 q 196 531 193 543 m 422 508 q 241 453 349 453 q 82 508 133 453 q 47 611 47 548 q 52 662 47 635 q 144 816 72 760 q 325 872 217 872 q 484 816 433 872 q 520 714 520 776 q 514 662 520 690 q 422 508 494 564 "},"ˆ":{"x_min":131.5625,"x_max":592.046875,"ha":625,"o":"m 332 1111 l 480 1111 l 592 856 l 491 856 l 388 1008 l 231 856 l 131 856 l 332 1111 "},"ū":{"x_min":79.359375,"x_max":838.890625,"ha":909,"o":"m 353 1059 l 737 1059 l 715 931 l 330 931 l 353 1059 m 838 721 l 727 82 l 819 82 l 804 0 l 495 0 l 513 101 q 408 8 463 37 q 277 -20 354 -20 q 124 51 168 -20 q 97 170 97 97 q 105 262 97 212 l 171 639 l 79 639 l 93 721 l 402 721 l 328 299 q 314 169 314 215 q 318 128 314 142 q 386 93 332 93 q 491 146 451 93 q 551 316 531 200 l 621 721 l 838 721 "},"ꙗ":{"x_min":94.84375,"x_max":1196.875,"ha":1286,"o":"m 1196 699 l 1089 83 l 1171 83 l 1156 0 l 885 0 l 901 91 q 715 -20 834 -20 q 545 66 597 -20 q 519 303 498 142 q 521 314 520 308 l 366 314 l 311 0 l 94 0 l 206 639 l 114 639 l 128 721 l 437 721 l 381 395 l 543 395 q 662 585 581 494 q 986 740 801 740 q 1196 699 1169 740 m 988 593 q 953 634 988 634 q 791 525 871 634 q 724 308 754 475 q 719 134 703 182 q 792 86 735 86 q 885 142 849 86 q 943 324 920 198 l 988 593 "},"◸":{"x_min":3,"x_max":957.328125,"ha":961,"o":"m 73 21 l 783 815 l 73 815 l 73 21 m 3 -171 l 3 892 l 957 892 l 3 -171 "},"℧":{"x_min":54.578125,"x_max":1154.921875,"ha":1112,"o":"m 432 906 l 229 906 l 214 821 l 130 821 l 167 1031 l 614 1031 l 592 899 q 425 775 493 878 q 327 491 358 672 q 335 186 292 291 q 495 82 377 82 q 691 186 612 82 q 805 492 770 291 q 805 774 836 669 q 683 899 774 878 l 706 1031 l 1154 1031 l 1118 821 l 1034 821 l 1049 906 l 845 906 q 1034 734 979 843 q 1064 476 1089 625 q 866 131 1026 262 q 480 0 706 0 q 140 131 254 0 q 63 476 26 262 q 183 734 89 625 q 432 906 276 843 "},"Ν":{"x_min":-33.234375,"x_max":1182.046875,"ha":1142,"o":"m -33 0 l -18 82 l 97 82 l 246 931 l 129 931 l 144 1013 l 429 1013 l 853 295 l 965 931 l 849 931 l 863 1013 l 1182 1013 l 1167 931 l 1051 931 l 888 0 l 728 0 l 297 732 l 183 82 l 299 82 l 285 0 l -33 0 "},"⟱":{"x_min":85.921875,"x_max":962.078125,"ha":1048,"o":"m 962 290 l 962 254 l 527 -28 l 521 -28 l 85 254 l 85 290 l 189 262 l 189 1005 l 308 1005 l 308 229 l 373 212 l 373 1005 l 492 1005 l 492 179 l 524 170 l 556 179 l 556 1005 l 675 1005 l 675 212 l 740 229 l 740 1005 l 859 1005 l 859 262 l 962 290 "},"ȝ":{"x_min":-27.8125,"x_max":716.265625,"ha":759,"o":"m 381 660 q 257 615 312 660 q 175 480 201 571 l 107 480 l 142 679 q 440 737 297 737 q 655 669 583 737 q 714 524 727 601 q 519 299 689 386 q 634 226 598 289 q 659 99 670 163 q 214 -221 632 -55 q -27 -293 88 -270 l -14 -217 q 185 -141 80 -193 q 418 70 400 -34 q 402 172 429 135 q 330 209 375 209 q 266 200 293 209 l 145 156 l 159 232 l 284 291 q 414 397 355 325 q 474 514 463 455 q 456 621 486 586 q 381 660 425 660 "},"œ":{"x_min":43,"x_max":1232.53125,"ha":1285,"o":"m 768 280 q 764 205 764 255 q 889 56 764 56 q 1011 98 960 56 q 1087 218 1061 139 l 1188 218 q 1052 37 1141 95 q 821 -20 964 -20 q 604 54 677 -20 q 339 -20 498 -20 q 100 81 180 -20 q 43 267 43 154 q 51 360 43 310 q 198 639 83 539 q 473 740 313 740 q 713 664 633 740 q 943 740 814 740 q 1145 693 1071 740 q 1229 504 1249 626 q 768 280 1190 280 m 1011 516 q 1010 606 1021 567 q 939 664 997 664 q 849 605 882 664 q 782 348 815 540 q 1011 516 981 348 m 279 122 q 364 56 296 56 q 472 121 433 56 q 536 330 511 186 q 562 525 562 473 q 555 599 562 576 q 471 664 540 664 q 362 598 401 664 q 298 391 322 533 q 273 197 273 249 q 279 122 273 145 "},"Ὲ":{"x_min":76.640625,"x_max":1262.75,"ha":1249,"o":"m 266 0 l 280 82 l 397 82 l 545 931 l 429 931 l 443 1013 l 1262 1013 l 1220 774 l 1136 774 l 1162 920 l 778 920 l 722 595 l 960 595 l 983 723 l 1066 723 l 1005 374 l 921 374 l 944 503 l 705 503 l 634 92 l 1028 92 l 1054 238 l 1137 238 l 1096 0 l 266 0 m 246 1111 l 358 856 l 259 856 l 76 1111 l 246 1111 "},"⇦":{"x_min":46.265625,"x_max":976,"ha":1047,"o":"m 915 561 l 277 561 l 277 607 l 133 449 l 277 290 l 277 337 l 915 337 l 915 561 m 976 629 l 976 269 l 339 269 l 339 165 l 301 165 l 46 445 l 46 452 l 301 732 l 339 732 l 339 629 l 976 629 "},"Ɵ":{"x_min":40.125,"x_max":1047.484375,"ha":1088,"o":"m 451 -20 q 115 119 221 -20 q 52 505 9 259 q 250 890 95 750 q 635 1031 406 1031 q 972 891 866 1031 q 1034 505 1078 751 q 836 119 992 259 q 451 -20 681 -20 m 466 62 q 658 171 582 62 q 764 454 725 267 l 305 454 q 312 172 279 269 q 466 62 350 62 m 324 563 l 783 563 q 775 839 808 744 q 621 949 737 949 q 429 838 505 949 q 324 563 362 743 "},"ᵛ":{"x_min":82.734375,"x_max":536.4375,"ha":614,"o":"m 202 463 l 128 815 l 82 815 l 92 860 l 259 860 l 320 564 l 474 815 l 483 860 l 536 860 l 527 815 l 311 463 l 202 463 "},"ș":{"x_min":0.046875,"x_max":679.109375,"ha":704,"o":"m 183 -272 q 265 -208 236 -243 q 302 -126 294 -172 l 307 -97 l 438 -97 l 437 -99 q 372 -228 424 -175 q 226 -320 320 -282 l 183 -272 m 34 222 l 103 222 q 103 202 103 211 q 139 96 103 135 q 247 56 175 56 q 407 154 390 56 q 410 186 410 167 q 394 225 410 205 q 317 263 378 245 l 232 288 q 106 360 136 316 q 76 458 76 404 q 80 508 76 481 q 184 683 101 625 q 400 740 267 740 q 679 697 533 740 l 646 515 l 576 515 q 579 539 579 527 q 441 664 579 664 q 287 572 303 664 q 285 545 285 561 q 360 479 285 501 l 444 453 q 599 372 565 418 q 633 269 633 327 q 628 218 633 245 q 518 37 607 95 q 264 -20 430 -20 q 0 20 144 -20 l 34 222 "},"𝜡":{"x_min":-41.375,"x_max":950.109375,"ha":912,"o":"m -41 0 l -25 95 l 663 920 l 226 920 l 200 768 l 116 768 l 159 1013 l 950 1013 l 933 917 l 251 93 l 712 93 l 737 234 l 820 234 l 779 0 l -41 0 "},"𝑸":{"x_min":62,"x_max":1069,"ha":1088,"o":"m 470 -18 q 136 120 239 -18 q 62 370 62 219 q 74 504 62 432 q 272 890 116 750 q 657 1031 428 1031 q 993 891 887 1031 q 1069 638 1069 791 q 1056 505 1069 576 q 894 155 1018 289 q 580 -11 770 20 q 649 -66 605 -49 q 831 -106 749 -106 l 949 -106 l 920 -273 l 815 -273 q 567 -194 662 -273 q 470 -18 499 -138 m 487 62 q 680 171 604 62 q 795 505 756 280 q 815 705 815 620 q 796 839 815 786 q 643 949 759 949 q 451 838 527 949 q 335 505 374 728 q 316 308 316 392 q 334 171 316 226 q 487 62 372 62 "},"◺":{"x_min":3,"x_max":957.328125,"ha":961,"o":"m 73 -94 l 783 -94 l 73 699 l 73 -94 m 3 -171 l 3 892 l 957 -171 l 3 -171 "},"ἱ":{"x_min":92.90625,"x_max":515.40625,"ha":604,"o":"m 497 22 q 187 30 292 -53 q 114 236 91 107 l 184 639 l 92 639 l 107 721 l 415 721 l 330 234 q 378 82 303 82 q 515 127 452 82 l 497 22 m 321 973 q 365 860 331 892 l 299 828 q 234 954 252 909 q 234 1042 223 981 q 276 1124 241 1080 q 354 1163 312 1163 q 413 1133 394 1163 q 427 1063 433 1100 q 387 993 419 1021 q 321 973 358 967 "},"Ѵ":{"x_min":84.359375,"x_max":1217.578125,"ha":1144,"o":"m 84 931 l 98 1013 l 525 1013 l 511 931 l 423 931 l 551 260 l 909 916 q 1064 1031 974 1031 q 1217 1005 1136 1031 l 1187 837 l 1119 837 q 1124 890 1124 865 q 1111 935 1124 915 q 1056 955 1097 955 q 986 901 1016 955 l 496 0 l 350 0 l 170 931 l 84 931 "},"Ȫ":{"x_min":40.125,"x_max":1047.484375,"ha":1088,"o":"m 580 1523 l 964 1523 l 942 1395 l 558 1395 l 580 1523 m 466 62 q 658 171 582 62 q 773 505 734 280 q 775 839 813 730 q 621 949 737 949 q 428 838 505 949 q 314 505 352 728 q 312 172 274 282 q 466 62 350 62 m 451 -20 q 115 119 221 -20 q 52 505 9 259 q 250 890 95 750 q 635 1031 406 1031 q 972 891 866 1031 q 1034 505 1078 751 q 836 119 992 259 q 451 -20 681 -20 m 489 1134 q 474 1204 467 1163 q 514 1274 482 1244 q 581 1304 545 1304 q 639 1274 618 1304 q 653 1204 660 1244 q 615 1134 646 1163 q 547 1105 584 1105 q 489 1134 511 1105 m 761 1134 q 747 1204 740 1163 q 786 1274 754 1244 q 854 1304 817 1304 q 912 1274 891 1304 q 927 1204 935 1244 q 888 1134 920 1163 q 819 1105 856 1105 q 761 1134 783 1105 "},"ˈ":{"x_min":88.84375,"x_max":263.8125,"ha":353,"o":"m 88 713 l 149 1055 l 263 1055 l 204 713 l 88 713 "},"ɘ":{"x_min":44,"x_max":744.921875,"ha":794,"o":"m 296 407 l 504 407 l 507 419 q 516 607 530 551 q 446 664 502 664 q 354 606 388 664 q 296 407 321 549 m 45 326 q 188 635 83 529 q 453 740 292 740 q 692 640 617 740 q 735 360 766 539 q 596 78 703 177 q 320 -20 488 -20 q 112 37 180 -20 q 44 218 44 95 l 142 218 q 178 98 142 139 q 284 56 214 56 q 417 118 368 56 q 489 320 465 180 l 491 326 l 45 326 "},"₈":{"x_min":11.34375,"x_max":520.328125,"ha":547,"o":"m 370 296 q 465 247 437 285 q 480 147 493 209 q 397 30 465 71 q 215 -11 328 -11 q 51 30 103 -11 q 14 147 0 70 q 70 247 27 209 q 184 296 113 285 q 103 341 126 309 q 88 421 79 373 q 165 529 103 492 q 332 567 227 567 q 484 529 436 567 q 516 422 531 492 q 470 341 507 373 q 370 296 434 309 m 367 419 q 369 501 379 479 q 323 524 358 524 q 268 501 287 524 q 238 419 249 479 q 236 339 226 361 q 282 318 246 318 q 337 339 318 318 q 367 419 356 361 m 328 154 q 330 248 343 222 q 273 274 317 274 q 206 248 229 274 q 169 154 183 222 q 168 58 155 85 q 225 32 180 32 q 291 58 268 32 q 328 154 315 85 "},"ạ":{"x_min":33.484375,"x_max":719.875,"ha":810,"o":"m 511 594 q 476 635 511 635 q 314 526 394 635 q 247 309 277 476 q 241 135 226 183 q 316 87 257 87 q 408 143 372 87 q 465 325 443 199 l 511 594 m 719 699 l 612 83 l 694 83 l 679 0 l 408 0 l 424 92 q 238 -19 357 -19 q 68 67 120 -19 q 42 304 15 153 q 185 586 68 455 q 509 741 324 741 q 719 699 692 741 m 176 -196 q 215 -126 184 -155 q 283 -97 246 -97 q 342 -126 319 -97 q 356 -196 363 -155 q 317 -266 349 -236 q 249 -296 285 -296 q 191 -266 212 -296 q 176 -196 169 -236 "},"⇖":{"x_min":185,"x_max":966.25,"ha":1047,"o":"m 241 488 l 208 398 l 185 423 l 185 820 l 188 825 l 546 825 l 568 799 l 487 761 l 966 230 l 882 136 l 368 708 l 312 683 l 290 621 l 804 49 l 720 -43 l 241 488 "},"д":{"x_min":43,"x_max":828,"ha":869,"o":"m 273 182 q 279 122 273 145 q 364 56 296 56 q 467 115 432 56 q 533 323 503 173 q 564 540 564 473 q 555 598 564 577 q 470 663 527 663 q 361 597 401 663 q 297 390 322 532 q 273 182 273 249 m 43 266 q 51 360 43 310 q 197 639 82 538 q 465 740 312 740 q 552 714 516 740 q 604 660 588 688 q 586 870 618 780 q 448 978 547 978 q 321 922 384 978 l 276 979 q 462 1055 340 1055 q 795 899 723 1055 q 828 699 828 827 q 767 290 828 482 q 637 81 724 158 q 351 -20 522 -20 q 100 81 179 -20 q 43 266 43 154 "},"ӥ":{"x_min":79.359375,"x_max":838.890625,"ha":909,"o":"m 838 721 l 727 82 l 819 82 l 804 0 l 495 0 l 513 101 q 408 8 463 37 q 277 -20 354 -20 q 124 51 168 -20 q 97 170 97 97 q 105 262 97 212 l 171 639 l 79 639 l 93 721 l 402 721 l 328 299 q 314 169 314 215 q 318 128 314 142 q 386 93 332 93 q 491 146 451 93 q 551 316 531 200 l 621 721 l 838 721 m 351 995 q 389 1065 358 1036 q 458 1095 421 1095 q 516 1065 495 1095 q 529 995 537 1036 q 491 925 522 955 q 424 896 460 896 q 365 925 387 896 q 351 995 344 955 m 623 995 q 662 1065 631 1036 q 730 1095 693 1095 q 789 1065 767 1095 q 803 995 811 1036 q 764 925 796 955 q 696 896 733 896 q 638 925 659 896 q 623 995 617 955 "},"ʛ":{"x_min":41.046875,"x_max":1006.078125,"ha":783,"o":"m 608 488 q 557 622 608 566 q 473 664 520 664 q 344 590 402 664 q 256 356 284 516 q 260 124 228 198 q 357 50 291 50 q 427 77 387 50 l 463 278 l 374 278 l 384 335 l 679 335 l 633 65 q 481 10 555 28 q 333 -7 407 -7 q 95 90 171 -7 q 49 356 20 187 q 188 623 79 526 q 460 721 298 721 q 509 718 485 721 l 528 831 q 628 998 548 941 q 846 1055 709 1055 q 923 1048 882 1055 q 1006 1028 963 1041 l 978 876 l 910 876 q 904 954 918 930 q 850 978 890 978 q 782 946 806 978 q 744 831 759 914 l 715 659 l 696 553 l 684 488 l 608 488 "},"Ḙ":{"x_min":-29.15625,"x_max":967.0625,"ha":952,"o":"m -29 0 l -14 82 l 101 82 l 250 931 l 133 931 l 147 1013 l 967 1013 l 925 774 l 840 774 l 866 920 l 482 920 l 426 595 l 665 595 l 687 723 l 771 723 l 710 374 l 625 374 l 649 503 l 410 503 l 338 92 l 733 92 l 758 238 l 842 238 l 800 0 l -29 0 m 322 -79 l 469 -79 l 581 -334 l 480 -334 l 377 -181 l 221 -333 l 120 -333 l 322 -79 "},"𝜳":{"x_min":82.734375,"x_max":1222.0625,"ha":1141,"o":"m 857 618 l 890 806 l 890 806 q 1043 1013 925 1013 l 1222 1013 l 1207 931 l 1145 931 q 1069 806 1089 931 l 1034 607 q 905 330 1000 414 q 644 256 820 256 l 614 82 l 731 82 l 716 0 l 248 0 l 262 82 l 379 82 l 408 256 q 176 330 230 256 q 142 607 109 418 l 177 806 q 145 931 200 931 l 82 931 l 96 1013 l 275 1013 q 356 806 393 1013 l 356 806 l 323 618 q 341 391 295 456 q 424 341 362 360 l 527 931 l 410 931 l 425 1013 l 894 1013 l 879 931 l 762 931 l 659 341 q 760 391 731 354 q 857 618 834 484 "},"⠴":{"x_min":183,"x_max":793,"ha":976,"o":"m 218 129 q 183 225 183 169 q 219 321 183 281 q 305 361 255 361 q 390 321 354 361 q 427 225 427 281 q 391 129 427 169 q 304 90 355 90 q 218 129 254 90 m 584 491 q 549 587 549 531 q 585 683 549 643 q 671 723 621 723 q 756 683 720 723 q 793 587 793 643 q 757 491 793 531 q 671 452 721 452 q 584 491 620 452 m 584 129 q 549 225 549 169 q 585 321 549 281 q 671 361 621 361 q 756 321 720 361 q 793 225 793 281 q 757 129 793 169 q 671 90 721 90 q 584 129 620 90 "},"ʐ":{"x_min":8.140625,"x_max":836.859375,"ha":709,"o":"m 8 -1 l 22 81 l 492 641 l 212 641 l 190 517 l 118 517 l 153 720 l 757 720 l 743 639 l 272 80 l 645 80 l 642 59 l 643 59 l 617 -85 q 615 -200 603 -168 q 672 -232 627 -232 q 734 -208 712 -232 q 767 -130 756 -184 l 836 -130 l 809 -282 q 720 -302 762 -295 q 640 -309 677 -309 q 443 -252 505 -309 q 402 -85 382 -197 l 417 -1 l 8 -1 "},"ὂ":{"x_min":43,"x_max":793,"ha":834,"o":"m 364 56 q 472 121 433 56 q 541 360 511 186 q 562 541 562 474 q 555 599 562 576 q 471 664 540 664 q 362 598 401 664 q 292 360 323 533 q 273 182 273 249 q 279 122 273 145 q 364 56 295 56 m 637 81 q 351 -20 522 -20 q 99 81 179 -20 q 43 267 43 154 q 51 360 43 310 q 197 639 83 539 q 484 740 312 740 q 736 640 656 740 q 793 454 793 567 q 784 360 793 410 q 637 81 752 182 m 313 973 q 253 993 274 967 q 239 1063 232 1021 q 278 1133 246 1099 q 346 1162 306 1162 q 411 1124 388 1162 q 424 1041 431 1079 q 393 954 414 981 q 285 828 360 909 l 230 860 q 313 973 274 891 m 640 1110 l 752 856 l 652 856 l 470 1110 l 640 1110 "},"↟":{"x_min":269,"x_max":779,"ha":1048,"o":"m 591 0 l 457 0 l 457 633 l 269 545 l 269 580 l 457 791 l 457 803 l 269 714 l 269 750 l 521 1033 l 527 1033 l 779 750 l 779 714 l 591 803 l 591 791 l 779 580 l 779 545 l 591 633 l 591 0 "},"î":{"x_min":56.28125,"x_max":516.765625,"ha":475,"o":"m 302 82 l 394 82 l 380 0 l 71 0 l 183 639 l 91 639 l 105 721 l 413 721 l 302 82 m 257 1110 l 405 1110 l 516 856 l 416 856 l 313 1008 l 156 856 l 56 856 l 257 1110 "},"ύ":{"x_min":91.546875,"x_max":827.65625,"ha":867,"o":"m 380 -1 q 113 236 71 -1 l 183 639 l 91 639 l 105 721 l 414 721 l 328 235 q 395 82 302 82 q 509 161 455 82 q 587 391 560 237 q 596 588 610 521 q 563 691 579 674 l 568 721 l 647 721 q 794 588 746 676 q 821 380 842 500 q 762 215 802 275 q 654 92 701 128 q 525 23 596 47 q 380 -1 455 -1 m 586 1111 l 756 1111 l 484 856 l 383 856 l 586 1111 "},"ϰ":{"x_min":1.21875,"x_max":819.359375,"ha":818,"o":"m 410 270 l 332 238 q 264 133 306 196 q 11 20 116 -84 q 24 139 -14 47 q 151 293 60 225 l 216 350 q 305 563 296 492 q 295 628 312 617 q 224 619 258 651 q 152 483 178 574 l 83 483 l 119 683 q 266 722 200 714 q 339 708 291 725 q 438 594 438 677 q 426 444 438 514 l 493 477 l 561 582 q 808 695 702 799 q 796 576 835 668 q 668 422 760 490 l 603 365 q 518 152 528 225 q 534 87 511 104 q 596 97 564 65 q 667 233 642 142 l 736 233 l 701 32 q 553 -7 617 0 q 480 7 525 -10 q 387 121 387 44 q 410 270 387 199 "},"ɓ":{"x_min":31.203125,"x_max":806.78125,"ha":873,"o":"m 303 324 q 301 142 282 198 q 384 86 320 86 q 488 145 450 86 q 553 360 526 205 q 564 574 581 515 q 480 634 547 634 q 377 577 416 634 q 316 395 338 521 l 303 324 m 177 831 q 276 998 196 941 q 494 1055 356 1055 q 571 1048 531 1055 q 653 1028 611 1041 l 627 876 l 558 876 q 552 954 566 930 q 498 978 539 978 q 430 946 454 978 q 393 830 407 914 l 357 629 q 445 712 394 684 q 564 740 497 740 q 765 638 703 740 q 796 360 827 537 q 668 81 765 183 q 432 -20 571 -20 q 322 7 363 -20 q 263 91 280 34 l 246 0 l 31 0 l 177 831 "},"ǫ":{"x_min":43,"x_max":793,"ha":834,"o":"m 364 56 q 472 121 433 56 q 541 360 511 187 q 562 541 562 474 q 555 599 562 576 q 471 664 540 664 q 362 598 401 664 q 292 360 323 533 q 273 183 273 249 q 279 122 273 145 q 364 56 295 56 m 637 81 q 351 -20 522 -20 q 99 81 179 -20 q 43 267 43 154 q 51 360 43 310 q 197 639 83 539 q 484 740 312 740 q 736 640 656 740 q 793 454 793 567 q 784 360 793 410 q 637 81 752 182 m 318 -11 l 394 -11 q 340 -80 357 -55 q 321 -124 324 -105 q 330 -167 315 -152 q 377 -183 345 -183 q 426 -177 401 -183 q 477 -162 452 -172 l 458 -268 q 394 -279 424 -275 q 338 -283 363 -283 q 236 -251 269 -283 q 213 -163 203 -220 q 245 -91 220 -128 q 318 -11 270 -54 "},"⢧":{"x_min":183,"x_max":793,"ha":976,"o":"m 218 853 q 183 949 183 893 q 219 1045 183 1005 q 305 1085 255 1085 q 390 1045 354 1085 q 427 949 427 1005 q 391 853 427 893 q 304 814 355 814 q 218 853 254 814 m 218 492 q 183 588 183 532 q 219 684 183 644 q 305 724 255 724 q 390 684 354 724 q 427 588 427 644 q 391 492 427 532 q 304 453 355 453 q 218 492 254 453 m 218 129 q 183 225 183 169 q 219 321 183 281 q 305 361 255 361 q 390 321 354 361 q 427 225 427 281 q 391 129 427 169 q 304 90 355 90 q 218 129 254 90 m 584 129 q 549 225 549 169 q 585 321 549 281 q 671 361 621 361 q 756 321 720 361 q 793 225 793 281 q 757 129 793 169 q 671 90 721 90 q 584 129 620 90 m 584 -231 q 549 -135 549 -191 q 585 -39 549 -79 q 671 0 621 0 q 756 -39 720 0 q 793 -135 793 -79 q 757 -231 793 -191 q 671 -271 721 -271 q 584 -231 620 -271 "},"⠗":{"x_min":183,"x_max":793,"ha":976,"o":"m 218 853 q 183 949 183 893 q 219 1045 183 1005 q 305 1085 255 1085 q 390 1045 354 1085 q 427 949 427 1005 q 391 853 427 893 q 304 814 355 814 q 218 853 254 814 m 218 491 q 183 587 183 531 q 219 683 183 643 q 305 723 255 723 q 390 683 354 723 q 427 587 427 643 q 391 491 427 531 q 304 452 355 452 q 218 491 254 452 m 218 129 q 183 225 183 169 q 219 321 183 281 q 305 361 255 361 q 390 321 354 361 q 427 225 427 281 q 391 129 427 169 q 304 90 355 90 q 218 129 254 90 m 584 491 q 549 587 549 531 q 585 683 549 643 q 671 723 621 723 q 756 683 720 723 q 793 587 793 643 q 757 491 793 531 q 671 452 721 452 q 584 491 620 452 "},"":{"x_min":41,"x_max":989,"ha":1087,"o":"m 726 1049 q 721 1108 735 1090 q 680 1126 708 1126 q 658 1122 669 1126 q 636 1110 647 1119 q 618 1087 626 1102 q 605 1049 611 1072 q 602 1012 600 1026 q 609 987 603 997 q 623 970 615 976 q 642 957 632 963 q 694 992 670 971 q 726 1049 717 1013 m 426 1048 l 408 962 q 385 916 397 945 q 362 850 373 886 q 339 773 350 814 q 318 691 328 732 q 299 613 308 650 q 283 545 290 575 q 257 339 257 425 q 277 196 257 252 q 340 114 297 140 q 449 88 383 88 q 560 113 512 88 q 647 193 609 139 q 714 328 685 246 q 768 521 743 410 q 777 620 777 569 q 760 717 777 671 q 712 802 744 763 q 631 862 681 840 q 559 795 587 834 q 522 716 531 756 q 531 644 514 677 q 596 596 549 612 l 567 465 q 467 492 508 472 q 404 541 427 512 q 375 606 381 570 q 376 680 368 642 q 398 741 383 710 q 436 801 414 772 q 487 856 458 830 q 552 903 517 883 q 518 924 534 911 q 489 955 501 937 q 472 997 477 974 q 473 1048 467 1020 q 505 1128 483 1096 q 556 1180 527 1160 q 623 1208 586 1200 q 701 1217 660 1217 q 781 1208 745 1217 q 839 1181 816 1200 q 869 1129 861 1162 q 866 1048 877 1097 q 849 1003 860 1022 q 822 969 839 984 q 781 941 804 954 q 724 915 757 929 q 869 848 810 889 q 958 752 927 807 q 989 627 989 696 q 969 474 989 557 q 928 348 955 410 q 862 232 901 287 q 775 131 823 177 q 670 51 727 85 q 551 -1 614 17 q 420 -20 488 -20 q 211 21 293 -20 q 84 133 128 62 q 41 298 41 204 q 64 496 41 391 q 102 635 80 574 q 153 749 124 696 q 222 849 183 801 q 315 947 261 896 q 295 945 305 945 q 275 945 285 945 q 223 954 247 945 q 180 982 199 963 l 226 1185 q 301 1076 265 1113 q 365 1038 337 1038 q 385 1041 374 1038 q 411 1050 397 1045 l 426 1048 "},"⥼":{"x_min":205,"x_max":858,"ha":1047,"o":"m 434 15 q 272 89 339 15 q 205 269 205 164 q 272 449 205 375 q 205 628 205 524 q 272 808 205 733 q 434 883 339 883 l 434 734 q 366 703 394 734 q 339 628 339 672 q 366 554 339 585 q 434 524 394 524 l 858 524 l 858 375 l 434 375 q 366 344 394 375 q 339 269 339 313 q 366 194 339 225 q 434 164 394 164 l 434 15 "},"𝒓":{"x_min":69.5,"x_max":734.109375,"ha":659,"o":"m 734 729 l 696 514 l 626 514 q 629 540 629 528 q 614 599 629 578 q 548 628 594 628 q 424 558 477 628 q 350 366 371 489 l 285 0 l 69 0 l 181 639 l 82 639 l 97 721 l 411 721 l 389 592 q 493 704 434 668 q 626 741 551 741 q 672 737 645 741 q 734 729 699 734 "},"‸":{"x_min":126.140625,"x_max":790.0625,"ha":916,"o":"m 790 -330 l 666 -330 l 457 -159 l 249 -330 l 126 -330 l 457 41 l 790 -330 "},"↨":{"x_min":268.5625,"x_max":777.84375,"ha":1046,"o":"m 590 149 l 763 149 l 763 0 l 283 0 l 283 149 l 456 149 l 456 151 l 268 361 l 268 397 l 456 309 l 456 802 l 268 714 l 268 749 l 520 1032 l 526 1032 l 777 749 l 777 714 l 590 802 l 590 309 l 777 397 l 777 361 l 590 151 l 590 149 "},"Ξ":{"x_min":-18.984375,"x_max":891.796875,"ha":879,"o":"m 672 189 l 689 286 l 764 286 l 714 0 l -18 0 l 31 286 l 106 286 l 88 189 l 672 189 m 783 824 l 200 824 l 183 726 l 107 726 l 158 1013 l 891 1013 l 841 726 l 767 726 l 783 824 m 292 503 l 269 374 l 194 374 l 255 723 l 330 723 l 308 595 l 595 595 l 617 723 l 693 723 l 632 374 l 556 374 l 579 503 l 292 503 "},"⥏":{"x_min":456,"x_max":777.84375,"ha":1046,"o":"m 456 1037 l 462 1037 l 777 682 l 777 646 l 590 735 l 590 269 l 777 358 l 777 322 l 462 -32 l 456 -32 l 456 1037 "},"𝑿":{"x_min":-65.109375,"x_max":1010.46875,"ha":970,"o":"m 404 390 l 160 82 l 272 82 l 258 0 l -65 0 l -50 82 l 61 82 l 368 469 l 164 931 l 80 931 l 95 1013 l 547 1013 l 533 931 l 434 931 l 560 645 l 784 931 l 678 931 l 693 1013 l 1010 1013 l 996 931 l 883 931 l 594 567 l 809 82 l 895 82 l 880 0 l 425 0 l 440 82 l 541 82 l 404 390 "},"⡉":{"x_min":183,"x_max":793,"ha":976,"o":"m 218 853 q 183 949 183 893 q 219 1045 183 1005 q 305 1085 255 1085 q 390 1045 354 1085 q 427 949 427 1005 q 391 853 427 893 q 304 814 355 814 q 218 853 254 814 m 584 853 q 549 949 549 893 q 585 1045 549 1005 q 671 1085 621 1085 q 756 1045 720 1085 q 793 949 793 1005 q 757 853 793 893 q 671 814 721 814 q 584 853 620 814 m 218 -231 q 183 -135 183 -191 q 219 -39 183 -79 q 305 0 255 0 q 390 -39 354 0 q 427 -135 427 -79 q 391 -231 427 -191 q 304 -271 355 -271 q 218 -231 254 -271 "},"ŵ":{"x_min":37.984375,"x_max":1112.203125,"ha":1076,"o":"m 560 1111 l 708 1111 l 819 856 l 718 856 l 615 1008 l 459 856 l 358 856 l 560 1111 m 803 203 q 895 326 809 208 q 1016 638 981 450 l 931 638 l 946 721 l 1112 721 q 1000 328 1077 461 q 765 0 882 122 l 617 0 l 558 451 l 341 0 l 193 0 l 108 639 l 37 639 l 52 721 l 318 721 l 380 248 l 608 721 l 737 721 l 803 203 "},"⣑":{"x_min":183,"x_max":793,"ha":976,"o":"m 218 853 q 183 949 183 893 q 219 1045 183 1005 q 305 1085 255 1085 q 390 1045 354 1085 q 427 949 427 1005 q 391 853 427 893 q 304 814 355 814 q 218 853 254 814 m 584 492 q 549 588 549 532 q 585 684 549 644 q 671 724 621 724 q 756 684 720 724 q 793 588 793 644 q 757 492 793 532 q 671 453 721 453 q 584 492 620 453 m 218 -231 q 183 -135 183 -191 q 219 -39 183 -79 q 305 0 255 0 q 390 -39 354 0 q 427 -135 427 -79 q 391 -231 427 -191 q 304 -271 355 -271 q 218 -231 254 -271 m 584 -231 q 549 -135 549 -191 q 585 -39 549 -79 q 671 0 621 0 q 756 -39 720 0 q 793 -135 793 -79 q 757 -231 793 -191 q 671 -271 721 -271 q 584 -231 620 -271 "},"ᾚ":{"x_min":75.953125,"x_max":1729.328125,"ha":1697,"o":"m 486 0 l 500 82 l 617 82 l 765 931 l 649 931 l 663 1013 l 1131 1013 l 1117 931 l 1000 931 l 940 590 l 1303 590 l 1363 931 l 1246 931 l 1260 1013 l 1729 1013 l 1715 931 l 1597 931 l 1449 82 l 1566 82 l 1552 0 l 1083 0 l 1097 82 l 1214 82 l 1287 497 l 924 497 l 851 82 l 969 82 l 954 0 l 486 0 m 159 973 q 99 994 120 967 q 85 1063 77 1021 q 124 1133 92 1100 q 192 1163 152 1163 q 257 1124 234 1163 q 270 1041 276 1079 q 239 954 259 981 q 130 828 206 909 l 75 860 q 159 973 120 892 m 486 1111 l 598 856 l 498 856 l 316 1111 l 486 1111 m 1097 -277 l 1051 -288 q 933 -171 906 -322 l 948 -83 l 1068 -83 l 1051 -180 q 1073 -234 1040 -243 l 1106 -225 l 1097 -277 "},"№":{"x_min":-41.71875,"x_max":1304,"ha":1358,"o":"m 1017 670 q 1160 749 1084 749 q 1277 669 1236 749 q 1304 565 1304 616 q 1211 287 1304 393 q 1065 207 1142 207 q 956 271 988 207 q 924 387 924 336 q 1017 670 924 559 m 1212 513 q 1194 583 1212 549 q 1138 617 1177 617 q 1064 576 1098 617 q 1016 440 1016 519 q 1032 371 1016 404 q 1089 339 1049 339 q 1164 379 1129 339 q 1212 513 1212 435 m 863 94 l 1229 94 l 1213 2 l 847 2 l 863 94 m 772 814 q 838 961 789 908 q 1016 1015 887 1015 l 998 908 q 892 888 916 908 q 858 815 869 869 l 717 2 l 557 2 l 298 731 l 202 180 q 136 33 186 86 q -41 -20 87 -20 l -22 86 q 82 105 58 86 q 116 178 106 124 l 247 930 l 131 930 l 145 1012 l 430 1012 l 682 298 l 772 814 "},"ẏ":{"x_min":-22.90625,"x_max":797.6875,"ha":726,"o":"m 303 -185 l 130 639 l 59 639 l 74 721 l 339 721 l 485 23 q 602 263 554 136 q 695 637 649 390 l 608 637 l 622 720 l 797 720 q 760 521 782 633 q 638 118 706 246 q 316 -274 459 -213 q 118 -309 234 -309 q -22 -279 60 -309 l 3 -129 l 72 -129 q 70 -159 70 -145 q 98 -221 70 -206 q 137 -231 111 -227 q 166 -234 152 -234 q 303 -185 234 -234 m 369 994 q 408 1064 377 1035 q 476 1094 439 1094 q 535 1064 512 1094 q 549 994 556 1035 q 510 924 542 954 q 442 895 478 895 q 384 924 405 895 q 369 994 362 954 "},"𝝏":{"x_min":46,"x_max":624,"ha":667,"o":"m 465 448 q 482 576 476 515 q 489 682 489 637 q 473 788 489 749 q 430 828 457 828 q 341 778 403 828 q 243 729 278 729 q 199 749 217 729 q 182 798 182 769 q 234 878 182 841 q 363 915 287 915 q 552 805 480 915 q 624 512 624 696 q 528 132 624 282 q 286 -17 432 -17 q 113 60 181 -17 q 46 258 46 138 q 116 481 46 392 q 292 571 187 571 q 396 541 354 571 q 465 448 437 511 m 427 351 q 403 471 427 429 q 336 514 380 514 q 233 423 274 514 q 193 191 193 332 q 216 71 193 112 q 284 30 240 30 q 386 120 346 30 q 427 351 427 211 "},"ƫ":{"x_min":79.34375,"x_max":646.296875,"ha":577,"o":"m 235 639 l 141 639 l 155 721 l 250 721 l 288 944 l 505 944 l 465 721 l 646 721 l 632 639 l 451 639 l 374 197 q 367 80 358 103 q 412 57 377 57 l 581 57 l 556 -84 q 456 -252 537 -195 q 238 -309 376 -309 q 162 -302 202 -309 q 79 -282 122 -295 l 105 -130 l 174 -130 q 180 -208 166 -184 q 234 -232 194 -232 q 302 -200 278 -232 q 340 -84 325 -169 l 351 -19 q 349 -19 350 -19 q 176 26 215 -19 q 158 197 136 73 l 235 639 "},"ί":{"x_min":92.90625,"x_max":596.109375,"ha":604,"o":"m 497 22 q 187 30 292 -53 q 114 236 91 107 l 184 639 l 92 639 l 107 721 l 415 721 l 330 234 q 378 82 303 82 q 515 127 452 82 l 497 22 m 425 1111 l 596 1111 l 323 856 l 223 856 l 425 1111 "},"":{"x_min":43,"x_max":1036.859375,"ha":1058,"o":"m 540 1011 q 543 1086 551 1062 q 500 1110 534 1110 q 462 1093 479 1110 q 431 1047 445 1077 q 405 972 418 1016 q 380 871 392 928 l 367 817 q 438 846 409 831 q 486 884 466 862 q 517 936 505 905 q 540 1011 529 966 m 1030 854 q 1010 800 1023 826 q 976 753 996 775 q 933 715 957 732 q 883 683 909 697 q 920 656 904 671 q 947 622 937 641 q 961 583 957 604 q 959 536 964 561 q 941 494 954 513 q 910 460 928 476 q 868 432 891 444 q 821 407 845 419 q 857 375 840 393 q 883 333 873 357 q 892 279 892 309 q 885 209 892 248 q 829 107 872 150 q 723 36 787 64 q 578 -6 659 7 q 409 -20 497 -20 q 304 -11 356 -20 q 206 16 252 -3 q 124 67 161 35 q 65 145 87 98 q 43 255 43 192 q 61 399 43 317 l 127 698 q 199 940 159 841 q 287 1100 238 1039 q 395 1189 336 1162 q 522 1217 453 1217 q 670 1157 632 1217 q 681 982 707 1097 q 646 888 669 927 q 584 818 624 849 q 486 763 545 788 q 344 711 428 738 l 276 414 q 260 291 260 343 q 268 203 260 240 q 294 144 276 167 q 334 109 311 121 q 383 92 357 96 q 436 88 410 88 q 521 100 480 88 q 593 132 562 113 q 646 174 625 151 q 672 218 667 197 q 683 274 679 249 q 683 318 687 300 q 664 347 679 337 q 618 361 649 358 q 591 342 608 354 q 556 318 574 330 q 523 295 538 306 q 500 279 507 284 l 557 533 l 638 451 q 690 457 671 451 q 720 475 709 463 q 735 501 730 486 q 744 536 740 517 q 751 573 748 555 q 748 606 753 592 q 727 631 743 621 q 681 643 712 641 q 655 626 672 637 q 620 603 638 615 q 587 581 603 591 q 564 566 572 571 l 616 797 l 699 730 q 756 741 735 730 q 788 771 776 753 q 806 812 800 789 q 817 857 812 835 q 836 975 836 927 q 827 1058 836 1023 q 800 1121 819 1094 q 748 1179 781 1149 l 801 1221 q 906 1167 858 1205 q 985 1078 953 1128 q 1030 969 1017 1027 q 1030 854 1043 910 "},"⤳":{"x_min":52.90625,"x_max":1001,"ha":1047,"o":"m 615 523 l 794 523 l 714 732 l 746 732 l 1001 452 l 1001 445 l 746 165 l 714 165 l 794 374 l 615 374 q 510 396 562 374 q 417 463 458 419 q 370 497 398 486 q 316 510 341 510 q 262 497 289 510 q 214 461 234 484 l 148 388 l 52 493 l 119 567 q 212 636 158 612 q 317 660 265 660 q 422 637 370 660 q 514 571 474 614 q 561 535 535 548 q 615 523 587 523 "},"":{"x_min":79.359375,"x_max":1302.453125,"ha":1322,"o":"m 928 101 q 704 -20 833 -20 q 581 13 624 -20 q 523 118 537 47 q 407 13 465 46 q 278 -20 349 -20 q 97 168 97 -20 q 106 262 97 211 l 172 639 l 79 639 l 93 721 l 401 721 l 327 298 q 313 175 313 210 q 317 128 313 140 q 383 93 329 93 q 477 142 437 93 q 534 282 518 191 l 610 721 l 827 721 l 753 298 q 737 175 737 211 q 742 128 737 140 q 808 93 754 93 q 903 142 863 93 q 959 282 943 191 l 1035 721 l 1252 721 l 1140 82 l 1232 82 l 1218 0 l 910 0 l 928 101 m 204 888 l 227 1016 l 1302 1016 l 1280 888 l 204 888 "},"5":{"x_min":21.703125,"x_max":795.5,"ha":869,"o":"m 795 1012 l 764 834 l 276 834 l 237 612 q 336 664 284 646 q 444 682 389 682 q 693 587 612 682 q 745 330 774 492 q 603 72 716 164 q 314 -20 489 -20 q 168 -6 239 -20 q 21 35 96 7 l 60 257 l 133 257 q 154 107 120 156 q 273 59 189 59 q 418 125 362 59 q 497 330 473 192 q 489 532 520 465 q 373 599 459 599 q 286 577 326 599 q 207 511 246 556 l 146 511 l 234 1012 l 795 1012 "},"̆":{"x_min":-458.734375,"x_max":-36.625,"ha":0,"o":"m -454 1078 l -377 1078 q -353 1002 -383 1028 q -263 976 -323 976 q -164 1002 -202 976 q -113 1078 -125 1028 l -36 1078 q -119 922 -53 979 q -282 867 -183 867 q -426 921 -381 867 q -454 1078 -470 976 "}}}
